<?xml version="1.0" encoding="UTF-8" standalone="no"?>
<!-- Created with Inkscape (http://www.inkscape.org/) -->

<svg
   width="100mm"
   height="100mm"
   viewBox="0 0 100 100"
   version="1.1"
   id="svg1"
   xml:space="preserve"
   inkscape:version="1.4.3 (fcd0343856, 2026-01-01)"
   sodipodi:docname="favicon-simu4.svg"
   xmlns:inkscape="http://www.inkscape.org/namespaces/inkscape"
   xmlns:sodipodi="http://sodipodi.sourceforge.net/DTD/sodipodi-0.dtd"
   xmlns="http://www.w3.org/2000/svg"
   xmlns:svg="http://www.w3.org/2000/svg"><sodipodi:namedview
     id="namedview1"
     pagecolor="#ffffff"
     bordercolor="#000000"
     borderopacity="0.25"
     inkscape:showpageshadow="2"
     inkscape:pageopacity="0.0"
     inkscape:pagecheckerboard="0"
     inkscape:deskcolor="#d1d1d1"
     inkscape:document-units="mm"
     inkscape:zoom="1.2667929"
     inkscape:cx="109.7259"
     inkscape:cy="147.22217"
     inkscape:window-width="1648"
     inkscape:window-height="961"
     inkscape:window-x="0"
     inkscape:window-y="0"
     inkscape:window-maximized="1"
     inkscape:current-layer="layer1" /><defs
     id="defs1" /><g
     inkscape:label="Layer 1"
     inkscape:groupmode="layer"
     id="layer1"><path
       style="fill:#000000;stroke-width:0.975743"
       d="m 0.14726666,97.084923 c -0.319703,-0.21576 -0.1621,-0.46914 0.90357904,-1.4527 3.486922,-3.21821 7.972533,-6.19273 13.1663263,-8.73091 4.452838,-2.17608 7.531441,-3.27654 10.870467,-3.8857 3.607469,-0.65813 5.246843,-0.17595 10.895598,3.20471 3.354212,2.00743 7.317538,3.98424 11.214658,5.5936 1.668394,0.68898 3.033439,1.33073 3.033439,1.42611 0,0.23588 -4.057354,1.7658 -8.100552,3.0545 l -3.324495,1.05963 -19.135886,-0.004 C 7.1920987,97.347163 0.39978666,97.255363 0.14726666,97.084883 Z M 31.545982,88.834703 c 0.56041,0 1.65386,0.21838 2.429888,0.48529 0.776029,0.2669 1.875659,0.56627 2.443623,0.66526 1.001345,0.17452 0.966115,0.13338 -1.161744,-1.35668 -2.554837,-1.78906 -5.508532,-3.40818 -6.217409,-3.40818 -0.390279,0 -0.494889,0.18473 -0.494889,0.87393 0,0.48067 -0.194946,1.47755 -0.433214,2.2153 -0.562981,1.74318 -0.197672,2.0561 1.34492,1.15208 0.643752,-0.37726 1.475742,-0.627 2.088825,-0.627 z m 16.503854,8.30203 c 0.134896,-0.11959 1.465088,-0.66585 2.955993,-1.2139 5.940421,-2.18371 11.435649,-5.12829 17.297085,-9.26851 6.21593,-4.39062 7.8831,-4.61183 13.48733,-1.78959 3.37075,1.69748 17.56559,10.76433 18.04949,11.52897 0.612606,0.968042 0.818416,0.96046 -26.06553,0.96046 -14.283285,0 -25.859255,-0.0978 -25.724368,-0.21743 z m 27.739868,-7.7857 c 1.84724,-0.93247 2.11809,-0.9434 4.18929,-0.169 0.89069,0.33302 2.36098,0.68137 3.26732,0.77412 1.63565,0.16739 1.64331,0.16514 1.03265,-0.30403 -1.32774,-1.0201 -3.77613,-2.5845 -5.00403,-3.19731 -2.48455,-1.23999 -3.37342,-1.15741 -4.16334,0.38677 -0.23391,0.45725 -0.76603,1.26497 -1.18249,1.79492 -1.28939,1.64079 -0.5425,1.92762 1.8606,0.71453 z m -23.96789,1.39369 c -1.401977,-0.64009 -4.430292,-3.09243 -4.430292,-3.58767 0,-0.17184 1.021739,-0.2827 2.775276,-0.30112 4.944821,-0.0519 10.294985,-2.06234 14.06884,-5.28661 0.531819,-0.45438 1.037449,-0.75564 1.123607,-0.66948 0.282809,0.28281 -0.987833,2.47047 -2.435048,4.19242 -2.332611,2.77542 -7.650985,6.36222 -9.336708,6.29682 -0.212985,-0.008 -1.007542,-0.29823 -1.765675,-0.64436 z m 2.85355,-1.66285 c 1.230197,-0.34166 1.506342,-0.76744 0.402358,-0.62037 -0.706536,0.0942 -3.077923,0.28048 -4.588217,0.36057 -0.344222,0.0183 -0.344222,0.0483 0,0.2708 0.511573,0.3306 2.979217,0.32411 4.185859,-0.011 z m -9.413868,-5.24093 c -1.364611,-0.38717 -2.258788,-1.06288 -2.258788,-1.70691 0,-0.85091 0.51845,-1.0189 2.682685,-0.86926 4.644744,0.32115 12.775102,-2.16902 17.486223,-5.35567 2.026963,-1.37105 4.474878,-3.65982 5.296708,-4.95234 0.91584,-1.44038 1.21916,-1.25533 1.06618,0.65044 -0.34021,4.23829 -4.150651,8.03155 -10.564085,10.51643 -4.277345,1.65725 -10.96698,2.49527 -13.708923,1.71731 z m -3.485675,-6.8508 c -2.138893,-0.7389 -2.96551,-1.81154 -2.008274,-2.60598 0.298261,-0.24753 0.761173,-0.24639 2.169741,0.005 2.322229,0.415 5.354152,0.0439 9.580445,-1.17251 8.442294,-2.42995 15.788291,-7.33332 18.006661,-12.01925 1.16899,-2.46928 2.13553,-1.84187 1.76246,1.14408 -0.30293,2.42454 -1.46343,4.40921 -4.09918,7.01038 -2.017011,1.99053 -2.792961,2.55453 -5.20982,3.78674 -5.543957,2.82653 -11.185137,4.34315 -16.098683,4.32807 -1.965256,-0.006 -3.133397,-0.14178 -4.10335,-0.47686 z m -2.251043,-6.74886 c -1.984021,-0.34967 -3.414506,-0.98896 -4.138672,-1.84958 -0.724042,-0.86047 -0.68415,-1.52208 0.143774,-2.38444 0.447274,-0.46587 0.567692,-0.47375 1.973801,-0.12908 2.01276,0.49337 6.404087,0.43597 9.113342,-0.11912 5.287427,-1.08332 11.487629,-3.72514 15.569044,-6.63372 3.741677,-2.66647 6.441487,-5.9734 7.540277,-9.23588 0.31338,-0.93046 0.68474,-1.73008 0.82525,-1.77691 0.93152,-0.3105 1.42746,3.35375 0.76133,5.62516 -2.04563,6.97536 -11.744921,13.77549 -22.759663,15.95669 -3.073145,0.60857 -7.244721,0.86125 -9.028483,0.54688 z m 42.818866,-7.16407 c -0.75055,-0.89886 -0.89854,-0.96261 -2.2343,-0.96261 -1.58701,0 -1.64638,-0.12688 -0.34776,-0.74311 1.17705,-0.55855 2.01583,-0.52767 2.81853,0.10372 l 0.66408,0.52236 0.85519,-0.52139 c 1.01919,-0.62139 2.27464,-0.67033 3.32058,-0.12945 1.01271,0.52369 0.96084,0.61636 -0.25378,0.45345 -1.20077,-0.16105 -2.59473,0.56604 -3.06533,1.5989 -0.40416,0.88704 -0.80983,0.81274 -1.75721,-0.32187 z m -48.094773,-1.61835 c -4.360533,-1.15079 -6.225218,-3.47874 -4.985227,-6.22375 1.10703,-2.45068 3.494492,-3.81481 11.035889,-6.30564 8.463473,-2.79538 12.060813,-4.75453 16.025022,-8.72744 1.903801,-1.90797 2.553959,-2.77149 3.425336,-4.54938 2.863971,-5.8434 2.336494,-12.09851 -1.365601,-16.19407 -1.279902,-1.41593 -1.507669,-2.43102 -0.584948,-2.60695 0.892414,-0.17015 3.378695,1.31169 5.090675,3.03409 6.856937,6.89865 5.128107,18.54564 -3.909997,26.3414 -3.745965,3.23107 -7.577561,5.13285 -13.892442,6.89541 -5.63982,1.57415 -8.125818,2.38094 -8.999176,2.92054 -0.717748,0.44346 -0.80617,0.60066 -0.577835,1.02732 0.379918,0.70988 1.821751,1.03953 4.553965,1.0412 7.562153,0.005 17.179105,-3.83516 22.670966,-9.05189 3.394916,-3.22484 4.980736,-6.24712 5.270436,-10.04454 0.15049,-1.97269 0.2214,-2.20076 0.68422,-2.20076 0.3618,0 0.7087,0.38635 1.15904,1.29082 0.84499,1.69711 0.86576,4.67729 0.0482,6.92439 -2.6457,7.27228 -12.507376,13.95839 -23.88314,16.19249 -3.933649,0.77255 -9.324238,0.88102 -11.765432,0.23676 z m 52.383773,-13.42601 c 0,-0.14844 -0.28515,-0.55505 -0.63368,-0.90358 -0.79378,-0.79378 -2.08983,-0.8352 -3.50724,-0.1121 -1.33072,0.67888 -1.31518,0.2101 0.0253,-0.76089 1.44544,-1.04707 2.3067,-1.18925 3.65117,-0.60274 0.94666,0.41298 1.20487,0.43513 1.75535,0.15061 1.40503,-0.72623 3.30323,-0.24276 4.36963,1.11295 0.72317,0.91937 0.53995,1.01378 -0.72001,0.371 -1.34564,-0.68649 -2.7157,-0.69376 -3.39146,-0.018 -0.28398,0.28398 -0.51632,0.63251 -0.51632,0.7745 0,0.14199 -0.23236,0.25816 -0.51634,0.25816 -0.28398,0 -0.51633,-0.12145 -0.51633,-0.2699 z m -45.02778,-2.61299 c -0.05901,-0.1893 -0.173671,-0.86696 -0.254804,-1.50591 -0.08113,-0.63897 -0.220183,-1.42108 -0.309001,-1.73802 -0.130009,-0.46394 -0.02137,-0.62955 0.557353,-0.84958 0.998316,-0.37955 1.230872,-0.23094 2.148575,1.37304 1.17878,2.06029 1.005621,3.12908 -0.341833,2.10992 -0.679112,-0.51365 -0.868294,-0.47806 -0.965362,0.18161 -0.09471,0.64366 -0.675053,0.94181 -0.834928,0.42894 z m -9.447073,-0.66688 c -0.0011,-0.24848 0.318394,-1.23559 0.709955,-2.19356 0.738789,-1.8075 1.08517,-2.04545 2.14881,-1.47621 0.741614,0.3969 0.630431,0.73663 -0.821171,2.50911 -1.317135,1.60831 -2.033854,2.01656 -2.037594,1.16066 z m 4.003537,-5.19688 c -0.851946,-0.24671 -1.827147,-0.60002 -2.167114,-0.78512 -1.250944,-0.6811 -2.937143,-2.4959 -3.728108,-4.01245 -0.727743,-1.39533 -0.812258,-1.78813 -0.807483,-3.75285 0.0044,-1.81869 0.120104,-2.43752 0.675654,-3.61431 0.990766,-2.0987 2.315443,-3.47052 4.289843,-4.44251 1.565464,-0.77068 1.943392,-0.84988 4.055266,-0.84988 3.108033,0 4.733583,0.65192 6.655291,2.6691 1.83185,1.92283 2.387448,3.37843 2.380901,6.2376 -0.0059,2.66482 -0.538318,4.00797 -2.359634,5.9551 -1.400198,1.49693 -2.938036,2.36538 -4.94122,2.79041 -1.747229,0.37073 -2.169817,0.35038 -4.053396,-0.19509 z m 12.914677,-0.70381 c -0.990418,-0.4985 -1.84593,-0.95153 -1.901147,-1.00675 -0.05523,-0.0552 0.160705,-0.52288 0.479841,-1.03926 l 0.580235,-0.93884 1.44209,1.37706 c 1.692484,1.61616 1.835948,1.78884 1.841188,2.2161 0.0059,0.49798 -0.489521,0.37453 -2.442207,-0.60831 z m -23.543042,0.2651 c -0.169195,-0.44091 2.350631,-3.20657 2.921548,-3.20657 0.309005,0 1.5261,1.50163 1.345389,1.65992 -0.220522,0.19316 -3.758077,1.95439 -3.925525,1.95439 -0.101721,0 -0.255356,-0.18348 -0.341412,-0.40774 z m 23.969169,-8.13739 0.08382,-0.8779 1.55348,0.0215 c 1.95374,0.027 2.964405,0.27516 2.964405,0.72782 0,0.43307 -0.647181,0.61839 -2.923609,0.83717 l -1.76187,0.16932 z m -24.958243,-0.32364 c -1.541979,-0.35807 -1.733232,-0.96181 -0.387248,-1.22246 2.446214,-0.47371 3.096266,-0.4628 3.374243,0.0566 0.147771,0.27611 0.196323,0.72998 0.107893,1.0086 -0.186526,0.58769 -1.051935,0.63167 -3.094888,0.15726 z m 23.126471,-6.07577 c -0.624642,-0.87724 -0.603283,-0.90296 1.714575,-2.06419 1.872217,-0.93796 2.137228,-0.97692 2.137228,-0.31425 0,0.46634 -2.638252,3.12389 -3.101213,3.12389 -0.120875,0 -0.458638,-0.33546 -0.75059,-0.74545 z m -19.192968,-1.14149 c -2.421207,-2.97764 -2.217424,-3.54303 0.659851,-1.83071 l 1.989431,1.18394 -0.580657,0.73286 c -0.87333,1.10225 -1.110371,1.09239 -2.068625,-0.0861 z m 14.073527,-2.62859 c -0.46147,-0.20057 -0.839038,-0.46372 -0.839038,-0.58476 0,-0.30976 1.4956,-2.65731 2.137197,-3.35462 0.771529,-0.83853 1.047806,-0.71904 0.89541,0.38725 -0.184016,1.33584 -0.965793,3.93922 -1.179227,3.92691 -0.09641,-0.006 -0.552872,-0.17421 -1.014342,-0.37478 z m -7.29317,-0.38746 c -0.29406,-0.18546 -0.379411,-0.71684 -0.35468,-2.20817 0.03332,-2.00951 0.308012,-2.74148 0.799026,-2.12919 0.489195,0.61003 1.449213,3.83632 1.208268,4.06058 -0.414967,0.38624 -1.255769,0.52706 -1.652614,0.27678 z"
       id="path2"
       sodipodi:nodetypes="ssssssssccsssssssssssssssssssssssssssssssscssssssssssssssscscssssscccssssssssssssssscssssssssssssssssscsssscssssssssssssssssssssssssssssssssssssscsssssscscssssssccsssccsssssssssssscssssssscssssss" /></g></svg>
