<?xml version="1.0" encoding="UTF-8" standalone="no"?>
<!-- Created with Inkscape (http://www.inkscape.org/) -->

<svg
   width="100mm"
   height="100mm"
   viewBox="0 0 100 100"
   version="1.1"
   id="svg1"
   xml:space="preserve"
   inkscape:version="1.4.3 (fcd0343856, 2026-01-01)"
   sodipodi:docname="favicon-map3.svg"
   xmlns:inkscape="http://www.inkscape.org/namespaces/inkscape"
   xmlns:sodipodi="http://sodipodi.sourceforge.net/DTD/sodipodi-0.dtd"
   xmlns="http://www.w3.org/2000/svg"
   xmlns:svg="http://www.w3.org/2000/svg"><sodipodi:namedview
     id="namedview1"
     pagecolor="#ffffff"
     bordercolor="#000000"
     borderopacity="0.25"
     inkscape:showpageshadow="2"
     inkscape:pageopacity="0.0"
     inkscape:pagecheckerboard="0"
     inkscape:deskcolor="#d1d1d1"
     inkscape:document-units="mm"
     inkscape:zoom="0.31669823"
     inkscape:cx="366.27928"
     inkscape:cy="298.39131"
     inkscape:window-width="1648"
     inkscape:window-height="961"
     inkscape:window-x="0"
     inkscape:window-y="0"
     inkscape:window-maximized="1"
     inkscape:current-layer="layer1" /><defs
     id="defs1" /><g
     inkscape:label="Layer 1"
     inkscape:groupmode="layer"
     id="layer1"><path
       style="fill:#000000"
       d="m 53.024433,88.050852 c -0.74039,-0.30265 -1.417373,-1.28679 -1.417373,-2.06046 0,-1.14989 1.003284,-1.77347 3.707278,-2.3042 3.126569,-0.61368 3.683777,-0.57968 4.42866,0.27018 0.731819,0.83496 0.758446,1.69387 0.07928,2.55729 -0.399857,0.50834 -1.010412,0.75802 -2.711979,1.10903 -3.173918,0.65473 -3.458606,0.68456 -4.085866,0.42816 z m -10.016331,-0.40725 c -0.873125,-0.19674 -1.74174,-0.36536 -1.930255,-0.3747 -0.638606,-0.0317 -1.641865,-1.29431 -1.633205,-2.05548 0.0097,-0.85099 0.400163,-1.44453 1.247154,-1.8957 0.48042,-0.25591 1.138624,-0.20562 3.439583,0.2628 3.25033,0.66168 3.877348,1.06742 3.877348,2.50898 0,1.86658 -1.518933,2.33864 -5.000625,1.5541 z m 21.645112,-3.04006 c -0.96596,-0.38909 -1.514583,-1.46799 -1.237593,-2.4338 0.1944,-0.67783 0.679519,-1.09046 2.615573,-2.22474 1.439557,-0.8434 2.704455,-1.39883 3.207492,-1.40845 2.101994,-0.0402 2.838852,2.31887 1.161651,3.71906 -0.893564,0.74598 -4.462398,2.62979 -4.922388,2.59828 -0.134666,-0.009 -0.505797,-0.12188 -0.824735,-0.25035 z m -33.022195,-1.08674 c -2.520321,-1.44477 -3.148542,-2.10385 -3.148542,-3.30322 0,-1.11514 0.811198,-1.9575 1.885094,-1.9575 0.364267,0 1.521929,0.53578 2.572583,1.19063 1.050654,0.65484 2.042363,1.19062 2.203798,1.19062 0.485519,0 1.117275,1.12205 1.117275,1.98438 0,2.2411 -1.706626,2.57102 -4.630208,0.89509 z m -8.557526,-6.58291 c -1.460271,-1.46027 -3.148246,-3.56682 -3.329153,-4.15469 -0.209498,-0.68078 0.418691,-2.05377 1.050616,-2.29626 1.427541,-0.5478 2.298143,0.0244 5.098265,3.35058 1.042208,1.23802 1.107379,2.33016 0.193575,3.24396 -0.907118,0.90712 -2.015406,0.85431 -3.013303,-0.14359 z m 50.614249,0.14359 c -0.399068,-0.39907 -0.649432,-0.95352 -0.649432,-1.43822 0,-0.76776 0.228345,-1.08167 3.042708,-4.18288 1.041078,-1.14718 2.153169,-1.36513 3.11303,-0.61011 0.56585,0.4451 0.723429,0.7924 0.723429,1.59444 0,0.84021 -0.235605,1.30851 -1.304573,2.593 -2.351573,2.8257 -3.617794,3.35114 -4.925162,2.04377 z m -24.693234,-3.02145 c -1.058695,-1.0587 -5.381939,-6.99131 -7.559018,-10.37293 -2.608113,-4.05114 -5.81586,-10.37992 -7.017328,-13.84494 -1.27343,-3.67257 -1.708489,-6.6868 -1.334403,-9.24519 0.654674,-4.47735 2.357164,-7.83812 5.419242,-10.69776 2.158347,-2.01566 4.734904,-3.44917 7.547809,-4.19934 2.315724,-0.61758 6.691481,-0.60982 8.995834,0.016 4.741929,1.28773 9.028641,4.73296 11.069994,8.89696 1.60658,3.27713 1.979975,5.05098 1.83461,8.71547 -0.152015,3.83214 -1.014711,6.557 -3.93923,12.44224 -2.751206,5.53646 -8.871567,14.8812 -11.827014,18.05781 -0.831085,0.89328 -2.413975,1.00824 -3.190496,0.23172 z m 5.07254,-24.08444 c 2.792998,-1.35207 4.473252,-3.91454 4.639401,-7.07532 0.130769,-2.48772 -0.761439,-4.60747 -2.656396,-6.3112 -3.399559,-3.05649 -8.308427,-2.91694 -11.464869,0.32593 -4.170556,4.28476 -2.369926,11.57595 3.31771,13.43421 1.686058,0.55087 4.622019,0.37291 6.164154,-0.37362 z m -37.628525,17.50272 c -0.922944,-0.85978 -2.402295,-4.24587 -2.402295,-5.4986 0,-0.63461 0.193907,-1.03167 0.697139,-1.42751 1.576777,-1.24029 2.780873,-0.41236 4.176352,2.87166 0.521038,1.22617 0.947342,2.38142 0.947342,2.56723 0,0.68963 -0.607225,1.63628 -1.232251,1.92106 -0.962834,0.4387 -1.327284,0.36638 -2.186287,-0.43384 z m 64.440677,0.17923 c -0.492647,-0.38751 -0.69714,-0.79576 -0.69714,-1.39177 0,-0.85696 1.476324,-4.56433 2.132341,-5.35478 0.993751,-1.1974 2.854173,-0.95971 3.433395,0.43866 0.272204,0.65716 0.230513,1.01586 -0.281824,2.4247 -0.875904,2.40859 -1.611182,3.64048 -2.423655,4.06063 -0.965974,0.49952 -1.341683,0.4687 -2.163117,-0.17744 z M 13.303057,56.647752 c -0.184963,-0.0744 -0.507352,-0.46609 -0.716419,-0.87039 -0.478216,-0.92476 -0.596384,-5.76878 -0.160592,-6.58307 0.625633,-1.169 2.791509,-1.02199 3.364417,0.22836 0.165142,0.36042 0.377738,1.85404 0.472435,3.31916 0.167032,2.58424 0.152525,2.68505 -0.485446,3.37343 -0.627715,0.67732 -1.596369,0.88578 -2.474395,0.53251 z m 71.172915,0 c -0.814823,-0.32784 -1.055656,-1.49124 -0.885766,-4.2789 0.156783,-2.57259 0.211051,-2.77429 0.9076,-3.37344 0.94652,-0.81416 1.885619,-0.80993 2.707739,0.0122 0.573626,0.57362 0.648087,0.87474 0.637909,2.57968 -0.01594,2.67072 -0.353227,4.19996 -1.050935,4.76493 -0.557842,0.45171 -1.598435,0.58447 -2.316547,0.29554 z M 13.288598,44.306222 c -0.72628,-0.77309 -0.729835,-1.701 -0.0174,-4.54157 0.631781,-2.51899 1.141564,-3.15399 2.53207,-3.15399 1.133059,0 1.937126,0.82884 1.937126,1.99681 0,1.31706 -1.118769,5.31321 -1.630863,5.82531 -0.693845,0.69384 -2.109887,0.63031 -2.820934,-0.12656 z m 70.612973,0.14882 c -0.431752,-0.34961 -0.786025,-1.20549 -1.236298,-2.98675 -0.767767,-3.03725 -0.770683,-3.1801 -0.08276,-4.05465 0.401847,-0.51087 0.790673,-0.69714 1.455208,-0.69714 1.54662,0 2.100566,0.9319 3.034421,5.10481 0.317719,1.41972 0.30399,1.58097 -0.191331,2.24722 -0.678327,0.91241 -2.10173,1.09708 -2.979241,0.38651 z M 17.670586,33.475352 c -0.578043,-0.43895 -1.016203,-1.66586 -0.802336,-2.24666 0.376384,-1.02214 2.280812,-3.79772 3.049619,-4.44463 0.612996,-0.5158 0.987776,-0.64456 1.502438,-0.51616 0.950887,0.23723 1.551247,0.83954 1.753163,1.75886 0.142577,0.64915 -0.06246,1.13661 -1.219148,2.89846 -0.764803,1.16494 -1.635585,2.2897 -1.93507,2.49947 -0.669931,0.46923 -1.76631,0.49289 -2.348666,0.0507 z m 62.192437,0 c -0.727037,-0.57226 -3.120546,-4.50693 -3.120546,-5.12984 0,-0.96813 1.055994,-1.97561 2.101888,-2.00532 1.069545,-0.0304 1.917623,0.81843 3.528835,3.53193 1.054634,1.77614 1.111078,2.52741 0.260781,3.47094 -0.490543,0.54433 -2.147011,0.62341 -2.770958,0.13229 z m -55.123804,-9.10061 c -0.713847,-0.77026 -0.865332,-2.09992 -0.318096,-2.7921 0.181901,-0.23008 1.206237,-1.08627 2.276301,-1.90265 2.143983,-1.635698 3.197733,-1.878361 4.295742,-0.989247 0.936613,0.758427 0.851705,2.324577 -0.169126,3.119547 -0.429287,0.33431 -1.539837,1.20559 -2.46789,1.93619 -1.918955,1.51066 -2.677099,1.64235 -3.616931,0.62826 z m 48.001114,0.23568 c -1.618223,-1.07508 -4.184651,-3.30394 -4.329377,-3.75993 -0.402576,-1.2684 0.630274,-2.654825 1.977778,-2.654825 0.769018,0 2.91608,1.371725 4.488815,2.867825 1.321775,1.25738 1.402338,2.13339 0.29778,3.23794 -0.88824,0.88824 -1.454861,0.96014 -2.434996,0.30899 z M 35.207288,18.384581 c -1.563799,-0.791229 -1.337737,-2.907362 0.398522,-3.730501 4.451245,-2.110281 6.740834,-1.923655 6.740834,0.549448 0,0.921612 -0.758081,1.933806 -1.448321,1.933806 -0.214493,0 -1.289155,0.357187 -2.388137,0.79375 -2.254807,0.895705 -2.391749,0.914507 -3.302898,0.453497 z M 61.13206,17.895189 c -3.00081,-1.224117 -3.175299,-1.331001 -3.368114,-2.063156 -0.360605,-1.369295 0.187142,-2.471772 1.376349,-2.770244 0.691657,-0.173595 5.585837,1.487113 6.219085,2.110279 0.515754,0.507541 0.503944,2.374478 -0.01832,2.896745 -0.746697,0.746697 -2.08861,0.691342 -4.208997,-0.173624 z M 46.224109,15.330563 c -0.614501,-0.679017 -0.564439,-2.300006 0.09129,-2.955729 0.455401,-0.455402 0.907213,-0.533537 3.241146,-0.560515 3.490307,-0.04035 3.403116,-0.05568 4.101041,0.721154 0.740688,0.824431 0.763761,1.940023 0.05584,2.699887 -0.498514,0.535092 -0.786684,0.579057 -3.795451,0.579057 -2.81832,0 -3.314836,-0.06504 -3.69386,-0.483854 z"
       id="path2"
       sodipodi:nodetypes="sssssssscsssssssssscssssssssssssssssssssssssssscssssssssssssssssssssssssssssssssssssssssssssssssssssssscssssssccssssssssssssssssssssssssssssssssssssssss" /></g></svg>
