<?xml version="1.0" encoding="UTF-8" standalone="no"?>
<!-- Created with Inkscape (http://www.inkscape.org/) -->

<svg
   width="100mm"
   height="100mm"
   viewBox="0 0 99.999998 99.999998"
   version="1.1"
   id="svg1"
   inkscape:version="1.4.3 (fcd0343856, 2026-01-01)"
   sodipodi:docname="favicon-up3.svg"
   xmlns:inkscape="http://www.inkscape.org/namespaces/inkscape"
   xmlns:sodipodi="http://sodipodi.sourceforge.net/DTD/sodipodi-0.dtd"
   xmlns="http://www.w3.org/2000/svg"
   xmlns:svg="http://www.w3.org/2000/svg">
  <sodipodi:namedview
     id="namedview1"
     pagecolor="#ffffff"
     bordercolor="#000000"
     borderopacity="0.25"
     inkscape:showpageshadow="2"
     inkscape:pageopacity="0.0"
     inkscape:pagecheckerboard="0"
     inkscape:deskcolor="#d1d1d1"
     inkscape:document-units="mm"
     inkscape:zoom="1"
     inkscape:cx="380"
     inkscape:cy="296.5"
     inkscape:window-width="1920"
     inkscape:window-height="1011"
     inkscape:window-x="0"
     inkscape:window-y="0"
     inkscape:window-maximized="1"
     inkscape:current-layer="layer1" />
  <defs
     id="defs1">
    <clipPath
       clipPathUnits="userSpaceOnUse"
       id="clipPath3">
      <rect
         style="fill:#cccccc;stroke-width:2;paint-order:markers stroke fill"
         id="rect4"
         width="120.17938"
         height="121.26615"
         x="154.77582"
         y="297.83905" />
    </clipPath>
  </defs>
  <g
     inkscape:label="Layer 1"
     inkscape:groupmode="layer"
     id="layer1"
     transform="translate(-3.96875,-70.37916)">
    <path
       style="fill:#000000;stroke-width:0.946005"
       d="M 48.926916,170.12685 C 25.979475,167.70947 7.3692948,149.5365 4.3697636,126.61647 L 3.96875,123.55223 4.0958625,119.02937 4.222975,114.50651 4.6475095,112.11945 C 5.9473572,104.81064 8.9511477,97.568939 13.19393,91.515318 l 1.673015,-2.387062 3.490585,-3.544174 c 6.290501,-6.387064 11.751957,-9.864332 19.696918,-12.540886 17.903452,-6.031437 37.054291,-1.66953 50.684948,11.544309 8.357075,8.101515 13.550734,18.629025 14.884264,30.170285 0.84267,7.293 0.15813,13.77022 -2.23065,21.10667 l -1.06359,3.2665 -1.503403,3.01524 c -6.334168,12.70377 -17.373874,22.15538 -30.478224,26.09381 -6.295494,1.89208 -13.097677,2.55295 -19.420877,1.88684 z m 16.942829,-6.83667 c 1.172057,-0.32497 2.461538,-0.749 2.865521,-0.94226 l 0.734508,-0.3514 2.42475,-3.2665 c 1.333611,-1.79658 2.620756,-3.63289 2.860319,-4.08067 l 0.435559,-0.81415 -1.209345,-1.23736 -1.209345,-1.23737 2.151282,-2.7062 2.151273,-2.70618 v -3.99486 -3.99486 l -0.311661,0.10042 c -0.260756,0.0841 -4.219167,4.5764 -7.900341,8.96604 l -0.930506,1.10959 -2.030031,-1.69257 -2.030031,-1.69257 -5.381442,4.56582 -5.381451,4.56582 4.814557,4.97383 4.814557,4.97383 0.500403,0.0262 c 0.27523,0.0144 1.459367,-0.23965 2.631424,-0.56463 z m -22.584037,-0.22576 c -0.451457,-1.56685 -2.189682,-5.88695 -2.494728,-6.20032 -0.191832,-0.19706 -0.998232,-0.70588 -1.791985,-1.13071 l -1.443207,-0.77242 -0.126151,-4.14596 c -0.06936,-2.28027 -0.123183,-4.16712 -0.119555,-4.19298 0.0262,-0.18653 8.578356,4.06567 9.069524,4.50943 l 0.623142,0.563 -0.77991,-1.00508 c -0.428954,-0.5528 -3.189027,-3.42443 -6.133497,-6.38141 l -5.353577,-5.37633 -0.74216,0.60221 c -1.898735,1.54066 -12.166936,10.63004 -12.334475,10.91843 l -0.188996,0.32532 2.079834,1.91831 c 5.306139,4.89406 11.33677,8.41152 17.621079,10.27776 1.165611,0.34615 2.1549,0.63538 2.198418,0.64273 0.04354,0.008 0.0057,-0.24104 -0.08377,-0.55198 z m 12.845017,-2.04221 c 0,-0.0521 -0.196346,-0.25006 -0.436323,-0.43973 l -0.436323,-0.34485 0.342183,0.43973 c 0.32572,0.41855 0.530463,0.55166 0.530463,0.34485 z m -1.816958,-11.652 c 4.566448,-3.90269 9.404008,-7.85003 9.621745,-7.85115 0.11017,-5.7e-4 0.993257,0.64464 1.962418,1.43377 l 1.762114,1.43482 0.622605,-0.74382 c 3.876126,-4.63071 8.303013,-9.66408 8.498474,-9.66273 0.09263,6.4e-4 2.970658,2.9405 6.395524,6.53302 3.424876,3.59251 6.285921,6.53007 6.357859,6.5279 0.30106,-0.01 3.228794,-4.8236 4.556139,-7.49239 1.665467,-3.34861 2.915116,-7.07013 3.684293,-10.972 l 0.544862,-2.76397 0.132305,-3.85149 0.132315,-3.8515 -0.313819,-2.68152 c -0.613474,-5.24222 -2.198437,-10.55871 -4.508428,-15.12273 l -1.079293,-2.132448 -0.211603,1.626131 -0.211603,1.626117 -0.549187,0.98995 c -0.302049,0.54447 -0.865824,1.22611 -1.252834,1.51475 l -0.703647,0.5248 -1.51113,0.0415 -1.51113,0.0415 -5.091484,4.79381 c -2.80031,2.63659 -8.618094,8.13423 -12.928395,12.21697 l -7.836912,7.42317 0.27736,0.44758 c 0.152546,0.24617 0.515612,0.55304 0.806814,0.68193 l 0.529455,0.23435 -0.02563,2.06063 -0.02563,2.06063 -0.430095,0.66151 c -0.513765,0.79021 -1.788122,1.37335 -3.001236,1.37335 h -0.880657 l -0.0085,0.31408 c -0.0047,0.17276 -0.162526,1.55493 -0.351258,3.07151 l -0.343154,2.75742 -0.774642,0.69754 -0.774653,0.69754 h -0.85248 c -1.192185,0 -2.035807,-0.3729 -2.516609,-1.11241 l -0.41109,-0.63231 -0.240901,-1.95442 c -0.132502,-1.07494 -0.291777,-2.30433 -0.353953,-2.73198 l -0.113034,-0.77755 -1.388738,-0.31321 -1.38873,-0.3132 -0.754656,-0.67954 -0.754655,-0.67953 -0.193227,-1.98886 c -0.223722,-2.3027 -0.157334,-2.58742 0.650969,-2.79188 l 0.595815,-0.1507 0.03741,-0.34966 c 0.02054,-0.19231 0.04863,-0.44545 0.06229,-0.56252 0.02497,-0.21285 -5.010555,-5.03393 -13.444884,-12.87241 -2.464987,-2.29084 -6.279823,-5.85259 -8.477402,-7.915 l -3.995597,-3.74982 h -1.658785 -1.658796 l -0.703477,-0.5248 c -0.386906,-0.28864 -0.970659,-1.00691 -1.297218,-1.59616 l -0.593751,-1.07135 -0.126189,-2.230423 -0.126189,-2.230423 -0.75377,1.188242 c -1.235269,1.947266 -2.834367,5.534274 -3.902493,8.753824 l -1.002784,3.02259 -0.5109185,2.99782 c -0.2810064,1.6488 -0.5757521,4.41121 -0.6549842,6.13869 l -0.1440653,3.14088 0.4107292,3.14088 c 0.9515108,7.27626 3.1905058,13.43894 7.0352808,19.36416 l 1.212209,1.86814 0.06464,-12.34623 0.06465,-12.34623 0.359692,-0.30084 0.359692,-0.30085 0.499535,0.15979 0.499526,0.15978 0.07341,1.66198 0.07341,1.66197 1.246643,-1.67079 c 0.685648,-0.91894 1.414936,-1.72775 1.620631,-1.79736 0.205694,-0.0696 4.238004,0.65185 8.960683,1.60323 l 8.586686,1.72978 0.326785,0.45039 0.326795,0.4504 v 1.32213 c 0,0.72717 -0.129355,1.60826 -0.287461,1.95796 l -0.287462,0.63582 -0.772183,0.12716 c -0.424704,0.0699 -4.363892,0.75026 -8.753764,1.5118 -4.389872,0.76155 -8.047638,1.38463 -8.128369,1.38463 -0.08076,0 -0.752526,-0.85382 -1.492886,-1.89737 l -1.346098,-1.89738 -0.06757,4.91262 c -0.03722,2.70193 -0.03722,7.12294 0,9.82446 l 0.06757,4.91186 3.864582,-3.37843 c 2.125528,-1.85814 5.491461,-4.80114 7.479849,-6.54001 l 3.615258,-3.16155 8.103152,8.24939 c 4.45674,4.53716 8.199402,8.26621 8.317016,8.28679 0.117623,0.0206 1.503808,-1.06504 3.080412,-2.41248 z m -4.012313,-15.83 c -0.07058,-0.24185 -0.312613,-1.17364 -0.537832,-2.07065 -0.225239,-0.897 -0.471068,-1.73129 -0.546304,-1.85397 l -0.136781,-0.22305 -0.183352,0.34635 -0.183351,0.34636 0.196591,1.62095 0.196573,1.62096 0.44291,0.32638 c 0.243605,0.17951 0.541234,0.32639 0.661392,0.32639 h 0.218482 z m 9.661211,0.0598 c 0.346621,-0.34932 0.606887,-1.48373 0.731182,-3.18705 l 0.04947,-0.67735 -0.249325,-0.0425 -0.249335,-0.0425 -0.40499,1.34811 c -0.222741,0.74146 -0.4841,1.71559 -0.580794,2.16474 l -0.175812,0.81662 h 0.251332 c 0.138232,0 0.420963,-0.17095 0.628297,-0.3799 z m -2.517448,-0.67462 c 0.525959,-1.42671 1.862963,-7.97914 4.040357,-19.80088 0.958861,-5.20598 2.908868,-15.540178 3.484451,-18.466052 l 0.345557,-1.756606 -0.250739,-0.156166 c -0.137902,-0.08585 -1.391047,-0.369597 -2.78479,-0.630456 l -2.534071,-0.474299 -5.36055,0.01282 -5.36055,0.01282 -2.368624,0.443445 c -1.302731,0.243897 -2.434229,0.520795 -2.514441,0.615336 -0.08019,0.09449 0.61501,4.129386 1.544922,8.966338 0.929913,4.83693 2.374382,12.35619 3.209937,16.70944 0.835556,4.35325 1.916865,9.55454 2.402925,11.55842 l 0.883729,3.64341 2.52427,-0.0495 2.524271,-0.0495 z m -4.037983,-0.85234 -0.767113,-0.65051 v -0.748 c 0,-1.03715 0.351418,-1.59759 1.232272,-1.9653 l 0.752677,-0.3142 0.634498,0.1605 c 0.348977,0.0882 0.856042,0.38375 1.126814,0.65663 l 0.492318,0.49616 v 0.77313 0.77314 l -0.728808,0.73448 -0.728798,0.73448 H 54.797716 54.174348 Z M 27.45801,130.10213 c 3.239979,-0.49688 8.270935,-1.34994 10.180488,-1.72621 l 1.578705,-0.31109 0.251427,-0.45279 0.251435,-0.45279 -0.139683,-0.56086 -0.139665,-0.56086 -2.563094,-0.56437 c -1.409706,-0.31042 -3.460676,-0.72257 -4.557732,-0.9159 -1.097027,-0.19334 -3.116589,-0.58122 -4.487894,-0.86194 -1.371315,-0.28072 -2.785657,-0.56301 -3.143003,-0.62731 l -0.649716,-0.11689 0.202537,1.05437 c 0.26084,1.35792 0.259936,4.27317 -0.0019,5.63619 l -0.204291,1.06403 0.526807,-0.12016 c 0.289742,-0.0661 1.59269,-0.28363 2.895431,-0.48342 z m -4.649252,-5.12304 -0.212649,-1.42685 -1.184307,1.55135 c -0.651375,0.85324 -1.184307,1.62506 -1.184307,1.71516 0,0.0901 0.532932,0.86191 1.184307,1.71515 l 1.184307,1.55136 0.212649,-1.83966 0.212658,-1.83965 z m 20.406077,-5.73376 c -2.379744,-3.9233 -9.217735,-15.32578 -11.694559,-19.500916 -0.471416,-0.794637 -0.94939,-1.444799 -1.062179,-1.444799 -0.494466,0 -6.490682,4.616455 -6.490682,4.997145 0,0.0969 3.057381,3.01561 6.794191,6.48599 3.736801,3.47036 8.645442,8.05682 10.908089,10.19211 2.262648,2.13529 4.148378,3.85438 4.190529,3.82018 0.04212,-0.0342 -1.14829,-2.08157 -2.645389,-4.54971 z m 26.256824,-0.98334 c 9.25982,-8.74945 14.255071,-13.41972 14.902253,-13.93276 0.373374,-0.29599 0.678853,-0.677 0.678853,-0.84671 0,-0.35961 -2.686259,-2.62087 -4.905983,-4.129774 l -1.54006,-1.046892 -7.498083,12.576566 c -4.123943,6.91711 -7.498074,12.64799 -7.498074,12.7353 0,0.17997 0.07529,0.11118 5.861094,-5.35573 z m -22.700897,-1.14076 c -0.631256,-3.23466 -1.921237,-9.882 -2.866623,-14.77184 -0.945386,-4.889844 -1.785107,-8.957368 -1.866044,-9.038936 -0.233211,-0.235037 -4.74587,1.396962 -7.422263,2.684236 l -2.441306,1.174215 6.908563,11.558415 c 3.799712,6.35713 7.310558,12.25311 7.801866,13.10219 0.4913,0.84909 0.924843,1.46034 0.963432,1.35836 0.03854,-0.10198 -0.44635,-2.83197 -1.077625,-6.06664 z m 23.479573,-8.41979 c 3.616039,-6.09496 6.574616,-11.198484 6.574616,-11.341174 0,-0.521147 -9.274153,-4.371678 -9.640385,-4.002594 -0.121731,0.12268 -5.568986,29.022878 -5.567271,29.536868 7.53e-4,0.22354 0.464207,-0.38507 1.029885,-1.35246 0.565698,-0.96739 3.987106,-6.74568 7.603155,-12.84064 z M 23.094759,99.904312 c 11.75483,-9.779679 27.200673,-13.542013 42.011764,-10.233313 4.052259,0.905246 6.854059,1.886798 10.671552,3.738554 3.812085,1.849125 6.609832,3.623215 9.27469,5.881226 1.028482,0.871461 2.127008,1.755951 2.441166,1.965551 l 0.5712,0.38107 0.59966,-0.27535 0.599649,-0.27535 0.169622,-0.91118 c 0.09329,-0.501155 0.116398,-1.721876 0.05136,-2.712717 L 89.367158,95.661276 88.788955,94.27929 c -0.318002,-0.760096 -1.087311,-2.173488 -1.709568,-3.140872 l -1.131376,-1.758896 -2.1335,-2.135795 -2.13349,-2.135787 -2.24105,-1.527999 c -1.232574,-0.840402 -2.858133,-1.875982 -3.612355,-2.301287 -3.848609,-2.17026 -10.065221,-4.232465 -15.02193,-4.98316 l -2.805023,-0.424821 -3.989244,0.01035 -3.989245,0.01035 -2.617948,0.407537 C 32.603689,78.602936 20.579367,87.457006 19.232261,97.043243 l -0.229517,1.633263 0.19939,0.88535 c 0.109661,0.486954 0.333071,1.137114 0.496473,1.444804 l 0.297093,0.55944 0.552212,-9.5e-4 0.552222,-9.5e-4 z"
       id="path2-0"
       sodipodi:nodetypes="sscccsscssssscssssscsscccccccsscccccccsssssscssscsscsscsscsssscsscsscssscsscccsscccsscccsscsscccsscsscccsscsscccccsscscsscccsscccsscsscsscccccccccssscccsscssssccccsscssccssscccccsscssscccsscsssssscsscccssssscccsccsscssccccccccsscccccsssscsscsssccsssccccsssssssssssscssssssscsssssssssscsssscccsscsscccssscccsscsscccc" />
  </g>
</svg>
