<?xml version="1.0" encoding="UTF-8" standalone="no"?>
<!-- Created with Inkscape (http://www.inkscape.org/) -->

<svg
   width="100mm"
   height="100mm"
   viewBox="0 0 100 100"
   version="1.1"
   id="svg1"
   inkscape:version="1.4.3 (fcd0343856, 2026-01-01)"
   sodipodi:docname="favicon-about3.svg"
   xmlns:inkscape="http://www.inkscape.org/namespaces/inkscape"
   xmlns:sodipodi="http://sodipodi.sourceforge.net/DTD/sodipodi-0.dtd"
   xmlns="http://www.w3.org/2000/svg"
   xmlns:svg="http://www.w3.org/2000/svg">
  <sodipodi:namedview
     id="namedview1"
     pagecolor="#ffffff"
     bordercolor="#000000"
     borderopacity="0.25"
     inkscape:showpageshadow="2"
     inkscape:pageopacity="0.0"
     inkscape:pagecheckerboard="0"
     inkscape:deskcolor="#d1d1d1"
     inkscape:document-units="mm"
     inkscape:zoom="0.5"
     inkscape:cx="396"
     inkscape:cy="561"
     inkscape:window-width="1920"
     inkscape:window-height="1011"
     inkscape:window-x="0"
     inkscape:window-y="0"
     inkscape:window-maximized="1"
     inkscape:current-layer="layer1" />
  <defs
     id="defs1" />
  <g
     inkscape:label="Layer 1"
     inkscape:groupmode="layer"
     id="layer1">
    <path
       style="fill:#000000;stroke-width:1.36249"
       d="m 49.573083,96.685874 c -0.226883,-0.36709 -8.846735,-34.49551 -8.846735,-35.02668 0,-0.17895 0.221447,-0.32536 0.49212,-0.32536 0.270673,0 0.904588,-0.32445 1.408711,-0.72099 0.504123,-0.39654 1.337111,-0.72099 1.851085,-0.72099 1.215782,0 2.277547,-1.08879 2.567145,-2.632479 0.191649,-1.021626 0.452253,-1.298662 1.53387,-1.630621 0.716645,-0.219934 1.348911,-0.353962 1.405046,-0.297828 0.05613,0.05613 0.110907,7.999738 0.12167,17.652468 0.0109,9.65272 0.138294,17.5504 0.28344,17.5504 0.145147,0 1.792244,-5.96165 3.660204,-13.24813 1.86797,-7.28647 3.58535,-13.89416 3.81642,-14.68376 l 0.42012,-1.43563 -3.45369,-3.359558 c -2.74183,-2.667111 -3.344079,-3.428896 -2.92187,-3.69589 0.2925,-0.184972 0.61295,-0.324315 0.71208,-0.309654 0.0992,0.01471 1.16536,1.188272 2.36938,2.608047 2.6424,3.115875 3.52407,3.674585 5.27914,3.345315 2.63206,-0.49376 4.60825,-3.86399 4.60825,-7.858961 v -1.737032 l 13.0679,-0.02752 13.06788,-0.02752 -2.34321,-0.70189 c -1.28877,-0.386035 -7.69653,-2.081292 -14.23949,-3.767257 -9.18993,-2.368017 -12.03981,-3.236294 -12.52714,-3.816676 -0.34698,-0.413204 -0.63087,-0.881588 -0.63087,-1.040837 0,-0.159262 4.98833,0.984008 11.08517,2.54059 6.09685,1.556569 14.08629,3.595243 17.7543,4.530377 6.67601,1.701988 7.76793,2.136406 7.28697,2.899104 -0.18795,0.298018 -36.08416,9.866002 -37.01429,9.866002 -0.18952,0 -0.88395,2.47325 -2.88468,10.27405 -6.633929,25.86576 -7.050308,27.22053 -7.928858,25.79898 z m 5.935506,-6.82949 c 10e-4,-0.32137 0.1697,-1.18811 0.37466,-1.92609 0.32529,-1.17131 0.56547,-1.39137 1.89057,-1.73222 4.93921,-1.27051 8.15491,-2.67972 12.1525,-5.32552 7.52878,-4.98293 13.51918,-13.28054 15.76239,-21.83331 l 0.60356,-2.301174 1.78457,-0.411936 c 0.9815,-0.226556 1.86788,-0.328593 1.96973,-0.22676 0.10178,0.101778 -0.14692,1.530313 -0.55278,3.17438 -3.85499,15.61539 -16.842,28.03056 -32.27488,30.85371 -1.46765,0.2685 -1.71205,0.22976 -1.71032,-0.27108 z M 39.825113,89.311264 C 28.545753,86.149694 18.97131,78.290604 13.719028,67.882314 12.361465,65.192064 10.614583,60.007784 10.252854,57.595679 l -0.2556583,-1.704876 1.0349653,0.256571 c 0.569223,0.1411 1.429938,0.360734 1.912697,0.488073 0.559931,0.147695 0.991747,0.615998 1.192592,1.293349 2.527619,8.524338 5.68546,13.967688 10.971954,18.912928 5.094587,4.76575 11.269972,7.9949 18.189771,9.51158 0.744767,0.16322 1.003041,0.48783 1.192742,1.49903 0.133115,0.70989 0.331086,1.5225 0.439813,1.80584 0.290034,0.75583 -1.640294,0.6247 -5.106617,-0.34691 z M 19.913611,55.554975 C 10.746718,53.209059 3.0817297,51.187825 2.8802987,51.063333 c -0.783775,-0.484394 -0.307924,-1.252773 0.985588,-1.591516 0.743527,-0.194701 5.164074,-1.335096 9.8234523,-2.5342 4.659379,-1.199105 10.577348,-2.738193 13.151047,-3.420189 2.573685,-0.681997 4.8448,-1.109616 5.046899,-0.950245 0.202113,0.159357 1.949131,0.666764 3.88228,1.12756 l 3.514801,0.837811 v 2.993238 2.993238 l -15.230841,0.0109 c -8.57786,0.0068 -14.9946523,0.145106 -14.6901073,0.318061 0.297405,0.168909 5.7318393,1.644409 12.0765283,3.278885 6.34469,1.634476 12.428829,3.204643 13.520324,3.489241 1.462706,0.381389 2.093637,0.748627 2.399422,1.396567 0.352668,0.74732 0.325377,0.87374 -0.182071,0.84332 -0.32832,-0.0198 -8.09713,-1.955194 -17.26401,-4.301097 z m 20.379055,3.370659 c -0.82484,-0.21712 -1.141798,-1.355175 -0.639037,-2.294588 0.330092,-0.616774 0.286805,-0.899819 -0.223858,-1.464109 -0.831394,-0.918676 -0.224526,-1.664111 0.875498,-1.07539 0.405806,0.217168 0.82104,0.260209 0.92275,0.09565 0.101642,-0.164576 0.209089,-2.704376 0.238614,-5.643999 0.04237,-4.21541 -0.05164,-5.403683 -0.444514,-5.623576 -0.273998,-0.153335 -2.195334,-0.709001 -4.269637,-1.234802 -2.074303,-0.525814 -3.97542,-1.125298 -4.224715,-1.332193 -1.4107,-1.170778 0.530501,-4.003037 3.807097,-5.554646 2.439029,-1.154987 7.360988,-1.572769 10.527821,-0.893606 5.561924,1.192823 11.764814,6.027854 14.079864,10.974965 2.16749,4.631842 2.23107,9.670566 0.15033,11.915713 -1.40631,1.517451 -2.03705,1.223275 -4.92167,-2.295368 -1.45604,-1.77608 -2.77111,-3.236075 -2.92239,-3.244441 -0.55476,-0.03066 -9.278029,4.269201 -9.278029,4.573337 0,0.172791 0.183759,0.497924 0.408353,0.722517 0.224607,0.224608 0.308115,0.669598 0.185599,0.988885 -0.179631,0.468113 -0.368201,0.502679 -0.973857,0.178542 -0.631421,-0.337926 -0.887979,-0.254255 -1.610346,0.525199 -0.472609,0.50994 -0.907572,0.90833 -0.966609,0.88533 -0.059,-0.023 -0.38361,-0.11458 -0.721264,-0.2034 z m 8.172245,-6.992102 3.879468,-1.82994 -1.03248,-1.086958 c -0.567861,-0.597808 -1.449736,-1.38706 -1.959718,-1.753885 L 48.424935,46.595808 46.3781,49.949943 c -1.896429,3.107688 -2.251754,3.813528 -1.919742,3.813528 0.0699,0 1.872831,-0.823478 4.006553,-1.829939 z M 45.22186,49.259485 c 1.148665,-1.898555 2.026534,-3.507879 1.950806,-3.576276 -0.341128,-0.308101 -4.005639,-2.049779 -4.097935,-1.947673 -0.21789,0.241039 -0.384959,9.250019 -0.169058,9.11659 0.125213,-0.07739 1.167522,-1.694099 2.316187,-3.592641 z M 10.248331,43.472602 C 12.085778,31.21963 21.133835,19.104229 32.584365,13.564516 c 3.155429,-1.526581 7.937241,-3.09518 10.755562,-3.528208 1.228739,-0.1887883 1.35184,-0.1325713 1.35184,0.617074 0,0.453615 -0.1676,1.30557 -0.372451,1.893214 -0.331454,0.950803 -0.65254,1.13568 -2.915862,1.67888 -6.038305,1.44919 -12.252331,5.028205 -17.036324,9.812198 -4.969291,4.969291 -8.323631,11.085191 -10.300843,18.781366 -0.339466,1.321348 -0.530787,1.520217 -1.66753,1.733475 -0.706236,0.132435 -1.538189,0.338403 -1.848783,0.457594 -0.485593,0.186335 -0.527858,-0.02902 -0.301643,-1.537507 z m 77.547788,1.156281 c -1.37484,-0.414744 -1.43492,-0.501589 -2.03903,-2.946368 -1.71162,-6.926843 -5.28793,-13.06307 -10.54524,-18.093484 -4.7413,-4.536658 -10.0337,-7.560906 -16.04887,-9.170858 -2.83343,-0.758351 -2.94572,-0.829255 -3.29292,-2.079153 -0.6265,-2.255352 -0.51778,-2.5669413 0.80812,-2.315901 5.66092,1.071834 12.04628,3.73216 16.37913,6.824015 8.15702,5.820728 14.00131,14.441302 16.35128,24.118817 1.08507,4.46848 1.08188,4.475728 -1.61247,3.662932 z m -29.26749,-7.172024 c -0.89845,-1.028779 -1.50248,-2.981098 -4.45595,-14.402416 -1.87912,-7.266772 -3.541899,-13.1348743 -3.695057,-13.040221 -0.153144,0.09469 -0.278453,5.208763 -0.278453,11.364679 0,10.514483 -0.03829,11.177459 -0.630862,10.942701 -0.610861,-0.241979 -4.520282,-1.098443 -6.088132,-1.33376 -0.750939,-0.112678 -0.687883,-0.4557 2.440242,-13.273712 1.766094,-7.236905 3.292183,-13.5230073 3.391291,-13.9691293 0.106684,-0.480021 0.449501,-0.811107 0.839951,-0.811107 0.534752,0 0.83927,0.699968 1.60754,3.695059 0.52129,2.032284 2.57343,10.0083163 4.56028,17.7245333 1.98686,7.716204 3.55308,14.08888 3.48047,14.161473 -0.0726,0.07262 -0.59969,-0.403544 -1.17132,-1.0581 z"
       id="path1-0"
       sodipodi:nodetypes="sssssssscssscsssssscccsssssssssssssssscsscssssscsssssssssssssssccccssssssssssssssssssssssssssssssscsscsssssssssssssssssssssssssssssssssssssssss" />
  </g>
</svg>
