<?xml version="1.0" encoding="UTF-8" standalone="no"?>
<!-- Created with Inkscape (http://www.inkscape.org/) -->

<svg
   width="100mm"
   height="100mm"
   viewBox="0 0 100 100"
   version="1.1"
   id="svg1"
   xml:space="preserve"
   inkscape:version="1.4.3 (fcd0343856, 2026-01-01)"
   sodipodi:docname="favicon-simu1.svg"
   xmlns:inkscape="http://www.inkscape.org/namespaces/inkscape"
   xmlns:sodipodi="http://sodipodi.sourceforge.net/DTD/sodipodi-0.dtd"
   xmlns="http://www.w3.org/2000/svg"
   xmlns:svg="http://www.w3.org/2000/svg"><sodipodi:namedview
     id="namedview1"
     pagecolor="#ffffff"
     bordercolor="#000000"
     borderopacity="0.25"
     inkscape:showpageshadow="2"
     inkscape:pageopacity="0.0"
     inkscape:pagecheckerboard="0"
     inkscape:deskcolor="#d1d1d1"
     inkscape:document-units="mm"
     inkscape:zoom="0.89575787"
     inkscape:cx="135.08115"
     inkscape:cy="251.74214"
     inkscape:window-width="1648"
     inkscape:window-height="961"
     inkscape:window-x="0"
     inkscape:window-y="0"
     inkscape:window-maximized="1"
     inkscape:current-layer="layer1" /><defs
     id="defs1" /><g
     inkscape:label="Layer 1"
     inkscape:groupmode="layer"
     id="layer1"><path
       style="fill:#000000;stroke-width:1.1112"
       d="m 54.312012,98.506213 c -2.451977,-0.818053 -6.173659,-2.980309 -6.173659,-3.58682 0,-0.110561 0.694537,-6.26e-4 1.543418,0.244404 1.036953,0.299287 2.893967,0.449878 5.659185,0.458912 4.512522,0.01481 7.877323,-0.608176 10.994962,-2.035489 0.873884,-0.400064 1.667955,-0.645388 1.764599,-0.545154 0.366504,0.380115 -3.674051,3.702363 -5.751686,4.729177 -2.696039,1.332453 -5.482267,1.587254 -8.036819,0.73497 z m -4.556745,-7.229016 c -3.628479,-0.614428 -6.39713,-1.781229 -8.25439,-3.478665 -0.87674,-0.801277 -1.594071,-1.570033 -1.594071,-1.708332 0,-0.13829 0.539204,-0.06127 1.198221,0.171314 8.025766,2.831651 25.41993,1.146948 33.39004,-3.233971 1.026151,-0.56404 1.865723,-0.956617 1.865723,-0.872382 0,0.08415 -0.274907,0.692004 -0.610912,1.35063 -1.305455,2.558909 -4.809379,5.10084 -8.796564,6.381518 -4.661364,1.49722 -12.718766,2.148393 -17.198047,1.389888 z m -1.469921,-8.701446 c -8.013078,-0.558472 -13.2949,-2.645932 -15.01826,-5.93547 -0.644147,-1.22956 -0.507102,-1.382385 0.702851,-0.783736 0.615307,0.304419 2.378321,0.873027 3.917808,1.263541 9.714577,2.464308 25.828745,1.151783 35.92698,-2.926298 2.340931,-0.94538 6.036383,-3.267381 7.617287,-4.786283 l 1.102438,-1.059201 v 0.783602 c 0,1.719768 -1.20268,4.061962 -3.045973,5.931944 -3.032575,3.076478 -7.537489,5.100626 -14.416204,6.477481 -6.049436,1.210866 -10.404563,1.479236 -16.786927,1.03442 z M 43.434609,72.846752 C 35.086888,72.074366 27.8178,69.447705 25.77415,66.465196 c -1.001232,-1.461212 -0.991619,-3.532233 0.02147,-4.616494 2.356941,-2.522606 7.744453,-4.086479 15.324476,-4.448309 5.483177,-0.261757 6.00548,0.06263 1.57959,0.980795 -5.885131,1.220987 -9.472927,2.902065 -9.977605,4.675043 -0.229877,0.807593 0.734511,2.024519 2.194777,2.769488 1.66735,0.850618 6.213661,1.95761 9.708718,2.363984 3.802277,0.442095 12.66821,0.207633 16.09857,-0.425721 9.978204,-1.842339 16.812614,-5.559741 16.812614,-9.144816 0,-2.306223 -2.972056,-4.889846 -7.456264,-6.481785 -1.243684,-0.441511 -2.20278,-0.861226 -2.131309,-0.932691 0.07153,-0.0715 1.166494,0.02012 2.433391,0.203631 5.730537,0.829858 10.107058,2.574452 11.996834,4.782223 0.583061,0.681174 1.135068,1.758838 1.341325,2.618622 0.301599,1.257207 0.277448,1.652369 -0.173107,2.832131 -1.779296,4.659015 -9.098017,8.360231 -20.416074,10.32483 -1.85944,0.322753 -4.108415,0.654437 -4.997722,0.73706 -3.575256,0.33218 -11.793196,0.412449 -14.699186,0.143565 z M 58.858555,60.838305 c -0.766182,-0.310571 -1.40066,-1.073362 -1.255368,-1.509244 0.106007,-0.318039 -3.265223,-3.796716 -3.679454,-3.796716 -0.105243,0 -0.541531,0.52917 -0.969546,1.175929 -0.903302,1.364987 -1.353578,1.470159 -1.828806,0.427146 -0.445249,-0.97722 -0.429321,-1.280278 0.122836,-2.338036 0.422693,-0.809722 0.419969,-0.906037 -0.03338,-1.175931 -1.454093,-0.865904 -3.127214,-2.332049 -3.513342,-3.078732 -0.507245,-0.980918 -0.418806,-0.948719 -4.85492,-1.768132 -4.13981,-0.764691 -13.240058,-2.972528 -16.53378,-4.011305 -4.225362,-1.332615 -9.76315,-4.402005 -10.093398,-5.594417 -0.426656,-1.540477 2.314409,-5.75194 6.119516,-9.402251 9.06886,-8.699893 24.513656,-15.8955 37.852703,-17.635249 4.73981,-0.618181 12.441752,-0.402602 16.22087,0.45404 3.854307,0.873681 6.906365,2.2517 8.486245,3.83157 2.381269,2.381273 2.621033,5.451799 0.561053,7.185168 -1.017271,0.855977 -2.746128,1.412087 -3.669489,1.180334 -0.659741,-0.165589 -4.00562,3.099994 -15.947367,15.564648 l -4.744909,4.952655 0.61249,0.828445 c 1.050756,1.421224 0.820083,2.19457 -1.30111,4.361978 -1.052481,1.075417 -1.974975,2.153745 -2.049971,2.396286 -0.136089,0.440059 1.960354,3.830156 2.357616,3.812435 0.115247,-0.0057 0.466329,-0.203579 0.780195,-0.440981 1.229943,-0.930269 2.516169,-0.183629 2.516169,1.460625 0,2.207154 -2.970775,4.00505 -5.154918,3.119735 z M 47.331315,48.403228 c 0.07891,-0.363796 0.231656,-0.86921 0.339446,-1.123117 C 47.819015,46.930867 47.025412,46.25812 44.411558,44.517284 39.767686,41.424425 33.232381,36.69805 28.639889,33.111149 l -3.77034,-2.944785 -1.620972,1.585104 c -0.891528,0.871802 -2.664329,2.967323 -3.939553,4.656712 -2.073664,2.747158 -2.273073,3.121909 -1.887806,3.547615 0.689577,0.761992 5.361691,3.099029 8.080381,4.041904 4.190538,1.453323 18.826921,4.95841 21.059064,5.043185 0.422391,0.01593 0.674044,-0.192169 0.770652,-0.637656 z m 2.078145,-2.84717 c 0.981139,-1.000455 1.141502,-0.564245 -2.438616,-6.633799 -1.239854,-2.101981 -3.022338,-5.210864 -3.961078,-6.908623 -1.57291,-2.844679 -2.9383,-5.281188 -4.991274,-8.906835 l -0.798539,-1.410267 -1.963888,1.08709 c -2.383709,1.31945 -6.067439,3.847859 -8.363522,5.74045 l -1.6959,1.397883 1.989884,1.575969 c 6.477351,5.130015 20.299228,14.891778 21.098819,14.901144 0.161692,0.0023 0.667537,-0.377465 1.124114,-0.843012 z m 15.64866,-4.937769 c 2.255037,-2.381843 6.729663,-7.009795 9.94361,-10.284325 4.872119,-4.963939 5.751807,-5.988025 5.291702,-6.160294 -1.07464,-0.402362 -4.870577,-2.752154 -6.617838,-4.096642 -0.974377,-0.749762 -1.869743,-1.248118 -1.989701,-1.107442 -0.730635,0.856783 -12.413379,25.164336 -12.271821,25.533202 0.09408,0.245381 0.480072,0.446135 0.85759,0.446135 0.502582,0 1.784353,-1.159703 4.786458,-4.330634 z m -10.271519,2.860713 h 1.806218 l 0.308324,-2.57235 0.308318,-2.572353 -0.147869,2.719343 c -0.136782,2.515539 -0.106552,2.719351 0.403375,2.719351 0.303176,0 0.706838,0.155598 0.897021,0.345777 0.265068,0.265065 0.647675,-0.301149 1.638904,-2.42536 0.711209,-1.524136 3.558654,-7.316128 6.327642,-12.871119 2.768997,-5.554981 5.034536,-10.210622 5.034536,-10.34589 0,-0.135257 -1.185638,-1.278226 -2.63476,-2.539905 l -2.634753,-2.29399 -1.99549,0.09313 c -4.625728,0.215848 -10.633808,1.506145 -16.700912,3.586683 -4.180277,1.433486 -9.548234,3.924649 -9.548234,4.431117 0,0.197606 1.275191,2.620077 2.833745,5.383253 3.941528,6.987939 9.545586,16.712246 9.876427,17.137829 0.210188,0.270383 0.530231,0.218052 1.348439,-0.220481 0.731169,-0.391891 1.648079,-0.575012 2.879069,-0.575012 z m 2.494466,-6.026653 c -0.01929,-0.968432 0.365367,-4.316764 1.722486,-14.993173 0.953328,-7.499845 1.107944,-8.456556 1.14029,-7.055612 0.01123,0.485074 -0.624389,5.842918 -1.412417,11.906335 -0.788025,6.063415 -1.440689,10.62752 -1.450359,10.14245 z M 12.419325,39.981826 C 6.1364172,37.072922 7.953497,27.47542 16.531298,18.263114 24.181973,10.046501 35.895773,4.1752003 49.902259,1.5366133 c 3.818375,-0.71932788 14.401703,-0.71457219 18.667968,0.00889 13.715076,2.324129 22.177019,8.18323 22.710813,15.7250703 0.168276,2.377508 -0.229817,3.972179 -1.392188,5.576785 -1.004836,1.387125 -2.612322,2.311179 -4.461085,2.564417 l -1.276403,0.174839 1.210061,-0.576036 c 1.875228,-0.892651 2.86079,-2.400298 2.987817,-4.57059 0.0946,-1.617426 0.0056,-1.967803 -0.870266,-3.419013 -1.643788,-2.723924 -5.045545,-4.640584 -10.53022,-5.933036 -3.606105,-0.84977 -12.485476,-1.070127 -16.919449,-0.419878 -14.498549,2.126217 -29.374871,9.124054 -38.96556,18.32944 -4.395267,4.218674 -6.684219,8.006437 -6.308733,10.439722 0.154373,1.00034 0.10853,1.101847 -0.494816,1.095992 -0.365719,-0.0034 -1.1941,-0.251455 -1.840873,-0.550896 z"
       id="path2"
       sodipodi:nodetypes="ssssssssssscssssssssssscsssssssssssssssscsssssssssssssssssssssssscssscsssssssscsssssssssscsscscsssssssssscccssssssscsssssssssssscsscssscsscssssccc" /></g></svg>
