<?xml version="1.0" encoding="UTF-8" standalone="no"?>
<!-- Created with Inkscape (http://www.inkscape.org/) -->

<svg
   width="100mm"
   height="100mm"
   viewBox="0 0 100 100"
   version="1.1"
   id="svg1"
   xml:space="preserve"
   inkscape:version="1.4.3 (fcd0343856, 2026-01-01)"
   sodipodi:docname="favicon-simu2.svg"
   xmlns:inkscape="http://www.inkscape.org/namespaces/inkscape"
   xmlns:sodipodi="http://sodipodi.sourceforge.net/DTD/sodipodi-0.dtd"
   xmlns="http://www.w3.org/2000/svg"
   xmlns:svg="http://www.w3.org/2000/svg"><sodipodi:namedview
     id="namedview1"
     pagecolor="#ffffff"
     bordercolor="#000000"
     borderopacity="0.25"
     inkscape:showpageshadow="2"
     inkscape:pageopacity="0.0"
     inkscape:pagecheckerboard="0"
     inkscape:deskcolor="#d1d1d1"
     inkscape:document-units="mm"
     inkscape:zoom="1.2667929"
     inkscape:cx="81.307685"
     inkscape:cy="137.74943"
     inkscape:window-width="1648"
     inkscape:window-height="961"
     inkscape:window-x="0"
     inkscape:window-y="0"
     inkscape:window-maximized="1"
     inkscape:current-layer="layer1" /><defs
     id="defs1" /><g
     inkscape:label="Layer 1"
     inkscape:groupmode="layer"
     id="layer1"><path
       style="fill:#000000;stroke-width:0.999399"
       d="m 49.029106,98.806558 c -0.502037,-0.20152 -9.855961,-10.62607 -14.19448,-15.81915 -12.372249,-14.80919 -18.867641,-26.03712 -21.463574,-37.1019 -0.916576,-3.90677 -1.156071,-10.67475 -0.512231,-14.47531 1.297649,-7.66001 5.084907,-14.71101 10.782448,-20.07443 5.268062,-4.9591303 11.403692,-8.1713603 18.539317,-9.7060303 3.634894,-0.78176003 11.31831,-0.84856003 14.725372,-0.12802 6.932288,1.46607 11.995864,3.83585 17.187583,8.04387 7.687245,6.2307203 12.259787,14.8401503 13.231238,24.9125003 0.39214,4.06584 0.165885,6.94633 -0.935229,11.90656 -2.874183,12.94743 -12.143459,27.16529 -31.20235,47.86031 -1.018034,1.10543 -2.411042,2.62868 -3.095573,3.385 -1.225108,1.35359 -1.958008,1.63996 -3.062521,1.1966 z m 3.920139,-24.94178 c 5.173868,-8.17229 5.883541,-9.03552 8.135699,-9.89612 4.086111,-1.5614 7.626764,-4.00338 10.979124,-7.57228 7.590194,-8.08048 9.592839,-19.6734 5.215103,-30.18919 -1.040534,-2.49948 -3.475228,-6.17623 -5.488368,-8.28825 -5.92488,-6.21592 -13.287744,-9.4049803 -21.759878,-9.4248103 -4.267057,-0.01 -7.436251,0.57284 -11.11232,2.0436203 -14.360406,5.74549 -21.726465,20.29497 -17.557782,34.68022 2.456906,8.47826 8.826935,15.3514 17.369478,18.74133 1.319759,0.52372 2.07253,1.03106 2.872757,1.93617 1.360617,1.53893 4.615833,6.44243 6.100848,9.19002 0.970746,1.79608 1.124041,2.29655 1.107625,3.61608 -0.01048,0.84231 0.06872,1.43728 0.176004,1.32212 0.107281,-0.11515 1.890051,-2.88666 3.96171,-6.15891 z m -4.161319,-8.75404 c -1.536428,-0.44433 -1.118965,-0.63303 1.400461,-0.63303 1.36773,0 2.486781,0.0358 2.486781,0.0796 0,0.0438 -0.412647,0.25201 -0.916993,0.46274 -1.026127,0.42875 -1.727263,0.45015 -2.970249,0.0906 z m -0.873902,-1.66385 c -1.456998,-0.4106 -2.173245,-0.78167 -2.664486,-1.38042 -0.342092,-0.41695 -0.317057,-0.43858 0.286172,-0.24719 0.363583,0.11536 2.039419,0.26694 3.724079,0.33684 2.900763,0.12036 4.625767,-0.10397 6.720684,-0.87401 1.002502,-0.36849 -0.701909,1.24393 -1.850971,1.75107 -1.415471,0.62472 -4.692651,0.84285 -6.215478,0.41371 z m -1.655254,-3.07436 c -1.740084,-0.4391 -4.020743,-1.84074 -3.603302,-2.2145 0.05709,-0.0511 0.996219,0.0661 2.086969,0.26032 1.09075,0.19429 2.756624,0.35795 3.701941,0.36369 2.547,0.0155 8.098396,-0.96317 9.748261,-1.7185 0.781808,-0.35793 1.469642,-0.65077 1.528519,-0.65077 0.05888,0 -0.07437,0.35082 -0.2961,0.7796 -1.076253,2.08125 -4.09481,3.22017 -8.865285,3.34496 -1.817917,0.0476 -3.753369,-0.0266 -4.301003,-0.1648 z m -1.251909,-4.25278 c -2.624835,-0.6009 -3.181508,-0.8059 -3.954342,-1.4562 -0.442913,-0.37269 -0.805297,-0.89861 -0.805297,-1.16871 0,-0.46894 0.06864,-0.4652 1.520441,0.0827 1.353553,0.51083 2.028359,0.57272 6.147866,0.56392 6.746194,-0.0144 10.590403,-0.9535 13.55175,-3.31055 0.697321,-0.55501 0.991591,-0.67294 0.991591,-0.39735 0,1.31626 -1.512118,3.26658 -3.212158,4.143 -2.189075,1.12853 -4.690362,1.60735 -8.951363,1.7135 -2.278948,0.0568 -4.626858,-0.0188 -5.288488,-0.1703 z m 0,-4.1834 c -4.140098,-0.60619 -5.970717,-1.9519 -5.034615,-3.70102 0.275025,-0.51389 2.26429,-1.43987 3.646387,-1.69736 1.183973,-0.22057 1.060327,0.11884 -0.274006,0.75216 -4.206831,1.99671 3.02713,3.64963 9.85939,2.25281 3.357946,-0.68651 5.563895,-1.62991 6.617727,-2.83016 0.432385,-0.49246 0.785711,-0.98049 0.785167,-1.0845 -0.0032,-0.60295 -1.189807,-1.96503 -2.129658,-2.44451 -0.601532,-0.30687 -1.032979,-0.61868 -0.958771,-0.69288 0.247099,-0.2471 3.397414,0.69568 4.175148,1.24948 0.95417,0.67942 1.294089,1.29817 1.294089,2.3556 0,2.45307 -2.646558,4.1616 -8.199204,5.29316 -2.991431,0.60961 -7.596133,0.86722 -9.781654,0.54722 z m 5.496715,-7.49275 -1.246107,-1.38425 -0.502475,0.63298 c -0.677579,0.85356 -1.207764,0.5062 -1.017444,-0.6666 0.0796,-0.49053 0.03356,-0.89188 -0.102308,-0.89188 -0.13587,0 -0.723426,-0.43038 -1.305679,-0.95641 -0.943633,-0.85252 -1.424889,-1.03662 -4.42987,-1.69464 -1.854177,-0.40603 -4.617285,-1.07315 -6.140245,-1.48248 -2.886922,-0.77596 -6.782714,-2.55708 -7.242279,-3.31111 -0.51123,-0.83882 1.167751,-3.61315 3.596405,-5.94268 4.39672,-4.21727 10.074969,-7.28448 16.698805,-9.02016 2.384325,-0.62478 3.172439,-0.70197 7.300306,-0.71502 6.008207,-0.019 8.189103,0.55271 10.007056,2.62325 1.188357,1.35345 1.153148,2.55192 -0.10997,3.7432 -1.030408,0.97179 -1.004185,1.09135 0.112691,0.51379 0.851943,-0.44056 1.361179,-1.41891 1.358728,-2.61041 -0.0061,-2.96755 -4.76774,-5.21117 -11.055262,-5.20909 -8.472807,0.003 -18.437804,4.19369 -24.706378,10.39055 -2.482068,2.45368 -4.032707,4.98654 -3.747784,6.12177 0.147094,0.58607 0.08404,0.67442 -0.481356,0.67442 -0.357842,0 -1.05494,-0.27209 -1.549106,-0.60463 -3.921904,-2.63918 0.378318,-11.24056 8.084055,-16.16987 6.912347,-4.42177 14.655365,-6.28862 22.066408,-5.32021 5.080403,0.66385 8.048146,1.80449 10.641852,4.09017 3.1328,2.76074 3.335428,7.3027 0.393875,8.82884 -0.863354,0.44793 -1.193325,0.48693 -2.190178,0.25882 l -1.173679,-0.26858 -1.774406,1.88238 c -0.975923,1.0353 -3.432637,3.57484 -5.459362,5.64339 -3.513707,3.58625 -3.664324,3.78383 -3.24098,4.25162 0.670242,0.7406 0.544174,1.14257 -0.721319,2.29991 l -1.156537,1.0577 0.496077,0.97365 c 0.62379,1.22432 0.873288,1.37599 1.56668,0.95238 0.478552,-0.29234 0.608543,-0.26822 0.936241,0.1738 0.554026,0.7473 0.476368,1.07783 -0.43303,1.84303 -1.258292,1.05878 -2.023673,0.90286 -3.473425,-0.70763 z m -4.876982,-5.27297 c 0.08391,-0.32087 0.127537,-0.60082 0.09694,-0.62209 -0.03059,-0.0213 -1.186032,-0.7903 -2.567649,-1.70894 -2.64251,-1.75701 -9.783702,-7.08778 -9.783702,-7.30335 0,-0.19875 0.479568,0.13273 3.374578,2.33244 3.026406,2.29955 8.911507,6.2988 9.269016,6.2988 0.127179,0 0.43486,-0.225 0.683735,-0.5 0.430018,-0.47517 0.414014,-0.55728 -0.322143,-1.65266 -0.426054,-0.63395 -2.117911,-3.43846 -3.759682,-6.23224 l -2.985038,-5.0796 -1.02885,0.61353 c -2.972056,1.77233 -6.106904,4.69546 -8.86255,8.26402 -0.971713,1.25838 -0.990492,1.22574 1.383327,2.40384 2.123602,1.05392 3.473145,1.47603 8.607733,2.69234 5.237317,1.24064 5.689103,1.2785 5.894279,0.49391 z m 4.372484,-2.79118 c 0.526532,0.0616 1.119719,0.16184 1.318192,0.22283 0.248316,0.0762 1.253653,-1.78588 3.223511,-5.97088 1.574458,-3.34497 3.092883,-6.51899 3.374278,-7.05338 l 0.511627,-0.97162 -0.826471,-0.75234 c -2.353971,-2.14281 -2.007377,-2.00768 -4.304432,-1.6782 -4.548918,0.65249 -7.814142,1.62668 -11.329802,3.3803 -1.018034,0.50779 -1.887311,0.95557 -1.931728,0.99505 -0.08506,0.0757 6.686733,11.66412 7.141456,12.22109 0.2062,0.25256 0.439921,0.23268 1.065102,-0.0906 0.469512,-0.24279 1.197075,-0.36785 1.758267,-0.30223 z m 0.642632,-1.78169 c 0.0015,-0.8726 0.05085,-1.1977 0.1097,-0.72243 0.05885,0.47526 0.05763,1.18921 -0.0027,1.58654 -0.06033,0.39734 -0.108486,0.009 -0.107,-0.86411 z m 0.122641,-1.91708 c -0.05008,-0.10907 -0.01548,-0.73377 0.07689,-1.38822 l 0.167949,-1.18992 0.03972,1.38824 c 0.03669,1.28244 -0.05878,1.68164 -0.284556,1.1899 z m 0.379201,-4.03247 c -0.0087,-0.50901 0.07955,-1.46094 0.195997,-2.11539 0.286005,-1.60735 0.30855,-0.0974 0.02566,1.71876 -0.168389,1.0811 -0.208797,1.1534 -0.22166,0.39663 z m 0.540602,-4.62742 c 0.0029,-0.58174 0.05709,-0.78859 0.120333,-0.45966 0.06325,0.32892 0.06084,0.80488 -0.0053,1.05769 -0.06618,0.25282 -0.117933,-0.0163 -0.114998,-0.59803 z m 0.269761,-2.24761 c 0,-0.65445 0.05157,-0.92218 0.114593,-0.59495 0.06302,0.32722 0.06302,0.86268 0,1.1899 -0.06302,0.32723 -0.114593,0.0595 -0.114593,-0.59495 z m 2.133383,13.94839 c 2.584842,-2.49748 9.164893,-9.41747 9.162808,-9.63618 -0.0011,-0.1175 -0.458957,-0.47449 -1.017416,-0.7933 -0.558458,-0.31881 -1.580656,-1.01116 -2.271553,-1.53853 -0.690897,-0.52737 -1.289876,-0.92096 -1.331065,-0.87466 -0.387439,0.43557 -6.483753,13.53986 -6.483753,13.93711 0,0.57145 0.520669,0.27786 1.940979,-1.09444 z"
       id="path2"
       sodipodi:nodetypes="sssssssssssssssssssssssssssssssssssssssssssssssssssssssssssssssssssssssssscsssssssssssssscssssssssscsssscsssssssssssssscsssssssssscsssssssssssssscssssssssssssssssssssssss" /></g></svg>
