<?xml version="1.0" encoding="UTF-8" standalone="no"?>
<!-- Created with Inkscape (http://www.inkscape.org/) -->

<svg
   width="100mm"
   height="100mm"
   viewBox="0 0 100 100"
   version="1.1"
   id="svg1"
   xml:space="preserve"
   inkscape:version="1.4.3 (fcd0343856, 2026-01-01)"
   sodipodi:docname="favicon-map1.svg"
   xmlns:inkscape="http://www.inkscape.org/namespaces/inkscape"
   xmlns:sodipodi="http://sodipodi.sourceforge.net/DTD/sodipodi-0.dtd"
   xmlns="http://www.w3.org/2000/svg"
   xmlns:svg="http://www.w3.org/2000/svg"><sodipodi:namedview
     id="namedview1"
     pagecolor="#ffffff"
     bordercolor="#000000"
     borderopacity="0.25"
     inkscape:showpageshadow="2"
     inkscape:pageopacity="0.0"
     inkscape:pagecheckerboard="0"
     inkscape:deskcolor="#d1d1d1"
     inkscape:document-units="mm"
     inkscape:zoom="1.2667929"
     inkscape:cx="147.61686"
     inkscape:cy="237.2132"
     inkscape:window-width="1648"
     inkscape:window-height="961"
     inkscape:window-x="0"
     inkscape:window-y="0"
     inkscape:window-maximized="1"
     inkscape:current-layer="layer1" /><defs
     id="defs1" /><g
     inkscape:label="Layer 1"
     inkscape:groupmode="layer"
     id="layer1"><path
       style="fill:#000000;stroke-width:0.478028"
       d="m 3.434032,86.971562 c -0.22671,-0.13822 -0.5296,-0.43682 -0.67309,-0.66353 l -0.26087,-0.41221 0.0664,-1.01183 c 0.0666,-1.01485 0.2692,-2.47945 2.02919,-14.67146 1.58881,-11.00611 4.73237,-32.82703 5.18636,-36.00089 0.56971,-3.98285 0.26409,-3.58699 3.99502,-5.17461 1.49434,-0.63588 3.62762,-1.54333 4.74062,-2.01655 3.16192,-1.34437 10.10562,-4.33783 11.56074,-4.98389 1.57122,-0.6976 1.47249,-0.75246 1.00714,0.55959 -0.43486,1.22613 -0.99473,3.44094 -0.99497,3.93613 l -1.6e-4,0.33415 -7.7122,3.30209 c -4.2417,1.81615 -7.75934,3.30209 -7.81695,3.30209 -0.0576,0 -0.31722,1.46557 -0.57688,3.25681 -0.25967,1.79125 -0.89682,6.18794 -1.41591,9.77044 -0.51909,3.58249 -1.0764,7.41003 -1.23848,8.50565 -0.16208,1.09561 -0.25198,1.99203 -0.19977,1.99203 0.12441,0 1.44227,-0.56732 4.92112,-2.11849 1.56516,-0.69789 4.35401,-1.93378 6.19743,-2.74643 1.84341,-0.81265 3.83545,-1.69546 4.42673,-1.96181 2.03868,-0.91832 5.37666,-2.38615 5.8943,-2.59192 l 0.51898,-0.2063 0.21577,-1.92249 c 0.11867,-1.05736 0.24823,-2.11301 0.2879,-2.34588 l 0.0721,-0.42339 0.97162,1.87789 c 0.53439,1.03284 1.35821,2.5487 1.83072,3.36857 l 0.85909,1.49068 -0.20933,1.73452 c -0.31411,2.60269 -1.66614,14.11806 -2.03019,17.29132 -0.17557,1.53038 -0.34604,2.90225 -0.37882,3.0486 l -0.0596,0.26608 0.66178,0.21577 c 1.05795,0.34495 10.25325,3.2578 15.08029,4.77708 2.43469,0.76632 6.45799,2.03885 8.94064,2.82786 2.48266,0.78901 4.61661,1.45208 4.74213,1.47349 l 0.22821,0.0389 0.0925,-1.01182 c 0.19251,-2.10492 0.74927,-8.74903 1.04926,-12.52134 0.17148,-2.15644 0.33164,-4.08203 0.35591,-4.27906 l 0.0441,-0.35825 -0.2642,-0.17083 c -0.14531,-0.094 -2.19932,-1.09416 -4.56446,-2.22267 -2.36513,-1.1285 -4.32003,-2.06747 -4.34421,-2.08659 -0.0242,-0.0191 0.31731,-0.50511 0.75887,-1.07996 0.44156,-0.57485 0.84035,-1.10025 0.88621,-1.16756 0.10727,-0.15743 0.69213,0.0969 4.62793,2.0127 1.75646,0.85497 3.19376,1.51616 3.19401,1.4693 2.4e-4,-0.0468 0.22592,-2.70329 0.50152,-5.90319 0.2756,-3.1999 0.67716,-7.92385 0.89235,-10.49768 l 0.39126,-4.67969 0.44052,-1.17852 c 1.20939,-3.23545 1.77787,-6.91271 1.4756,-9.54497 l -0.11308,-0.98468 0.19772,0.0807 c 0.10875,0.0444 0.42539,0.16586 0.70364,0.26995 l 0.50591,0.18924 2.656044,-1.13558 c 2.329982,-0.99617 5.20375,-2.21735 10.940357,-4.64901 0.869537,-0.36858 2.941772,-1.25023 4.604968,-1.95922 l 3.023998,-1.28907 0.506441,0.0679 c 0.554225,0.0743 1.007687,0.36071 1.397117,0.8823 l 0.252011,0.33755 0.09108,1.55181 c 0.0501,0.8535 0.12486,2.29171 0.166143,3.19603 0.17524,3.83882 0.673034,13.55697 0.767707,14.98766 0.069,1.04274 0.06639,0.9933 0.511035,9.67557 0.359707,7.02377 0.382728,7.45954 0.634864,12.01542 0.103947,1.8782 0.273255,5.037 0.376241,7.01954 0.102991,1.98254 0.244005,4.33795 0.313362,5.23423 l 0.126108,1.6296 -0.23952,0.54147 c -0.13174,0.29782 -0.372905,0.6272 -0.535927,0.73198 -0.317114,0.2038 -29.042359,9.76363 -30.086139,10.01274 -0.51486,0.12288 -0.39863,0.15718 -13.71874,-4.04866 -3.68683,-1.16413 -7.8701,-2.4832 -9.29613,-2.93128 -1.42605,-0.44808 -4.54187,-1.43826 -6.92406,-2.20041 l -4.33125,-1.38572 -5.34432,2.22914 c -5.44082,2.26939 -8.88642,3.7115 -13.18597,5.5188 -1.3217,0.55557 -3.56984,1.49656 -4.99589,2.09108 -1.42603,0.59453 -2.90583,1.21332 -3.28842,1.37509 -0.85887,0.36315 -1.57599,0.37934 -2.11967,0.0479 z m 8.27719,-7.509 c 2.21318,-0.92968 6.72743,-2.81126 10.03167,-4.18128 3.30424,-1.37002 6.55348,-2.7204 7.22052,-3.00085 l 1.2128,-0.5099 0.14587,-1.15844 c 0.0802,-0.63714 0.37574,-3.122 0.6567,-5.52192 0.39696,-3.39082 1.33234,-11.15222 1.68052,-13.94421 0.0239,-0.1913 -9.5e-4,-0.34782 -0.0548,-0.34782 -0.0905,0 -3.0499,1.30604 -16.944,7.47771 l -5.13377,2.28039 -0.39661,2.74126 c -0.21814,1.50769 -0.85532,5.90004 -1.41597,9.76079 -0.56064,3.86074 -1.05353,7.26142 -1.0953,7.55706 -0.0951,0.67321 -0.57937,0.80962 4.09232,-1.15279 z m 69.128568,-2.60183 11.857324,-3.95 -2.1e-4,-0.96966 c -1.19e-4,-0.53332 -0.05602,-1.88031 -0.12422,-2.99332 -0.13403,-2.18713 -0.43555,-8.00501 -0.635839,-12.26838 -0.216107,-4.60012 -0.279871,-5.68981 -0.336536,-5.75101 -0.07518,-0.0812 -21.416157,10.59601 -21.416867,10.71518 -9.6e-4,0.13873 -0.80648,10.21817 -1.32663,16.59747 -0.22949,2.8147 -0.22807,2.69979 -0.0324,2.62784 0.087,-0.032 5.49389,-1.83563 12.015419,-4.00812 z m 0.222254,-24.04554 10.408586,-5.1922 -0.08575,-1.90021 c -0.04713,-1.04511 -0.141114,-2.93457 -0.208788,-4.1988 -0.212756,-3.97439 -0.387346,-7.47658 -0.571721,-11.46825 -0.167649,-3.6296 -0.305211,-5.85502 -0.365667,-5.91547 -0.03542,-0.0354 -1.275368,0.44955 -2.755437,1.07771 -1.480068,0.62817 -4.19929,1.77992 -6.042707,2.55945 -1.843418,0.77953 -3.977739,1.69084 -4.742927,2.02514 -0.765193,0.33431 -1.988872,0.85098 -2.719284,1.14817 -0.730407,0.29719 -1.335767,0.54466 -1.345247,0.54993 -0.009,0.005 -0.10966,1.14787 -0.22263,2.53913 -0.11298,1.39126 -0.37438,4.60697 -0.58089,7.14601 -0.20652,2.53905 -0.57467,7.12072 -0.81813,10.18149 -0.24346,3.06078 -0.46532,5.80693 -0.49303,6.10257 -0.0659,0.70335 -1.20893,1.20796 10.543622,-4.65467 z m -31.877852,7.22118 -0.44712,-0.23645 -1.58467,-2.06618 c -6.57116,-8.56785 -11.72888,-18.01428 -13.35117,-24.45282 l -0.31868,-1.26478 -0.0681,-1.97817 -0.0681,-1.97817 0.21905,-1.31026 c 1.13512,-6.78986 6.32488,-12.20141 13.0978,-13.65755 l 1.32393,-0.28463 2.08689,-0.008 2.08689,-0.008 1.07506,0.22988 c 8.05518,1.72247 13.57361,8.45374 13.5462,16.5234 l -0.005,1.60035 -0.24537,1.25726 c -1.1753,6.0223 -6.68984,16.40398 -13.29679,25.03255 -2.25669,2.9472 -2.77086,3.27735 -4.05036,2.60072 z m 2.59725,-22.58158 c 0.48694,-0.10189 1.36913,-0.42263 1.96041,-0.71276 l 1.07507,-0.52752 1.02588,-1.02412 1.02589,-1.02412 0.513,-1.07506 c 1.94435,-4.0746 0.3219,-8.81572 -3.71319,-10.85067 -5.39809,-2.72235 -11.81376,1.34427 -11.73099,7.43576 l 0.0163,1.20154 0.32449,1.01183 c 1.29835,4.04854 5.36617,6.43069 9.50312,5.56512 z"
       id="path1" /></g></svg>
