<?xml version="1.0" encoding="UTF-8" standalone="no"?>
<!-- Created with Inkscape (http://www.inkscape.org/) -->

<svg
   width="100mm"
   height="100mm"
   viewBox="0 0 99.999998 99.999998"
   version="1.1"
   id="svg1"
   inkscape:version="1.4.3 (fcd0343856, 2026-01-01)"
   sodipodi:docname="favicon-up1.svg"
   xmlns:inkscape="http://www.inkscape.org/namespaces/inkscape"
   xmlns:sodipodi="http://sodipodi.sourceforge.net/DTD/sodipodi-0.dtd"
   xmlns="http://www.w3.org/2000/svg"
   xmlns:svg="http://www.w3.org/2000/svg">
  <sodipodi:namedview
     id="namedview1"
     pagecolor="#ffffff"
     bordercolor="#000000"
     borderopacity="0.25"
     inkscape:showpageshadow="2"
     inkscape:pageopacity="0.0"
     inkscape:pagecheckerboard="0"
     inkscape:deskcolor="#d1d1d1"
     inkscape:document-units="mm"
     inkscape:zoom="1"
     inkscape:cx="380"
     inkscape:cy="296.5"
     inkscape:window-width="1920"
     inkscape:window-height="1011"
     inkscape:window-x="0"
     inkscape:window-y="0"
     inkscape:window-maximized="1"
     inkscape:current-layer="layer1" />
  <defs
     id="defs1">
    <clipPath
       clipPathUnits="userSpaceOnUse"
       id="clipPath3">
      <rect
         style="fill:#cccccc;stroke-width:2;paint-order:markers stroke fill"
         id="rect4"
         width="120.17938"
         height="121.26615"
         x="154.77582"
         y="297.83905" />
    </clipPath>
  </defs>
  <g
     inkscape:label="Layer 1"
     inkscape:groupmode="layer"
     id="layer1"
     transform="translate(-3.96875,-70.37916)">
    <path
       style="fill:#000000"
       d="m 203.38541,410.09494 c -9.21575,-1.1228 -19.35522,-5.4672 -26.65676,-11.42146 -0.98227,-0.80102 -1.78551,-1.53219 -1.78498,-1.62482 5.2e-4,-0.0926 1.04232,-0.57585 2.3151,-1.07382 1.27278,-0.49797 3.93619,-1.71539 5.91867,-2.70537 l 3.60453,-1.79996 3.69907,-2.46945 c 11.83439,-7.90049 20.46662,-18.52066 24.8426,-30.56367 0.49173,-1.35329 0.89406,-2.56748 0.89406,-2.69822 v -0.23769 l -0.81124,0.2828 -0.81125,0.2828 -1.29426,-0.12436 -1.29427,-0.12436 -0.96527,-0.73625 -0.96527,-0.73624 -0.39442,-0.94398 -0.39442,-0.94398 0.0918,-2.00345 0.0918,-2.00345 0.8654,-1.75771 c 1.45791,-2.96113 4.31064,-5.64557 7.93199,-7.46406 l 1.38907,-0.69753 v -1.32963 -1.32962 l 4.29948,0.0229 c 2.36471,0.0126 4.38753,0.0176 4.49515,0.0112 0.10763,-0.006 -0.84487,-1.36257 -2.11666,-3.01361 -1.27179,-1.65104 -5.22938,-6.88734 -8.79464,-11.63623 -3.56526,-4.74888 -6.55883,-8.63678 -6.65238,-8.63978 -0.0936,-0.003 -2.66689,3.29855 -5.71853,7.33675 -3.05165,4.03821 -6.9918,9.24719 -8.7559,11.57552 -1.76409,2.32834 -3.20911,4.32263 -3.21115,4.43177 l -0.004,0.19844 h 4.49792 4.49792 l -0.005,1.12448 c -0.0146,3.38779 -1.43024,10.03886 -3.07203,14.43332 -3.33141,8.91694 -9.24765,16.97194 -16.79299,22.86377 -4.9179,3.84018 -11.9562,7.49028 -17.77122,9.21625 l -0.73172,0.21718 -1.72317,-3.48843 -1.72318,-3.48844 -1.07655,-3.3073 c -0.5921,-1.81901 -1.3595,-4.67071 -1.70533,-6.3371 l -0.62879,-3.02982 -0.27693,-3.71706 -0.27694,-3.71706 0.27371,-3.82163 0.2737,-3.82162 0.64701,-3.19549 c 0.7824,-3.86414 2.36473,-8.57486 4.12275,-12.27374 7.64762,-16.0899 22.84658,-27.36615 40.59919,-30.12065 l 2.91042,-0.45158 h 5.02708 5.02709 l 2.91041,0.45055 c 12.70535,1.96687 24.83746,8.71089 32.85023,18.26085 6.32012,7.5326 10.26831,16.03443 12.16977,26.20573 l 0.40247,2.15299 0.14265,4.76474 0.14264,4.76474 -0.44456,3.49275 c -2.82218,22.17288 -18.56207,39.97878 -40.30892,45.59985 -1.64077,0.4241 -4.35554,0.95099 -6.03282,1.17086 l -3.0496,0.39977 -3.88905,-0.0284 c -2.13898,-0.0156 -5.19874,-0.18794 -6.79947,-0.38297 z m 10.08001,-7.46001 c 1.50754,-1.84138 2.41509,-3.73636 2.81227,-5.87208 l 0.29703,-1.59717 -0.31486,-1.70879 -0.31485,-1.70878 -1.31997,-2.7256 -1.31997,-2.7256 -0.28397,-1.55966 -0.28396,-1.55965 0.29846,-1.71388 c 0.16415,-0.94263 0.52773,-2.31728 0.80796,-3.05478 0.28023,-0.7375 0.44109,-1.40753 0.35748,-1.48897 -0.0836,-0.0814 -0.69482,0.44726 -1.35823,1.17486 l -1.2062,1.32292 -0.75838,1.61364 -0.75838,1.61364 -0.1582,1.69411 -0.15819,1.69411 0.4213,1.6445 c 0.23171,0.90448 0.83158,2.45919 1.33302,3.45493 0.50144,0.99573 1.11617,2.51373 1.36606,3.37333 l 0.45435,1.5629 -0.14713,2.25775 -0.14713,2.25775 -0.64923,1.78594 c -0.35707,0.98226 -0.55148,1.78594 -0.43202,1.78594 0.11947,0 0.7777,-0.68461 1.46274,-1.52136 z m -6.49906,-3.29822 0.84565,-1.5866 0.0123,-1.90383 0.0123,-1.90382 -1.07458,-2.24083 c -0.59101,-1.23246 -1.21881,-2.77411 -1.3951,-3.4259 l -0.32054,-1.18507 0.15182,-1.46531 c 0.0835,-0.80593 0.33646,-1.90725 0.56215,-2.4474 0.22569,-0.54014 0.3096,-0.98208 0.18649,-0.98208 -0.37729,0 -1.9051,2.06112 -2.46345,3.32336 l -0.52787,1.19335 v 1.75377 1.75378 l 1.05374,2.13943 c 1.9203,3.89885 2.05219,5.75833 0.67721,9.54777 l -0.19201,0.52917 0.81316,-0.75659 c 0.44723,-0.41613 1.19369,-1.47057 1.6588,-2.3432 z m 16.48242,-0.47209 0.54076,-1.19062 0.0167,-1.85209 0.0167,-1.85208 -1.24771,-2.64583 -1.2477,-2.64584 -0.15713,-1.45521 -0.15712,-1.4552 0.37545,-1.32292 c 0.20649,-0.7276 0.46926,-1.56104 0.58392,-1.85208 l 0.20849,-0.52917 -1.08098,1.02992 -1.08098,1.02992 -0.56548,1.3145 -0.56548,1.31449 -0.01,1.70326 -0.01,1.70326 1.24677,2.56691 1.24678,2.56691 0.13707,1.45951 0.13707,1.45952 -0.40816,1.58319 c -0.2245,0.87076 -0.48603,1.82132 -0.58119,2.11236 l -0.17301,0.52917 1.11708,-1.19063 c 0.61439,-0.65484 1.36042,-1.72641 1.65783,-2.38125 z m 7.30095,-17.39635 0.56774,-0.46302 0.47427,-1.5875 0.47427,-1.5875 1.07092,0.0803 1.07092,0.0803 0.42293,-0.42294 c 0.47831,-0.4783 1.04095,-2.32856 0.91188,-2.99874 l -0.0853,-0.44309 h -0.39325 -0.39325 l -0.39688,0.85417 -0.39687,0.85417 -0.39688,0.006 c -0.21828,0.003 -1.02323,-0.23247 -1.78877,-0.52344 l -1.3919,-0.52904 h -1.29844 c -0.71414,0 -1.48677,-0.0723 -1.71696,-0.1606 l -0.41851,-0.16059 v -1.17063 -1.17062 l -0.43514,-0.16697 -0.43513,-0.16698 -0.35862,0.49043 -0.35861,0.49044 v 1.40852 1.40853 l 0.8599,0.52429 c 0.47294,0.28835 1.08116,0.52473 1.35159,0.52527 l 0.49171,9.9e-4 -0.14478,0.59532 c -0.0796,0.32743 -0.22513,1.32322 -0.32335,2.21288 l -0.17859,1.61757 0.61813,0.43295 c 0.33997,0.23813 0.93564,0.43296 1.3237,0.43296 h 0.70557 z m 1.13339,-7.27605 c 0.23141,-0.1819 0.49437,-0.57991 0.58438,-0.88446 l 0.16364,-0.55374 -0.55301,-0.70303 -0.553,-0.70304 h -0.49076 -0.49076 l -0.54837,0.69714 c -0.68551,0.87149 -0.68952,1.27838 -0.0192,1.9487 0.60527,0.60527 1.29786,0.67734 1.90708,0.19843 z m 6.16271,-4.35476 c 1.45521,-1.17492 4.90686,-3.99025 7.67033,-6.25628 l 5.0245,-4.12006 0.80361,0.77888 0.8036,0.77888 0.82108,0.16422 0.82109,0.16422 0.6732,-0.4411 0.6732,-0.4411 0.28438,-0.81577 c 0.15641,-0.44868 0.28438,-1.61891 0.28438,-2.60051 v -1.78473 l -0.51956,-1.68151 c -0.63909,-2.06841 -2.06063,-4.483 -3.53148,-5.99851 l -1.10833,-1.14198 -2.38125,-1.17156 c -1.30969,-0.64436 -3.09088,-1.35086 -3.9582,-1.57 l -1.57694,-0.39843 h -2.31264 c -1.27195,0 -2.94357,0.1275 -3.71472,0.28333 -1.70872,0.34529 -5.54757,1.55402 -5.86832,1.84774 l -0.2329,0.21327 1.02665,0.16412 c 4.37893,0.70001 9.08407,2.94165 12.61564,6.01039 l 1.00567,0.87386 -3.74933,6.35 c -2.06212,3.4925 -4.52178,7.6587 -5.4659,9.25822 -1.8284,3.09766 -3.25486,5.80771 -3.23513,6.14621 0.007,0.11329 0.57215,-0.39737 1.25677,-1.1348 0.68462,-0.73743 2.43539,-2.30208 3.8906,-3.477 z m 1.82588,-5.5685 c 1.63333,-2.72775 3.7206,-6.24506 4.63839,-7.81624 l 1.66869,-2.85669 0.50861,0.46029 c 0.27974,0.25315 1.18447,1.34267 2.01052,2.42115 l 1.5019,1.96087 -0.46407,0.33934 c -0.25523,0.18663 -3.03623,2.46622 -6.17999,5.06574 -3.14375,2.59953 -5.92693,4.87461 -6.18483,5.05574 l -0.46891,0.32934 z m -11.09648,8.73264 c -0.0711,-0.40018 -0.96563,-5.78776 -1.98786,-11.9724 -1.02225,-6.18463 -1.94417,-11.45769 -2.04871,-11.71791 l -0.19009,-0.47312 -0.47668,0.34855 -0.47667,0.34855 1.47061,8.4223 c 0.80884,4.63227 1.47023,8.55786 1.46975,8.72353 -4.8e-4,0.16568 -1.69712,-2.66604 -3.77031,-6.2927 -2.07319,-3.62666 -3.8885,-6.63106 -4.03403,-6.67643 -0.14552,-0.0454 -0.4154,0.0131 -0.59973,0.12999 l -0.33515,0.21248 4.53996,7.91915 c 3.61048,6.29789 6.04178,10.99447 6.05132,11.68947 4.9e-4,0.0364 0.11698,0.0661 0.25887,0.0661 h 0.25797 z m -12.34029,-20.76979 c 0.86573,-0.61846 2.62475,-1.92214 3.90892,-2.89706 4.8055,-3.64826 10.54079,-6.45265 15.15705,-7.41134 l 2.54492,-0.52853 3.13819,0.13628 3.13818,0.13628 -0.22776,-0.20157 c -0.40939,-0.36231 -3.62644,-1.52644 -5.50588,-1.99237 -1.01119,-0.25068 -2.91003,-0.5563 -4.21964,-0.67915 l -2.38111,-0.22336 -2.52724,0.22499 c -4.73072,0.42114 -8.85557,1.73444 -11.99726,3.81978 -1.88898,1.25383 -4.17476,3.71562 -4.96427,5.34653 l -0.61201,1.26424 -0.10962,1.33727 -0.10964,1.33728 0.57438,0.7276 0.57438,0.72761 h 1.02216 1.02217 z"
       id="path2"
       sodipodi:nodetypes="ssssscssscccccccccccsscccscssssscccccssscccsscccccscscccssscccssscssssscccccccsssscccccssscccsssccccsscsssscccsscsccccccccccsscccccccccccsscsccccccccssccccccscsscccccccccsscsscssccsscccccssssscccccccsscsscsscssscsscsscsssscsscssscsssscccssssscssscsssscccssscssscccccccs"
       clip-path="url(#clipPath3)"
       transform="matrix(0.93024017,0,0,0.93228941,-141.53079,-212.33155)" />
  </g>
</svg>
