<?xml version="1.0" encoding="UTF-8" standalone="no"?>
<!-- Created with Inkscape (http://www.inkscape.org/) -->

<svg
   width="100mm"
   height="100mm"
   viewBox="0 0 100 100"
   version="1.1"
   id="svg1"
   xml:space="preserve"
   inkscape:version="1.4.3 (fcd0343856, 2026-01-01)"
   sodipodi:docname="favicon-simu5.svg"
   xmlns:inkscape="http://www.inkscape.org/namespaces/inkscape"
   xmlns:sodipodi="http://sodipodi.sourceforge.net/DTD/sodipodi-0.dtd"
   xmlns="http://www.w3.org/2000/svg"
   xmlns:svg="http://www.w3.org/2000/svg"><sodipodi:namedview
     id="namedview1"
     pagecolor="#ffffff"
     bordercolor="#000000"
     borderopacity="0.25"
     inkscape:showpageshadow="2"
     inkscape:pageopacity="0.0"
     inkscape:pagecheckerboard="0"
     inkscape:deskcolor="#d1d1d1"
     inkscape:document-units="mm"
     inkscape:zoom="0.31669823"
     inkscape:cx="-22.10306"
     inkscape:cy="503.63401"
     inkscape:window-width="1648"
     inkscape:window-height="961"
     inkscape:window-x="0"
     inkscape:window-y="0"
     inkscape:window-maximized="1"
     inkscape:current-layer="layer1" /><defs
     id="defs1" /><g
     inkscape:label="Layer 1"
     inkscape:groupmode="layer"
     id="layer1"><path
       id="path4"
       style="fill:#000000;stroke-width:1.02819"
       d="m 50.000049,1.2500529 c -26.879464,0 -48.7499961,21.8705321 -48.7499961,48.7499961 0,26.879464 21.8705321,48.749996 48.7499961,48.749996 26.879464,0 48.749996,-21.870532 48.749996,-48.749996 0,-26.879464 -21.870532,-48.7499961 -48.749996,-48.7499961 z m -0.234094,7.5008341 1.27434,12.489677 c -3e-5,2.84e-4 3.1e-5,7.5e-4 0,0.001 -0.07546,0.707785 -0.482451,0.580211 -1.5906,0.528134 -0.89283,-0.04197 -1.653606,-0.106137 -1.690336,-0.142627 -0.03676,-0.03653 -0.304454,-2.076636 -0.595313,-4.533574 -0.210493,-1.778126 -0.401057,-3.116931 -0.497127,-3.543453 -1.12e-4,-4.96e-4 -4.05e-4,-0.0036 -5.17e-4,-0.0041 l -0.230477,-2.139921 c 0.0095,-0.162609 -0.0012,-0.585185 -0.03307,-1.259355 -0.02402,-0.5081967 -0.04271,-0.9147065 -0.03876,-1.2397171 1.121445,-0.097382 2.256138,-0.1497566 3.40186,-0.1560629 z m 1.207161,0.010335 c 5.835153,0.1342327 11.36593,1.473217 16.354557,3.778064 l 0.0016,0.113688 v 5.17e-4 c -0.03984,0.06796 -0.08098,0.152057 -0.116272,0.243396 -0.0087,0.02241 -0.01571,0.04418 -0.0217,0.06563 -1.320875,0.206795 -2.643417,0.368452 -3.973434,0.480075 -0.825566,0.07533 -3.455333,0.319065 -5.843571,0.541569 -6.507053,0.606223 -5.792295,0.864036 -6.021338,-2.171443 -0.07016,-0.929786 -0.182762,-1.748833 -0.293006,-2.2019334 -1.14e-4,-4.685e-4 -4.02e-4,-5.659e-4 -5.16e-4,-0.00103 z m -5.799646,0.2661337 0.82889,7.6858363 c 1.59e-4,0.0023 -1.6e-4,0.0023 0,0.0047 0.05036,0.7318 0.114791,1.605622 0.192753,2.619995 l 0.182418,2.372465 H 42.36899 38.360449 L 37.32227,20.625614 C 36.302515,19.560512 36.248863,19.540926 34.36121,19.540926 H 32.438847 C 31.771834,15.71151 31.431094,13.817794 31.22135,13.244153 35.491946,11.063421 40.196031,9.6043062 45.17347,9.0273557 Z M 30.873051,13.423987 c -0.03122,0.0317 -0.06248,0.04817 -0.09353,0.04909 0.03124,-0.01643 0.06224,-0.03274 0.09353,-0.04909 z m 38.691695,0.232544 c 0.812374,0.437136 1.608123,0.900661 2.386418,1.389579 v 1.545125 2.949691 H 70.177112 68.40306 V 15.6993 c 0,-0.692943 -0.0082,-1.336405 -0.02222,-1.885156 z m -39.445137,0.171566 c 0.13814,0.626479 0.312954,1.506971 0.485241,2.460831 l 0.587045,3.251998 h -2.280998 c -4.14388,0 -5.044559,0.815858 -5.216736,4.72736 l -0.109037,2.479952 -2.904216,0.599447 c -1.597093,0.32985 -2.965855,0.59962 -3.041675,0.599446 -0.09624,-2.18e-4 -0.638347,-1.253673 -1.00924,-2.238106 3.557295,-4.88461 8.163026,-8.953779 13.489616,-11.880928 z m 37.224084,0.124023 0.01602,1.408699 c -2e-5,9.49e-4 1.9e-5,6.01e-4 0,0.0016 -0.0063,0.310664 -0.01137,0.68505 -0.01602,1.128096 l -0.03204,3.05046 -1.569414,0.001 c -1.745989,0.0011 -3.171296,0.660992 -3.473689,1.607653 -0.09857,0.308584 -0.32427,0.566475 -0.501779,0.572575 -1.063718,0.03954 -9.3184,-0.04643 -9.36997,-0.09767 -0.139262,-0.13837 -0.635443,-5.704969 -0.518832,-5.820833 0.124738,-0.12394 3.745968,-0.512617 10.736296,-1.152385 1.99462,-0.182553 4.729428,-0.699195 4.729428,-0.699195 z m 5.735567,1.828829 c 7.234817,4.881637 12.829052,11.999774 15.800586,20.372917 -0.103991,0.0098 -0.216719,0.01986 -0.337447,0.03204 -0.794477,0.08012 -3.102486,0.213503 -5.128886,0.296623 -2.02641,0.08314 -4.943209,0.227964 -6.481775,0.321944 l -2.797245,0.171049 v -1.485698 c 0,-1.32012 0.07838,-1.527451 0.705383,-1.860868 1.310213,-0.696711 1.477946,-1.448683 1.477946,-6.635254 0,-3.006464 -0.113718,-4.996398 -0.306958,-5.369181 -0.53222,-1.026776 -1.371286,-1.778223 -2.183329,-1.955436 L 73.04257,19.497518 v -2.418974 c 0,-0.476666 0.0136,-0.921968 0.03669,-1.297595 z m -4.17959,5.929354 c 3.198177,0 4.678502,0.09781 4.907194,0.325044 0.22951,0.228007 0.327629,1.729578 0.327629,5.016749 v 4.691186 H 71.541886 68.94928 v -2.429826 -2.430342 l -2.388485,-0.07803 -2.387968,-0.07855 -0.08217,-1.892391 c -0.145398,-3.350835 -0.494136,-3.12384 4.809008,-3.12384 z m -37.748083,0.06098 4.63796,0.07441 0.07855,2.508374 0.07855,2.508374 h -2.466516 -2.466516 v 2.440161 2.440678 h -2.410706 c -1.325923,0 -2.492556,-0.08145 -2.592606,-0.180867 -0.351326,-0.349077 -0.205076,-8.903431 0.160713,-9.40046 0.304362,-0.41354 0.859202,-0.456984 4.980575,-0.390674 z m 6.958232,2.108398 h 12.008052 12.008053 v 1.491382 1.491382 H 50.117871 38.109819 v -1.491382 z m -22.405351,3.15433 c 0.582309,1.298652 1.615798,3.748028 2.752803,6.539652 1.685677,4.138711 3.62109,8.847408 4.300513,10.463444 l 1.235067,2.938322 0.917773,-0.171049 0.917774,-0.171049 v 1.647962 c 0,1.365206 -0.08834,1.681545 -0.514698,1.842781 -0.283073,0.10706 -1.050768,0.824914 -1.705839,1.595252 -0.65507,0.770338 -3.572646,4.125811 -6.483325,7.456909 -2.413124,2.76166 -4.606423,5.259799 -5.43171,6.187736 -0.451216,-1.127648 -0.853985,-2.280447 -1.206128,-3.455086 0.868547,-1.123132 2.40613,-2.962356 4.146517,-4.941818 2.685659,-3.054582 4.842816,-5.593559 4.793506,-5.642549 -0.04934,-0.04902 -2.637725,0.348449 -5.751587,0.883667 -1.99509,0.342914 -3.7792253,0.624793 -4.8203773,0.766361 -0.069593,-0.982284 -0.1049032,-1.97412 -0.1049032,-2.974495 0,-0.09664 3.742e-4,-0.193427 0.00103,-0.289905 l 0.053227,-0.01085 c 0.732287,-0.149685 3.6649395,-0.671087 6.5169155,-1.158586 2.851966,-0.48749 5.213598,-0.904842 5.248258,-0.927592 0.03466,-0.02273 -0.289795,-0.887435 -0.721403,-1.921846 -3.703747,-8.876499 -5.533293,-13.329027 -6.22856,-15.18667 0.639318,-1.193357 1.335458,-2.351524 2.085144,-3.470589 z m 7.804175,1.005623 0.136425,2.055172 c 0.144151,2.170984 0.690237,3.383782 1.661914,3.690214 0.491399,0.154964 0.521416,0.490953 0.521416,5.84047 0,5.437965 -0.0222,5.67614 -0.529684,5.67614 -0.291345,0 -0.58614,-0.09123 -0.65474,-0.203089 -0.498706,-0.812768 -6.456613,-15.391262 -6.381523,-15.615067 0.05241,-0.156214 1.254181,-0.545145 2.670638,-0.86403 z m 9.688297,0.992188 h 7.037813 7.037814 l 0.05891,0.881083 c 0.136394,2.049085 0.907032,9.887885 1.036629,10.543026 l 0.141077,0.713134 -3.903638,0.73794 c -2.14693,0.405939 -5.499876,1.029408 -7.451225,1.385445 -1.951348,0.356037 -3.640165,0.648606 -3.752742,0.650606 -0.11258,0.0017 -0.204639,-3.352899 -0.204639,-7.454325 z m 17.057357,0 h 1.774052 l 0.0031,1.016992 c 0.0042,1.366261 1.037101,11.224561 1.192176,11.378633 0.116022,0.11528 12.048659,-1.942643 13.064319,-2.253092 0.420772,-0.128614 0.478007,0.06274 0.478007,1.607137 v 1.752865 l -1.842265,0.304374 c -1.013205,0.167334 -4.421515,0.785293 -7.573698,1.373559 -3.152074,0.588247 -9.724199,1.806547 -14.604277,2.706812 -4.879784,0.900207 -9.024425,1.636593 -9.21029,1.636593 -0.230198,0 -0.337964,-0.506061 -0.337964,-1.588017 v -1.588534 l 2.934188,-0.564306 c 1.613607,-0.310275 5.297605,-1.0129 8.187097,-1.561145 l 5.253943,-0.996839 -0.0031,-0.985469 c -0.0014,-0.542269 -0.247447,-3.35802 -0.54622,-6.256983 -0.298762,-2.898964 -0.543119,-5.431292 -0.543119,-5.627046 0,-0.257324 0.491761,-0.355534 1.774052,-0.355534 z m 9.695532,0 h 6.829557 l -0.07493,4.394563 -0.07493,4.394564 -1.091923,0.225826 c -0.600423,0.124268 -3.118299,0.594668 -5.595008,1.045414 -2.476708,0.450747 -4.779268,0.88632 -5.117,0.9679 -0.337731,0.0815 -0.615533,0.04379 -0.617533,-0.08423 -0.0019,-0.128029 -0.247416,-2.550731 -0.545703,-5.38365 -0.298287,-2.83292 -0.542603,-5.24309 -0.542603,-5.355746 0,-0.112684 3.073768,-0.204638 6.830074,-0.204638 z m -47.135107,3.055627 c 0.146473,0.314767 0.305517,0.684498 0.464571,1.083655 0.489393,1.228126 1.916261,4.724781 3.170866,7.770068 1.254606,3.045277 2.229299,5.588205 2.165759,5.651335 -0.06356,0.06315 -2.181749,0.465047 -4.707206,0.892969 -2.206118,0.373813 -4.3341124,0.739061 -5.1273359,0.879533 0.2254803,-5.819524 1.6498659,-11.325257 4.0333459,-16.27756 z m 15.197005,1.825212 h 1.5012 1.500684 v 10.966255 5.17e-4 c 0,6.03149 -0.09206,11.003752 -0.204639,11.049972 -0.112576,0.0461 -0.787684,0.04664 -1.500683,10e-4 l -1.296562,-0.08268 v -10.96726 z m 40.861072,0 h 1.538924 1.539441 v 10.982275 10.982275 l -1.432988,-5.16e-4 -1.43247,-5.17e-4 -0.106454,-10.981759 z m 20.441129,3.532601 c 0.339125,1.066898 0.635889,2.152682 0.888835,3.255615 -1.38654,0.106145 -4.004077,0.26086 -6.961849,0.406693 -4.332973,0.213639 -8.154762,0.390158 -8.492505,0.393258 -0.568157,0.0044 -0.613916,-0.11543 -0.613916,-1.600936 v -1.60507 l 1.705839,-0.155546 c 1.6251,-0.148069 11.069764,-0.629618 13.473596,-0.694014 z m 1.173055,4.596101 c 0.500721,2.574274 0.763261,5.235263 0.763261,7.958688 0,3.442647 -0.419167,6.784968 -1.209228,9.979236 -2.041878,0.321593 -5.535664,0.519701 -5.544882,0.311092 -0.0051,-0.115342 -0.411125,-4.152595 -0.90227,-8.971546 -0.491137,-4.818943 -0.824997,-8.801102 -0.741557,-8.849072 0.08345,-0.04802 2.068858,-0.174367 4.411617,-0.28112 z m -10.5854,0.548804 c 1.146691,0 1.335242,0.07956 1.447973,0.610299 0.07128,0.33558 0.388083,3.47766 0.703833,6.982519 0.950934,10.55558 0.936976,10.277581 0.512114,10.410734 -0.209032,0.06551 -1.700393,0.189239 -3.31401,0.274919 l -2.933671,0.156063 v -1.787488 c 0,-1.680882 -0.05657,-1.843608 -0.95498,-2.736267 L 74.407345,55.552167 V 49.246608 42.94105 l 2.088244,-0.1757 c 1.148422,-0.09646 2.680989,-0.175183 3.405994,-0.175183 z m -13.135632,1.159619 v 8.504391 8.50439 H 59.134375 51.503316 L 51.20566,59.606181 c -0.163853,-0.633854 -0.58998,-2.189963 -0.946712,-3.45767 -1.577546,-5.606016 -2.3852,-8.706221 -2.2903,-8.790161 0.05634,-0.04982 2.865693,-0.600703 6.24303,-1.224215 3.377336,-0.623513 7.583512,-1.415123 9.347233,-1.759066 z m -20.407024,3.975468 c 0.202946,0.17087 1.843816,6.131328 1.846916,6.709151 9.59e-4,0.175841 -0.686185,0.518316 -1.527038,0.761194 -0.840841,0.242879 -1.938078,0.708377 -2.438095,1.034046 -1.093785,0.712401 -2.241294,2.39533 -2.474267,3.629236 l -0.169499,0.899686 h -4.205945 -4.205428 l 0.0739,-5.355745 0.0739,-5.355746 1.774052,-0.351916 c 7.319498,-1.453746 11.081921,-2.112693 11.251509,-1.969906 z m -20.736202,3.977019 c 0.184149,-0.0056 0.205673,0.456515 0.205673,1.954402 0,1.93654 -0.06134,2.203244 -0.538986,2.353862 -0.296306,0.09345 -0.787301,0.517199 -1.091406,0.941544 -0.50837,0.709358 -0.552843,1.183357 -0.551904,5.881812 0.0012,5.861461 0.170223,6.43057 2.17196,7.308081 l 1.124996,0.492993 -0.07958,1.611271 -0.0801,1.611788 -4.366658,1.719792 c -1.472934,0.580095 -2.810675,1.095479 -3.646806,1.407666 -2.624383,-3.036245 -4.81194,-6.46081 -6.466789,-10.177674 0.34392,-0.410209 0.794207,-0.936806 1.285193,-1.5012 1.073258,-1.233721 4.063814,-4.684513 6.646106,-7.668266 2.582303,-2.983753 4.897253,-5.591723 5.144389,-5.795512 0.102712,-0.0847 0.182529,-0.138687 0.243912,-0.140559 z m -9.678479,1.585432 c 0.05779,0.05743 -1.275697,1.670439 -2.963643,3.584278 -1.217486,1.38042 -2.353203,2.665366 -2.960543,3.349666 -0.4790472,-1.887483 -0.8285605,-3.82763 -1.0381793,-5.809981 0.7107933,-0.119505 1.8922803,-0.327378 3.1868853,-0.56224 2.018807,-0.366245 3.71772,-0.619113 3.77548,-0.561723 z m 32.604212,2.92437 c 0.05565,-8e-4 0.09256,0.0058 0.10697,0.02015 0.137261,0.136382 1.175641,3.924943 1.184941,4.322733 0.0026,0.111849 -1.513305,0.203605 -3.368787,0.203605 h -3.373954 l 0.137459,-0.713134 c 0.223679,-1.162605 2.187676,-2.947521 3.830257,-3.480925 0.648187,-0.210511 1.241972,-0.348967 1.483114,-0.352433 z M 28.57655,58.046586 h 2.416907 l 0.07803,2.508374 0.07855,2.508374 2.39882,0.07855 2.398303,0.07855 -0.07855,2.362129 -0.07906,2.36213 -4.694804,0.0739 c -4.422663,0.06985 -4.711211,0.04328 -4.980575,-0.456819 -0.303252,-0.562998 -0.406401,-8.34576 -0.120409,-9.086274 0.133804,-0.346426 0.630738,-0.428914 2.582788,-0.428914 z m 40.553597,0.135909 h 2.43396 2.43396 l 0.07493,4.573881 c 0.05151,3.143195 -0.02309,4.691477 -0.238228,4.949052 -0.243803,0.291903 -1.332072,0.374654 -4.91908,0.374654 h -4.606437 v -2.440678 -2.440678 h 2.301668 c 2.702884,0 2.683567,0.02295 2.583305,-3.049943 z m 20.511927,3.288172 c -0.323059,1.122973 -0.692424,2.226187 -1.105876,3.307291 -1.132207,0.124534 -2.960612,0.284746 -4.986259,0.430982 -3.302285,0.23841 -6.28047,0.432814 -6.618201,0.432015 -0.566609,-0.0013 -0.613916,-0.124021 -0.613916,-1.586467 v -1.584916 l 6.345349,-0.457853 c 3.11118,-0.224378 6.035256,-0.451605 6.978903,-0.541052 z m -51.532255,1.722892 11.939839,0.07028 11.93984,0.0708 v 1.35599 1.355473 l -11.612211,0.0186 c -6.386688,0.01004 -11.759494,-0.03068 -11.93984,-0.09043 -0.196097,-0.06495 -0.327628,-0.645817 -0.327628,-1.444873 z m 49.821248,3.077848 c -2.655191,6.200491 -6.784167,11.612585 -11.949658,15.799036 -0.101057,-1.059656 -0.332964,-3.33255 -0.59893,-5.855457 l -0.643372,-6.101436 0.666109,-0.7059 c 0.366201,-0.388423 0.760131,-1.059514 0.875916,-1.491382 l 0.21084,-0.785482 4.709273,-0.310058 c 2.590132,-0.170635 5.375408,-0.392972 6.189803,-0.494027 0.20096,-0.02495 0.380843,-0.0433 0.540019,-0.05529 z m -37.955306,3.168282 c 0.21677,-0.0061 0.491759,1.186898 1.102775,4.199227 0.423531,2.087999 0.798878,3.835931 0.834058,3.884001 0.0352,0.04806 0.564541,-0.226672 1.176155,-0.610299 0.611614,-0.383627 1.177348,-0.697632 1.257288,-0.697632 0.07992,0 -0.173875,0.501979 -0.56379,1.115694 -0.389946,0.613714 -0.605939,1.20556 -0.480591,1.314649 0.257945,0.224472 6.793893,1.650477 7.528223,1.642277 0.262681,-0.0028 0.47749,0.09547 0.47749,0.218074 0,0.122607 -1.79789,0.60725 -3.995105,1.076937 -2.197225,0.469687 -4.057268,0.915831 -4.133598,0.991671 -0.07631,0.07581 0.186199,0.625744 0.583427,1.222148 0.397218,0.596415 0.722437,1.153093 0.722437,1.237133 0,0.08406 -0.557995,-0.172206 -1.240235,-0.569474 -0.682251,-0.397258 -1.274115,-0.677117 -1.315165,-0.621667 -0.04101,0.05541 -0.422157,1.7481 -0.846977,3.761527 -0.3385,1.604357 -0.645827,2.881452 -0.868681,3.645256 -0.07107,3.57e-4 -0.142263,10e-4 -0.213423,10e-4 -0.0856,0 -0.171355,-5.16e-4 -0.256832,-10e-4 -0.374416,-1.904816 -1.58048,-7.305149 -1.667599,-7.391797 -0.0618,-0.0614 -0.554904,0.160165 -1.096057,0.492476 -0.541152,0.33231 -1.053128,0.535899 -1.137398,0.452169 -0.08427,-0.08373 0.120302,-0.591949 0.454753,-1.129647 0.334452,-0.537688 0.547823,-1.03808 0.473873,-1.11156 -0.07393,-0.07344 -1.930053,-0.518197 -4.124813,-0.98857 -2.19476,-0.470373 -3.989904,-0.92239 -3.988904,-1.00459 10e-4,-0.0822 1.841368,-0.503596 4.089673,-0.936377 2.248305,-0.43279 4.145413,-0.844256 4.215763,-0.914156 0.07038,-0.06993 -0.173202,-0.567772 -0.541569,-1.106392 -0.94787,-1.386 -0.838961,-1.545887 0.515731,-0.75706 l 1.185457,0.690397 0.614433,-2.901632 c 0.33802,-1.595908 0.740506,-3.501396 0.894002,-4.234367 0.127633,-0.609473 0.227673,-0.96513 0.345199,-0.968416 z m 23.281783,0.902271 0.160714,1.241784 c 0.08813,0.682945 0.345542,3.255066 0.572058,5.71593 0.226505,2.460854 0.482734,5.031229 0.569474,5.711797 l 0.0186,0.146761 c -0.992856,0.736292 -2.020029,1.429061 -3.078882,2.075325 C 71.242726,83.073665 70.351021,73.40541 70.23964,71.469539 l -0.06253,-1.084688 1.540474,-0.02119 z m -41.834656,0.04289 0.183452,5.423442 c 0.100663,2.982851 0.234222,6.979024 0.296622,8.880595 h -5.17e-4 c 0.03094,0.941446 0.04157,1.798199 0.03359,2.423107 -1.123377,-0.546353 -2.217815,-1.141909 -3.280937,-1.784387 -0.03784,-1.239843 -0.09119,-4.123574 -0.133841,-7.347872 l -0.100253,-7.558195 1.501201,-0.01809 z m 16.644979,1.53169 c 0.263748,0.0068 0.286212,0.223321 0.203605,0.652673 -0.09578,0.497851 -0.480169,0.854785 -1.366325,1.268656 -1.903064,0.888826 -3.101772,2.234098 -3.870564,4.343404 -0.198739,0.545293 -0.457329,0.745691 -0.961182,0.745691 -0.893285,0 -0.871342,-0.36458 0.142627,-2.380733 0.95281,-1.89453 2.220637,-3.109399 4.199743,-4.025077 0.883365,-0.408697 1.388348,-0.611416 1.652096,-0.604614 z m 3.864364,0.02429 c 0.01384,-8.25e-4 0.02873,-7.76e-4 0.04496,0 0.62738,0.03001 2.988485,1.251857 3.941878,2.083594 1.160616,1.01251 1.947481,2.197143 2.509408,3.779614 0.395599,1.114516 0.393351,1.122929 -0.255798,1.122929 -0.521533,0 -0.833391,-0.334139 -1.537891,-1.647444 -0.948273,-1.767751 -2.287696,-3.049647 -3.728971,-3.568775 -0.830073,-0.298991 -1.466425,-1.339597 -1.064018,-1.739428 0.01823,-0.01812 0.04892,-0.02801 0.09043,-0.03049 z m -25.18761,3.751709 c 0.05676,0.06375 0.187976,2.220796 0.291972,4.793506 0.06443,1.594633 0.08328,3.007926 0.05943,3.850928 -2.616107,-1.745737 -5.020202,-3.782743 -7.166488,-6.065263 0.07511,-0.02906 0.154134,-0.05731 0.235644,-0.08372 0.487834,-0.158059 2.144483,-0.810382 3.681429,-1.449524 1.536957,-0.639142 2.841285,-1.109681 2.898015,-1.045931 z m 23.137606,3.505213 c -0.898155,0 -1.474882,1.717348 -0.801502,2.386417 0.180129,0.178977 0.585496,0.325562 0.90072,0.325562 0.784275,0 1.227832,-0.50605 1.227832,-1.400431 0,-0.700923 -0.61758,-1.311548 -1.32705,-1.311548 z m 8.533329,3.124357 c 0.391205,0.01308 0.348971,0.305244 0.02687,1.212329 -0.808526,2.276938 -2.83002,4.394117 -5.130437,5.372282 -0.983065,0.418041 -1.55746,0.412603 -1.55236,-0.01447 0.0071,-0.575496 0.36049,-0.921492 1.557528,-1.524455 1.58882,-0.800306 2.927543,-2.202227 3.482992,-3.647323 0.33835,-0.880299 0.646158,-1.249666 1.11621,-1.338936 0.166714,-0.03167 0.304278,-0.05282 0.414962,-0.0584 0.02998,-0.0015 0.05815,-0.0019 0.08423,-0.001 z m -16.64963,0.02945 c 0.0765,-0.0012 0.165407,0.0083 0.266134,0.02739 0.456261,0.08666 0.835055,0.521231 1.283126,1.471745 0.708853,1.503751 2.124209,2.903491 3.788399,3.747058 0.728585,0.369309 1.103808,0.74229 1.103808,1.096574 0,0.692375 -0.376895,0.673293 -2.046903,-0.102836 -1.578639,-0.733666 -3.496528,-2.68794 -4.244702,-4.325316 -0.628604,-1.375721 -0.685388,-1.906075 -0.149862,-1.914612 z"
       sodipodi:nodetypes="ssssscccssssccsccccccscccssccccccccccsccccccccccccscccccscccscccccsccscsssccsscccssscccscscsccccccccsccccccccscccccccccccccccsccssssccssscsccsccccccssccsccccccsccscscsccscsccsssscccccsssscccccccsssccsssccccccsccccccccccccccccscsccccscsscccssssccccccccscccccccssccscsscccccccssscssccsccccssssssccsssccsccccsccccccccsssccccsscccsccccssscccsccccccscccccccccscsscsscscscsssssscsccssssscssccccssccsccccccccccccccccsssssssssssscsssssscccsscsssssssccssssssssssssssscsscsssssss" /><path
       style="fill:none;stroke:#000000;stroke-width:0;stroke-dasharray:none;stroke-opacity:0.301913;paint-order:markers stroke fill"
       d="m 62.971518,14.019778 7.04905,-0.75712"
       id="path8" /></g></svg>
