<?xml version="1.0" encoding="UTF-8" standalone="no"?>
<!-- Created with Inkscape (http://www.inkscape.org/) -->

<svg
   width="100mm"
   height="100mm"
   viewBox="0 0 100 100"
   version="1.1"
   id="svg1"
   inkscape:version="1.4.3 (fcd0343856, 2026-01-01)"
   sodipodi:docname="favicon-about2.svg"
   xmlns:inkscape="http://www.inkscape.org/namespaces/inkscape"
   xmlns:sodipodi="http://sodipodi.sourceforge.net/DTD/sodipodi-0.dtd"
   xmlns="http://www.w3.org/2000/svg"
   xmlns:svg="http://www.w3.org/2000/svg">
  <sodipodi:namedview
     id="namedview1"
     pagecolor="#ffffff"
     bordercolor="#000000"
     borderopacity="0.25"
     inkscape:showpageshadow="2"
     inkscape:pageopacity="0.0"
     inkscape:pagecheckerboard="0"
     inkscape:deskcolor="#d1d1d1"
     inkscape:document-units="mm"
     inkscape:zoom="0.5"
     inkscape:cx="396"
     inkscape:cy="561"
     inkscape:window-width="1920"
     inkscape:window-height="1011"
     inkscape:window-x="0"
     inkscape:window-y="0"
     inkscape:window-maximized="1"
     inkscape:current-layer="layer1" />
  <defs
     id="defs1" />
  <g
     inkscape:label="Layer 1"
     inkscape:groupmode="layer"
     id="layer1">
    <path
       style="fill:#000000;stroke-width:1.40947"
       d="m 86.766863,96.915764 c -0.80469,-0.37348 -6.26016,-5.40859 -13.02022,-12.01697 C 60.923166,72.363037 60.471684,71.781489 60.878162,68.32297 l 0.224571,-1.910765 -3.471783,-3.457363 -3.471797,-3.45735 -2.01935,1.329907 c -1.110649,0.731445 -2.286445,1.414673 -2.612878,1.518283 -0.330071,0.104724 -2.034023,3.269932 -3.838965,7.131025 -3.178288,6.798997 -3.229748,6.953657 -2.486449,7.474287 0.96866,0.67848 0.960429,1.59704 -0.02932,3.27458 -0.923302,1.56488 -1.717215,2.06277 -3.28927,2.06277 h -1.143293 v 2.29811 c 0,1.93798 0.182682,2.58279 1.165718,4.11473 1.120135,1.74557 1.1554,1.92138 0.901667,4.49626 -0.315609,3.20301 -0.686779,4.0078 -1.848381,4.0078 -1.456872,0 -1.840671,-0.85544 -1.569827,-3.499 0.178946,-1.74664 0.113744,-2.47468 -0.248772,-2.7755 -0.386449,-0.32073 -0.581111,-0.0722 -0.911773,1.16411 -0.231224,0.86454 -0.761693,2.36805 -1.178798,3.34114 -0.590512,1.37759 -0.94708,1.76798 -1.61073,1.76354 -2.005326,-0.0141 -2.298172,-1.02233 -1.174851,-4.04761 0.586974,-1.58086 0.881906,-3.17097 0.881906,-4.75476 v -2.3796 l -0.754391,0.75439 c -0.599181,0.59918 -0.906079,0.67321 -1.491686,0.3598 -0.40552,-0.21702 -0.737295,-0.70141 -0.737295,-1.07642 0,-1.53133 0.788712,-4.68794 1.317264,-5.27199 0.511906,-0.56566 0.203979,-1.38503 -3.266183,-8.691095 L 24.382118,64.025674 21.131932,62.39755 C 9.8922275,56.767176 3.6079705,46.586491 3.5997255,33.994849 3.5898255,18.183099 14.907029,5.1184655 30.602976,2.8234085 c 6.216447,-0.908968 12.35691,0.09852 18.392042,3.017412 C 59.273774,10.81228 65.796217,20.63782 66.593541,32.35163 c 0.481532,7.074167 -1.90032,15.216375 -6.036302,20.634821 -1.57104,2.058153 -1.814892,1.483173 2.579376,6.081688 l 2.58101,2.70097 1.894062,-0.212844 c 1.545926,-0.173717 2.182866,-0.053 3.465176,0.656856 1.80535,0.999358 23.55324,23.019263 24.43116,24.736753 1.53907,3.01085 1.08267,5.83039 -1.33511,8.24818 -2.28873,2.28873 -4.88059,2.88987 -7.40603,1.71771 z M 42.7469,71.578159 c 1.89636,-4.024719 3.392486,-7.373102 3.324719,-7.440869 -0.0678,-0.0678 -1.451502,0.235396 -3.074988,0.673657 -3.470726,0.936946 -10.664853,1.141827 -13.914207,0.396259 -1.106745,-0.253945 -2.063636,-0.410326 -2.126442,-0.34752 -0.06286,0.06286 1.33976,3.254766 3.116822,7.093265 l 3.231002,6.979083 2.997594,-0.0182 2.997594,-0.018 z m -8.245607,5.835115 c -2.027807,-1.59507 -0.860834,-4.82093 1.743996,-4.82093 1.756639,0 2.867246,1.15303 2.867246,2.97676 0,2.45079 -2.545731,3.4689 -4.611242,1.84417 z m 8.376406,-19.099076 c 7.825627,-2.673909 13.53558,-8.377068 16.284966,-16.265572 0.874253,-2.508422 0.989196,-3.409455 1.003671,-7.867318 0.01409,-4.335395 -0.106133,-5.396938 -0.865204,-7.644919 C 57.840694,22.211651 56.034258,19.32976 52.720181,16.037446 47.807566,11.157093 42.16345,8.8394575 35.163266,8.8280685 25.295258,8.8119985 16.794072,14.038279 12.424456,22.807167 c -7.0070755,14.061721 0.144048,30.87352 15.127479,35.563607 3.439351,1.076583 3.821952,1.122701 8.390755,1.011353 3.256119,-0.07935 4.686395,-0.299612 6.935009,-1.067929 z M 30.037257,48.793047 c -0.531301,-0.587059 -0.601619,-1.62567 -0.523957,-7.73814 l 0.08964,-7.060058 -3.443861,-0.10712 c -2.993351,-0.09317 -3.4958,-0.204176 -3.840839,-0.848911 -0.551004,-1.029549 -5.63e-4,-1.712184 6.847228,-8.491743 5.060018,-5.009587 5.866673,-5.670122 6.506404,-5.327747 0.401643,0.214945 3.362238,3.110845 6.57909,6.435324 4.856715,5.019213 5.829857,6.207595 5.737001,7.005906 -0.110644,0.95145 -0.149461,0.962514 -3.7478,1.06814 l -3.636,0.106697 v 7.43182 c 0,6.965962 -0.04524,7.456035 -0.721325,7.817875 -0.396738,0.212323 -2.636234,0.38604 -4.976662,0.38604 -3.639975,0 -4.344062,-0.0981 -4.868978,-0.678083 z"
       id="path1-2"
       sodipodi:nodetypes="ssscccsssssscsssssssscsscssssscscssssscsssssssssssscccssssssssssssssssscssssssscsssss" />
  </g>
</svg>
