<?xml version="1.0" encoding="UTF-8" standalone="no"?>
<!-- Created with Inkscape (http://www.inkscape.org/) -->

<svg
   width="100mm"
   height="100mm"
   viewBox="0 0 100 100"
   version="1.1"
   id="svg1"
   inkscape:version="1.4.3 (fcd0343856, 2026-01-01)"
   sodipodi:docname="favicon-about4.svg"
   xmlns:inkscape="http://www.inkscape.org/namespaces/inkscape"
   xmlns:sodipodi="http://sodipodi.sourceforge.net/DTD/sodipodi-0.dtd"
   xmlns="http://www.w3.org/2000/svg"
   xmlns:svg="http://www.w3.org/2000/svg">
  <sodipodi:namedview
     id="namedview1"
     pagecolor="#ffffff"
     bordercolor="#000000"
     borderopacity="0.25"
     inkscape:showpageshadow="2"
     inkscape:pageopacity="0.0"
     inkscape:pagecheckerboard="0"
     inkscape:deskcolor="#d1d1d1"
     inkscape:document-units="mm"
     inkscape:zoom="0.5"
     inkscape:cx="396"
     inkscape:cy="561"
     inkscape:window-width="1920"
     inkscape:window-height="1011"
     inkscape:window-x="0"
     inkscape:window-y="0"
     inkscape:window-maximized="1"
     inkscape:current-layer="layer1" />
  <defs
     id="defs1" />
  <g
     inkscape:label="Layer 1"
     inkscape:groupmode="layer"
     id="layer1">
    <path
       style="fill:#000000;stroke-width:1.39721"
       d="m 15.048971,96.761511 c 0,-0.32302 0.707009,-1.38209 1.571134,-2.35352 12.893219,-14.494126 21.702421,-24.045737 22.176788,-24.045737 0.201771,0 1.813174,1.52113 3.580883,3.380286 l 3.214031,3.380285 4.413969,-4.942353 C 61.015921,59.85234 62.442542,58.347698 63.121363,58.347698 c 0.429391,0 2.105401,1.58941 4.317856,4.094734 2.831223,3.206012 18.963834,21.315382 28.661788,32.173759 2.667513,2.986724 6.371723,2.7326 -39.832877,2.7326 -37.415055,0 -41.219159,-0.0542 -41.219159,-0.58728 z m 26.965921,-15.055137 1.878871,-2.518821 -2.500266,-2.783509 -2.500252,-2.783509 -2.327278,2.529748 c -3.513132,3.818758 -3.565513,3.915263 -2.8628,5.274162 0.32344,0.625461 0.673609,1.137203 0.778148,1.137203 0.104511,0 0.854576,-0.339005 1.666746,-0.753334 0.812157,-0.414342 1.608427,-0.671904 1.76947,-0.572381 0.161028,0.09948 0.59862,0.859159 0.972402,1.688054 0.373768,0.828895 0.807057,1.460756 0.962832,1.404155 0.155789,-0.05659 1.128736,-1.236406 2.162127,-2.621768 z m 22.733243,-1.824897 c 1.232019,-3.526922 2.141072,-5.452753 2.573886,-5.452753 0.234857,0 1.623921,0.573597 3.086801,1.274675 1.462893,0.701064 2.732343,1.157267 2.821024,1.013802 0.08872,-0.14348 0.2711,-0.846584 0.4054,-1.562459 0.23659,-1.261122 0.07545,-1.494372 -5.184349,-7.502377 -2.985699,-3.410423 -5.46477,-6.150563 -5.509061,-6.089169 -0.04429,0.06134 -2.149525,2.440591 -4.678294,5.287114 l -4.597773,5.175505 0.237247,2.13994 c 0.130499,1.176954 0.319779,2.222473 0.420658,2.323365 0.100878,0.100879 1.473805,-0.404604 3.050921,-1.123329 1.577101,-0.718711 2.990142,-1.306741 3.14009,-1.306741 0.149935,0 0.912435,1.746722 1.694439,3.881618 0.781991,2.134896 1.52064,3.881632 1.641429,3.881632 0.120719,0 0.524695,-0.873368 0.897582,-1.940823 z m -49.876512,4.910371 c -0.135921,-0.219921 -0.138394,-0.894844 -0.0054,-1.499864 0.180849,-0.823404 0.451126,-1.10001 1.074814,-1.10001 1.137438,0 1.26591,0.20634 0.985944,1.583529 -0.248174,1.220785 -1.535461,1.857368 -2.055247,1.016345 z m 5.038455,-1.028738 -1.210659,-1.016625 0.582648,-1.386284 c 0.320456,-0.762472 0.675208,-1.386298 0.788339,-1.386298 0.113132,0 0.957604,0.517331 1.876611,1.149625 l 1.67092,1.149624 -1.214734,1.253284 c -0.668104,0.689314 -1.229974,1.253284 -1.248598,1.253284 -0.01863,0 -0.578664,-0.457475 -1.244527,-1.01661 z m -3.289973,-3.664366 c -0.557286,-0.224868 -0.585668,-0.860738 -0.09592,-2.148882 0.326231,-0.858055 0.45732,-0.915718 1.201455,-0.528509 0.4594,0.239049 0.889126,0.479816 0.95495,0.535034 0.20423,0.171354 -1.047141,2.388908 -1.330628,2.358002 -0.147272,-0.01607 -0.47571,-0.113034 -0.729864,-0.215645 z M 12.600624,77.447285 C 8.7239696,72.897255 5.3735707,66.568395 3.7548227,60.737668 2.3621127,55.721137 2.0844841,47.313242 3.1449138,42.266685 6.5171204,26.218438 17.675354,14.491664 33.83354,10.014413 36.296375,9.3319876 37.660737,9.2270296 44.068736,9.2270296 c 6.449453,0 7.763851,0.102416 10.293221,0.8022214 7.572029,2.094895 13.516279,5.409093 18.858388,10.514416 l 3.380117,3.230295 -1.386298,1.149289 c -0.762458,0.632112 -1.386298,1.370636 -1.386298,1.641164 0,0.270528 0.526944,0.904261 1.170988,1.40829 l 1.170974,0.916431 -0.893726,1.094071 c -0.491538,0.601737 -1.064632,1.385963 -1.273529,1.742727 -0.357504,0.610553 -0.455183,0.602687 -1.663547,-0.133993 -2.056526,-1.253675 -2.826179,-1.056347 -3.785812,0.970629 -0.73897,1.560893 -0.978242,1.768309 -2.153702,1.867078 -1.556786,0.130779 -2.06632,-0.356652 -2.241405,-2.144341 -0.120858,-1.234449 -0.07126,-1.295577 1.080896,-1.330843 1.574698,-0.0482 1.795905,-0.319486 1.187489,-1.45634 -0.459025,-0.857692 -0.418324,-1.021179 0.477176,-1.916694 0.538457,-0.538457 1.510538,-1.155968 2.160185,-1.372256 1.696982,-0.564976 2.143055,-1.441935 1.240667,-2.439068 -0.39583,-0.437383 -1.029101,-0.960834 -1.407284,-1.163234 -0.620655,-0.332173 -0.663186,-0.256863 -0.436852,0.773594 0.248452,1.131195 0.236897,1.14159 -1.268961,1.14159 -1.879555,0 -2.053005,-0.376729 -1.605688,-3.487674 l 0.341366,-2.374001 -2.723777,-1.558434 c -9.424059,-5.392032 -21.026761,-6.461863 -31.627187,-2.916188 -3.236568,1.082587 -7.748651,3.306261 -8.204101,4.043192 -0.178791,0.289292 3.000184,1.487288 3.946626,1.487288 0.168176,0 0.994723,-0.499069 1.836766,-1.109036 0.842029,-0.609966 1.67798,-1.109035 1.857661,-1.109035 0.179668,0 0.668887,0.58001 1.087156,1.288898 0.859033,1.455964 1.151916,1.404993 3.711382,-0.645902 1.138196,-0.912029 1.551504,-1.042529 2.58776,-0.817075 1.546306,0.336407 4.124118,2.155924 4.773499,3.369303 0.416383,0.778009 0.409872,0.970084 -0.04234,1.249582 -0.841512,0.520083 -2.304922,0.007 -3.313094,-1.161963 -1.094169,-1.268499 -1.693502,-1.337968 -2.538661,-0.294238 -0.343169,0.423788 -1.527612,1.21398 -2.632093,1.755972 -1.104481,0.541992 -2.067341,1.184443 -2.139674,1.427684 -0.07238,0.24324 0.513824,0.77147 1.302577,1.173866 0.788767,0.402397 1.607561,1.118341 1.819545,1.59099 0.384289,0.856783 0.387866,0.855484 1.192184,-0.434519 0.443712,-0.711627 0.904959,-1.754812 1.024994,-2.318182 0.296767,-1.392921 0.667405,-1.535701 2.068262,-0.796829 0.658212,0.347165 1.849111,0.7326 2.646457,0.856504 1.25225,0.194604 1.569403,0.451858 2.328577,1.888833 0.483365,0.91495 1.118411,2.029183 1.411182,2.476053 0.785386,1.198751 0.07894,1.339184 -1.465282,0.291276 -1.39837,-0.948971 -1.952266,-1.079177 -2.954597,-0.694539 -0.811067,0.311229 -0.73123,1.149918 0.154601,1.623992 1.330326,0.711976 0.900893,1.478164 -0.831773,1.484061 -1.318073,0.0042 -1.79346,0.227787 -2.951426,1.386298 -3.461211,3.462832 -4.7194,5.1471 -4.7194,6.317529 0,1.347274 -0.569978,1.546251 -0.949111,0.331335 -0.358789,-1.149653 -0.817144,-1.374101 -2.819487,-1.380626 -2.39249,-0.0084 -3.57895,1.05379 -3.712124,3.321449 -0.0947,1.612674 -0.06282,1.666956 1.042828,1.774848 0.69427,0.06777 1.326717,-0.113034 1.616401,-0.462099 0.261725,-0.315365 0.726801,-0.573401 1.033502,-0.573401 0.427407,0 0.510108,0.292729 0.354179,1.253619 -0.18629,1.147962 -0.114292,1.271447 0.853905,1.465101 0.941483,0.188288 1.069872,0.385113 1.171687,1.796225 0.108284,1.501569 0.179528,1.59099 1.356244,1.703619 0.874207,0.08369 1.489357,-0.113593 2.077666,-0.666302 1.012223,-0.950941 1.582523,-1.001129 4.443674,-0.391093 1.424945,0.30381 2.645954,0.848023 3.414685,1.52194 0.658128,0.576978 1.8642,1.228804 2.680157,1.448516 0.815971,0.219711 1.483572,0.518812 1.483572,0.664653 0,0.284807 -2.438048,1.42162 -5.238799,2.442757 -0.949767,0.34627 -1.926683,0.870378 -2.170915,1.164659 -0.244233,0.29428 -0.764666,0.535061 -1.156513,0.535061 -0.811011,0 -2.767665,0.925624 -3.718648,1.759158 -0.519846,0.45563 -0.745412,0.473473 -1.201461,0.09501 -0.720151,-0.597684 -0.724426,-3.556459 -0.007,-4.811587 0.90222,-1.578261 0.69479,-2.151802 -0.937137,-2.591239 -0.82965,-0.223386 -1.936213,-0.900586 -2.493309,-1.525823 -0.937989,-1.052729 -2.407589,-1.865486 -6.327777,-3.499524 -2.118579,-0.883093 -2.622437,-1.427083 -2.642711,-2.853229 -0.0092,-0.64628 -0.43307,-1.923652 -0.941961,-2.838615 l -0.925256,-1.663547 0.185186,1.94081 c 0.365469,3.830033 -0.899477,1.899284 -2.158351,-3.294413 l -0.686511,-2.832327 1.162772,-2.060313 c 0.975189,-1.727944 1.162774,-2.450162 1.162774,-4.47676 0,-2.254525 -0.06556,-2.446306 -0.978466,-2.862256 -0.932184,-0.424738 -1.081575,-0.333709 -3.158396,1.924322 -4.10737,4.465779 -6.9741159,9.953574 -8.6492874,16.557308 -1.2260187,4.833104 -1.1883848,6.751251 0.1629804,8.306779 0.5802154,0.667867 1.4883645,1.907234 2.0181084,2.75414 0.6093543,0.974191 1.6477216,1.912417 2.8266866,2.554086 1.024934,0.557837 1.863517,1.195817 1.863517,1.417736 0,0.221919 -0.246645,1.567908 -0.548099,2.991092 -0.301455,1.423185 -0.550989,3.274265 -0.554518,4.113486 -0.0039,0.9273 -0.23351,1.714335 -0.585312,2.00631 -0.318391,0.26424 -0.827138,0.960484 -1.130546,1.547215 -0.513893,0.993752 -0.489519,1.172735 0.356093,2.61467 0.499258,0.851348 1.677869,2.539248 2.619135,3.750881 1.076016,1.385111 1.625062,2.414464 1.478863,2.772597 -0.127886,0.313282 -0.39814,1.027075 -0.600557,1.586211 -0.202417,0.559149 -0.476523,1.00254 -0.609125,0.985327 -0.132595,-0.01719 -0.760608,-0.641041 -1.395567,-1.386285 z m 5.987522,-2.028749 c -0.629825,-0.460535 -0.633187,-0.557376 -0.05796,-1.669751 0.521703,-1.00887 0.716495,-1.124223 1.337304,-0.791981 0.842618,0.450964 0.883086,0.724119 0.297636,2.009035 -0.491619,1.078996 -0.655966,1.126166 -1.576986,0.452697 z m 59.929051,-4.739604 -0.90943,-1.162046 1.602419,-3.366522 c 1.668115,-3.50454 2.919737,-7.248142 2.423322,-7.248142 -0.158095,0 -0.917325,1.14908 -1.687188,2.553528 -0.769849,1.404434 -2.127532,3.267796 -3.017052,4.140787 -1.569249,1.540103 -1.634289,1.56584 -2.188884,0.866005 -0.730616,-0.921963 -0.423271,-6.271393 0.46766,-8.139687 0.520279,-1.091026 0.533888,-1.477773 0.106188,-3.016228 -0.269857,-0.970614 -0.506726,-2.614893 -0.526385,-3.653957 -0.03521,-1.864633 -0.05393,-1.894086 -1.435969,-2.262852 -1.003449,-0.267761 -2.103361,-0.239189 -3.881618,0.100879 l -2.481404,0.474492 -1.201448,-1.149163 c -0.66081,-0.632043 -1.201461,-1.268053 -1.201461,-1.413349 0,-0.14531 0.744713,-0.624693 1.654926,-1.065317 0.910213,-0.440624 2.063959,-1.28725 2.563881,-1.881372 0.499922,-0.594135 1.016471,-1.080239 1.147865,-1.080239 0.633886,0 3.505615,-2.761992 3.505615,-3.371636 0,-0.382152 0.218412,-0.694833 0.485349,-0.694833 0.266951,0 0.961825,-0.497323 1.544183,-1.10518 0.582357,-0.607842 1.14064,-1.023373 1.240625,-0.923388 0.10004,0.10004 0.494738,-0.101438 0.877252,-0.447583 0.57417,-0.519622 0.885636,-0.557598 1.785971,-0.217769 0.944737,0.35661 1.090508,0.326528 1.090508,-0.224965 0,-0.350113 -0.244232,-0.959506 -0.54276,-1.354176 -0.679911,-0.898923 -0.694609,-1.324975 -0.07489,-2.172425 0.439632,-0.601233 0.631483,-0.621269 1.823024,-0.190412 1.037275,0.375095 1.45824,0.814518 1.904076,1.987588 4.252466,11.188862 3.508955,23.589761 -2.055618,34.285589 -0.828224,1.59194 -1.64161,2.894447 -1.807543,2.894447 -0.165933,0 -0.710942,-0.52292 -1.21113,-1.162046 z M 21.126903,70.93729 c -0.699838,-0.520796 -0.692499,-0.559401 0.296623,-1.560334 0.945167,-0.956461 1.056012,-0.984531 1.628178,-0.412359 0.572165,0.572158 0.571747,0.678387 -0.0061,1.560335 -0.716484,1.093485 -0.939089,1.141325 -1.918679,0.412358 z m 21.274164,-1.319302 c -0.95259,-1.137776 -1.985687,-1.956933 -2.708716,-2.147792 -1.158162,-0.305723 -1.167677,-0.327492 -1.04556,-2.39412 0.110938,-1.877906 0.02236,-2.179047 -0.889716,-3.024346 -0.557124,-0.516325 -0.945283,-0.992326 -0.862596,-1.057772 0.08272,-0.06539 1.106912,-0.498999 2.276014,-0.96346 1.169116,-0.464461 2.12566,-0.991503 2.12566,-1.171212 0,-0.179709 0.311564,-0.326738 0.69236,-0.326738 0.979067,0 4.113457,-1.43826 4.113457,-1.887519 0,-0.205809 0.155384,-0.278157 0.345307,-0.160777 0.51796,0.320115 3.443132,-0.897372 4.188991,-1.743509 0.635409,-0.720821 0.69725,-0.723392 2.33784,-0.09683 0.92684,0.353969 1.784825,0.903297 1.906648,1.220757 0.121836,0.317446 -0.159394,1.23899 -0.624917,2.047849 -0.465522,0.808859 -1.214623,2.56852 -1.664664,3.910359 -0.708414,2.112205 -1.000026,2.526758 -2.172327,3.088283 -0.829147,0.397143 -1.85449,1.40034 -2.644878,2.587745 -0.709922,1.066547 -1.862775,2.393492 -2.561883,2.948771 l -1.271098,1.009596 z M 24.27336,67.198816 c -0.402252,-0.484692 -0.323962,-0.729525 0.495224,-1.54871 0.963768,-0.963768 0.980453,-0.966269 1.756611,-0.263863 l 0.783602,0.709154 -1.046832,0.837726 c -1.244591,0.995959 -1.368761,1.012558 -1.988605,0.265693 z m 3.952588,-3.526741 c -0.509144,-0.726898 -0.475583,-0.853555 0.436908,-1.649141 l 0.988414,-0.861758 0.638721,0.811333 c 0.840618,1.067804 0.832793,1.101518 -0.428692,1.846693 -1.050507,0.620543 -1.100834,0.616016 -1.635351,-0.147127 z m 4.271859,-2.625721 C 31.77524,60.3238 31.9845,59.696606 33.149047,59.094381 c 1.035808,-0.535621 1.11795,-0.52306 1.522624,0.233068 0.365371,0.682719 0.300079,0.897415 -0.447932,1.47266 -1.045113,0.803718 -1.153062,0.819129 -1.725932,0.246245 z m 4.382979,-2.844665 c -0.417137,-0.779434 -0.03828,-1.251845 1.342999,-1.674906 0.603246,-0.184739 0.916738,-0.04709 1.231404,0.540944 0.469588,0.87742 0.48947,0.832765 -0.630072,1.414745 -1.123511,0.584034 -1.511475,0.528006 -1.944331,-0.280783 z m 4.837926,-2.103612 c -0.360802,-0.791883 -0.283872,-0.945381 0.738858,-1.474253 1.187364,-0.614004 1.648443,-0.440442 1.857536,0.699234 0.08481,0.46196 -0.238965,0.82645 -1.035165,1.165539 -1.088902,0.463762 -1.182669,0.440303 -1.561229,-0.39052 z m 4.789148,-2.068416 c -0.387642,-1.011413 -0.197999,-1.274047 1.162577,-1.610062 0.844013,-0.208436 1.068824,-0.104372 1.341308,0.620781 0.34662,0.92248 0.17331,1.128149 -1.341057,1.591492 -0.658183,0.201394 -0.903534,0.07433 -1.162828,-0.602211 z m 4.782624,-2.12703 c -0.524653,-0.980311 -0.522012,-0.985927 0.704026,-1.493772 1.22907,-0.509101 1.697415,-0.34219 1.970542,0.702266 0.144387,0.552136 -0.07657,0.815636 -0.934734,1.114793 -1.415598,0.49348 -1.290254,0.516772 -1.739834,-0.323287 z m 4.647527,-2.087768 c -0.378491,-0.986304 -0.264185,-1.224068 0.870476,-1.810826 1.021193,-0.52809 1.120702,-0.517932 1.47871,0.151038 0.56798,1.061265 0.481772,1.341895 -0.557739,1.815521 -1.24335,0.566513 -1.523644,0.542146 -1.791447,-0.155733 z M 60.494286,47.0255 c -0.436307,-0.815244 -0.375752,-0.90732 1.187797,-1.805992 0.597684,-0.343546 0.909654,-0.143046 1.56447,1.005475 0.155803,0.273266 -0.173156,0.667503 -0.848274,1.016624 -1.398524,0.723196 -1.401472,0.722861 -1.903993,-0.216107 z m 4.425022,-2.769299 c -0.429224,-0.517177 -0.349415,-0.715511 0.589036,-1.463801 1.02442,-0.816837 1.124391,-0.830404 1.775812,-0.240879 0.670032,0.606389 0.661677,0.649297 -0.28524,1.463801 -1.160509,0.998223 -1.425588,1.028934 -2.079608,0.240879 z m -1.997914,-3.190977 c 0.133434,-0.660797 0.561833,-1.617341 0.951976,-2.125646 0.390157,-0.508305 1.046175,-1.548025 1.457821,-2.310497 0.550585,-1.019796 0.987381,-1.386285 1.652216,-1.386285 0.497071,0 1.673956,-0.261487 2.615298,-0.581085 0.941329,-0.319584 1.784112,-0.508473 1.872849,-0.41975 0.218817,0.218817 -1.084836,2.474278 -1.431819,2.477212 -0.522962,0.0042 -3.235758,2.676874 -3.235758,3.187624 0,0.281314 -0.319947,0.511491 -0.710999,0.511491 -0.391037,0 -1.205247,0.415893 -1.809331,0.924198 -1.438638,1.21053 -1.653864,1.166727 -1.362253,-0.277262 z m 6.271449,-0.06511 c -0.568916,-0.422391 -0.640271,-0.67734 -0.330929,-1.182389 0.734276,-1.198793 1.562543,-1.482552 2.26805,-0.777045 0.610972,0.610972 0.596777,0.689356 -0.284374,1.570507 -0.838438,0.838452 -0.997036,0.875771 -1.652747,0.388927 z m 3.599927,-3.613172 c -0.634683,-0.634683 -0.550305,-1.193623 0.295748,-1.959295 0.713583,-0.64579 0.765322,-0.645609 1.484438,0.0056 l 0.745104,0.674308 -0.809543,0.861716 c -0.926882,0.986612 -1.104048,1.029786 -1.715747,0.418087 z m 3.42631,-4.140214 c -0.645386,-0.471908 -0.660238,-0.605719 -0.169063,-1.523477 0.681378,-1.27318 1.375512,-1.543819 2.100371,-0.818961 0.511435,0.511421 0.500564,0.683264 -0.108424,1.714112 -0.771637,1.306266 -0.856029,1.335356 -1.82294,0.628326 z m 3.240829,-4.548018 c -1.680467,-1.106116 -2.969659,-2.149874 -2.86484,-2.319453 0.28028,-0.453521 5.911639,-3.705528 6.416689,-3.705528 0.315979,0 0.368864,1.014193 0.197566,3.789206 -0.128684,2.084066 -0.337427,3.892196 -0.463958,4.018056 C 82.618779,30.60688 81.14039,29.804825 79.459909,28.69871 Z M 48.135205,23.534354 c -1.524622,-0.809026 -1.453071,-0.680525 -1.661479,-2.983743 -0.178466,-1.972316 -0.245378,-2.085266 -1.480791,-2.499581 -0.711628,-0.238658 -1.293873,-0.585431 -1.293873,-0.770618 0,-1.022562 7.874762,-2.285095 8.671479,-1.39028 0.153875,0.172821 0.675719,1.036842 1.159629,1.920033 l 0.879851,1.6058 -1.179483,0.981945 c -0.648725,0.540078 -1.686265,1.368903 -2.305635,1.841845 -0.619383,0.472942 -1.126151,1.096768 -1.126151,1.386298 0,0.660336 -0.274859,0.64519 -1.663547,-0.09166 z m 36.659799,-2.216101 c -0.13553,-0.13553 -0.246454,-0.53108 -0.246454,-0.878943 0,-0.347864 -0.247698,-0.838047 -0.550445,-1.089308 -0.607731,-0.504365 -0.376479,-1.271964 0.263961,-0.876148 0.282376,0.174511 0.326067,-0.395914 0.147014,-1.919348 -0.445361,-3.789375 -0.463133,-3.81848 -2.494733,-4.087988 -2.040263,-0.270653 -2.464651,-0.63893 -1.741343,-1.511126 1.252906,-1.5107884 5.182602,-2.0980781 8.343568,-1.2469117 2.232602,0.6011777 4.682261,2.6711597 5.788698,4.8914817 1.776302,3.564563 0.920343,5.554666 -1.415388,3.29078 l -1.221581,-1.183996 -2.04233,1.306461 c -1.319805,0.844265 -2.023371,1.540104 -1.988748,1.966882 0.02962,0.365817 -0.161378,0.616239 -0.428315,0.561399 -0.265037,-0.05449 -0.734401,0.153469 -1.043017,0.462085 -0.61033,0.61033 -0.988443,0.697124 -1.370887,0.31468 z m 4.186783,-3.912441 c 1.010309,-0.660797 1.787493,-1.359402 1.727106,-1.552454 -0.133993,-0.428064 -4.668989,-2.785619 -5.364869,-2.788902 -0.726256,-0.0028 -0.197762,4.456612 0.602044,5.080718 0.827819,0.645958 0.971047,0.611084 3.035719,-0.739362 z"
       id="path1-6"
       sodipodi:nodetypes="sssscssssssscccsssssssssssssssscsssssssssssssscssscssssssssssssssssscssscssssssssssssssscsssssssssssssssssssssssssscssscsssssssssssssssssssssssscsscssssssssssssssssssssssssssccsssssssssscssssssssssssssssssscsssssssssssssssssssssssscsssscsssscssssssssssssssssssssssssssssssssssssssssssssssssscssssssssscsccsccsssssssssssssssssscssssssssssssssscssssssscss" />
  </g>
</svg>
