<?xml version="1.0" encoding="UTF-8" standalone="no"?>
<!-- Created with Inkscape (http://www.inkscape.org/) -->

<svg
   width="100mm"
   height="100mm"
   viewBox="0 0 100 100"
   version="1.1"
   id="svg1"
   xml:space="preserve"
   inkscape:version="1.4.3 (fcd0343856, 2026-01-01)"
   sodipodi:docname="favicon-simu3.svg"
   xmlns:inkscape="http://www.inkscape.org/namespaces/inkscape"
   xmlns:sodipodi="http://sodipodi.sourceforge.net/DTD/sodipodi-0.dtd"
   xmlns="http://www.w3.org/2000/svg"
   xmlns:svg="http://www.w3.org/2000/svg"><sodipodi:namedview
     id="namedview1"
     pagecolor="#ffffff"
     bordercolor="#000000"
     borderopacity="0.25"
     inkscape:showpageshadow="2"
     inkscape:pageopacity="0.0"
     inkscape:pagecheckerboard="0"
     inkscape:deskcolor="#d1d1d1"
     inkscape:document-units="mm"
     inkscape:zoom="0.89575787"
     inkscape:cx="192.01617"
     inkscape:cy="306.44442"
     inkscape:window-width="1648"
     inkscape:window-height="961"
     inkscape:window-x="0"
     inkscape:window-y="0"
     inkscape:window-maximized="1"
     inkscape:current-layer="layer1" /><defs
     id="defs1" /><g
     inkscape:label="Layer 1"
     inkscape:groupmode="layer"
     id="layer1"><path
       style="fill:#000000;stroke-width:0.960667"
       d="m 0.05464396,96.980411 c -0.1997093,-0.520432 0.0600513,-0.833148 2.27967994,-2.744367 0.986909,-0.849777 3.7892055,-3.264636 6.2273264,-5.366336 8.7804667,-7.568935 14.3728977,-11.923313 17.2658167,-13.443492 3.066041,-1.611164 5.62355,-1.112415 8.251826,1.609194 1.177282,1.219097 1.003454,1.282338 -1.71294,0.623224 -2.171847,-0.526984 -2.648287,-0.334082 -3.677016,1.488727 -0.425289,0.753566 -1.185316,1.684424 -1.68895,2.068566 -0.834047,0.636154 -0.915697,0.810602 -0.915697,1.95638 0,1.64277 0.326736,1.637928 2.791361,-0.0414 1.751696,-1.193542 1.995425,-1.286775 3.089112,-1.181688 0.85022,0.08166 1.547747,0.378638 2.456551,1.045754 1.194692,0.876984 3.196359,1.883244 4.625982,2.325535 0.540113,0.167099 0.454316,0.0019 -0.571897,-1.098484 -2.168837,-2.326429 -1.338024,-3.490162 1.212041,-1.69773 3.846932,2.704 5.144851,3.527542 8.383123,5.319186 7.154025,3.958113 11.832782,5.967695 16.91552,7.265441 3.289097,0.839777 3.325343,0.567226 0.114309,-0.859423 -3.200569,-1.422008 -6.474974,-3.156714 -11.243785,-5.956694 l -2.855968,-1.676864 2.220525,-0.798065 c 4.534216,-1.629628 7.893055,-3.619468 13.040589,-7.725505 4.491853,-3.58301 5.825739,-4.083921 8.112781,-3.046535 1.742237,0.790254 6.955981,4.818813 12.474208,9.638577 1.200421,1.048482 4.666903,4.072019 7.703293,6.718984 4.266588,3.719378 5.503655,4.931923 5.445635,5.337708 l -0.07512,0.525053 -49.854714,0.06417 C 4.1932576,97.389405 0.20083156,97.361445 0.05460556,96.980382 Z M 67.956927,82.260989 c 0.533698,-0.222999 1.232728,-0.324311 1.632221,-0.236574 0.495157,0.108757 1.023399,-0.03679 1.813078,-0.499576 1.370881,-0.803396 1.783382,-0.809564 3.796288,-0.05677 0.876926,0.327943 2.109116,0.669633 2.7382,0.759311 l 1.143789,0.163045 -1.525059,-1.425534 c -2.084139,-1.948138 -3.934471,-3.325562 -4.735004,-3.524862 -0.550117,-0.136962 -0.890568,0.03113 -1.926801,0.951484 -0.692248,0.614817 -1.706933,1.449339 -2.25485,1.854501 -1.705204,1.260904 -2.617687,2.09681 -2.460502,2.253994 0.247246,0.247247 0.789162,0.174429 1.77864,-0.239004 z m -19.460645,1.805229 c -1.06521,-0.345178 -3.199478,-1.648794 -3.009854,-1.83842 0.05144,-0.0514 1.168712,0.0367 2.482826,0.195803 2.371643,0.287202 3.924332,0.103397 7.854095,-0.929743 0.618833,-0.162699 0.615519,-0.149768 -0.127087,0.494628 -1.11031,0.963473 -3.721298,2.171964 -4.996113,2.312442 -0.607267,0.06696 -1.599009,-0.03872 -2.203867,-0.23471 z m -3.000493,-3.809853 c -0.857158,-0.19639 -1.943763,-0.551654 -2.414678,-0.789467 -0.880241,-0.44453 -2.254179,-1.608532 -2.254179,-1.90974 0,-0.09318 0.600492,-0.01047 1.334427,0.183776 1.931326,0.511142 6.797883,0.698511 9.492848,0.365496 2.98781,-0.369204 6.014805,-1.142926 7.536983,-1.926513 1.483818,-0.763836 1.577694,-0.407506 0.289218,1.097793 -1.037213,1.211747 -2.704115,2.143758 -4.860131,2.71744 -2.104323,0.559915 -7.18588,0.705398 -9.124488,0.261215 z m -1.110386,-4.730048 c -3.517002,-0.352056 -5.975142,-1.209586 -7.234072,-2.523625 -1.037828,-1.083258 -0.648149,-1.289869 1.319266,-0.6995 1.459526,0.437968 2.47367,0.519865 6.677336,0.539213 5.482193,0.02527 6.825013,-0.08194 10.549703,-0.841708 3.105367,-0.633455 5.505008,-1.404678 6.88372,-2.212359 0.571472,-0.334774 1.114777,-0.608689 1.207338,-0.608689 0.437094,0 0.08367,1.054419 -0.695351,2.074696 -2.440114,3.195737 -10.674685,5.076099 -18.70794,4.271972 z m -3.177206,-6.127866 c -4.363684,-0.552442 -7.413779,-2.062755 -7.200914,-3.56568 0.103826,-0.733057 0.469591,-0.714218 2.971099,0.153005 4.593384,1.592441 12.821804,1.447534 19.813646,-0.348924 4.197569,-1.078512 6.493199,-2.158485 7.853053,-3.694467 0.982532,-1.109782 1.270559,-1.122847 1.550526,-0.07032 0.877794,3.300113 -3.784904,6.040455 -12.445906,7.314675 -3.621822,0.532853 -9.253814,0.627921 -12.541504,0.211702 z m -0.909705,-5.917077 c -4.041173,-0.714545 -6.044289,-1.597398 -6.836145,-3.012989 -0.347617,-0.621427 -0.347617,-0.765104 0,-1.386531 0.544981,-0.974252 1.838867,-1.776764 3.849168,-2.387374 2.298987,-0.69829 2.65492,-0.503793 0.895327,0.489258 -1.40183,0.791148 -1.992191,1.660274 -1.580372,2.326612 0.518372,0.838739 4.989781,1.789829 8.414651,1.789829 5.983464,0 13.973584,-1.88116 15.94155,-3.753203 1.152195,-1.096044 1.297016,-1.518171 0.787584,-2.295668 -0.677348,-1.033774 -1.357375,-1.516116 -3.023874,-2.144853 l -1.525059,-0.575363 0.91957,-0.07685 c 1.276727,-0.106749 4.202872,0.611878 5.429173,1.333339 1.851273,1.089147 2.327505,1.874291 2.205702,3.636443 -0.06023,0.871825 -1.942172,2.577894 -3.745594,3.395604 -1.99276,0.903565 -5.232198,1.854924 -8.173704,2.400468 -3.029618,0.561884 -10.990283,0.715312 -13.557977,0.261311 z m 7.963104,-8.337478 c -0.323513,-0.156022 -0.571951,-0.507329 -0.572021,-0.808873 -1.22e-4,-0.519971 -2.226283,-2.693557 -2.758716,-2.693557 -0.1374,0 -0.497234,0.400329 -0.799632,0.889626 -0.302398,0.489287 -0.595038,0.889616 -0.650312,0.889616 -0.05528,0 -0.280764,-0.275125 -0.501089,-0.611378 -0.363977,-0.555496 -0.364207,-0.698453 -0.0025,-1.564092 0.218937,-0.523986 0.367971,-0.973799 0.331187,-0.999574 -0.03678,-0.02575 -0.617402,-0.419014 -1.290261,-0.873842 -0.672857,-0.454828 -1.34124,-1.085641 -1.485293,-1.401806 -0.219551,-0.481861 -0.700024,-0.666809 -2.970533,-1.143453 -5.348066,-1.122694 -11.900733,-2.858312 -14.146565,-3.747026 -2.389292,-0.945489 -5.655632,-2.923551 -5.906307,-3.576805 -0.397839,-1.036742 1.610535,-4.230923 4.29594,-6.832391 5.943712,-5.757923 15.400839,-10.541182 24.867524,-12.577585 3.530106,-0.759369 12.324247,-0.860431 15.009159,-0.172478 3.834715,0.98257 6.279889,2.430325 7.239807,4.286603 0.444213,0.85901 0.482995,2.259384 0.08665,3.12923 -0.361883,0.794241 -2.641784,2.010878 -3.348143,1.786688 -0.413539,-0.131247 -0.990554,0.33752 -2.951536,2.397835 -1.34063,1.40854 -4.717616,4.849708 -7.504406,7.647046 -4.842023,4.860334 -5.047894,5.107062 -4.638727,5.55919 0.736784,0.814137 0.525716,1.630531 -0.739012,2.858399 -1.628442,1.58098 -1.747112,2.001166 -0.961935,3.406007 0.816488,1.460849 0.915698,1.513532 1.695404,0.900223 0.751674,-0.591272 1.391536,-0.438017 1.714167,0.41057 0.725035,1.906992 -1.979647,3.822399 -4.012846,2.841827 z M 40.497759,45.143617 C 40.469109,45.123927 39.359062,44.38446 38.03099,43.500386 35.484744,41.805385 31.395017,38.776295 26.686192,35.097765 l -2.829881,-2.210697 -1.648509,1.688363 c -0.906681,0.928591 -2.234127,2.455543 -2.949882,3.393212 l -1.301372,1.704858 0.82332,0.624309 c 0.833893,0.63232 3.747262,2.132883 5.144322,2.649635 1.96964,0.728542 5.742778,1.733227 10.64398,2.834209 l 5.360663,1.204197 0.31051,-0.90321 c 0.170781,-0.496771 0.287067,-0.91933 0.258416,-0.939024 z m 1.261744,-0.913623 c 0.57772,-0.542739 0.578999,-0.557245 0.117644,-1.334425 -1.048328,-1.765966 -4.466471,-7.90756 -6.582489,-11.827179 -1.240733,-2.298281 -2.366862,-4.215687 -2.502507,-4.260905 -0.561481,-0.187158 -8.486696,5.196345 -8.486696,5.764916 0,0.702527 15.668003,12.206297 16.624842,12.206297 0.134825,0 0.507967,-0.24691 0.829206,-0.548704 z M 57.33959,36.498351 c 6.775318,-6.785049 7.460341,-7.546868 7.02806,-7.815922 -2.548123,-1.585976 -4.499814,-2.909891 -5.229595,-3.547486 l -0.879212,-0.768149 -4.683234,9.425434 c -4.423591,8.902889 -4.948181,10.223941 -4.059928,10.223941 0.174284,0 3.695037,-3.383019 7.823909,-7.517818 z m -12.756065,6.261505 c 0.598256,-0.151065 1.348865,-0.209128 1.668019,-0.129027 0.578684,0.145243 0.582576,0.126894 1.415234,-6.669174 0.997663,-8.142828 1.735864,-13.201462 1.773403,-12.152519 0.01501,0.419389 -0.306854,3.164496 -0.715253,6.100238 -1.166223,8.383311 -1.621222,12.607183 -1.381969,12.829165 0.120809,0.112081 0.448411,0.264654 0.728004,0.339029 0.448256,0.119257 1.064265,-0.991659 5.210624,-9.396864 l 4.702265,-9.532107 -0.635443,-0.511161 c -0.349491,-0.281139 -1.186972,-1.030815 -1.861072,-1.665932 l -1.225629,-1.15477 -2.078664,0.152881 c -4.188357,0.308038 -6.952915,0.877665 -11.4832,2.366075 -3.10913,1.021497 -7.592554,3.021232 -7.457995,3.326484 0.04778,0.108392 0.501191,0.940551 1.007578,1.849227 0.506387,0.908686 2.441066,4.397253 4.299284,7.752384 1.85822,3.355131 3.502734,6.306887 3.654475,6.559456 0.172315,0.286817 0.466743,0.412683 0.784247,0.335253 0.279594,-0.06821 0.997835,-0.247573 1.596092,-0.398638 z m 4.934961,-20.475779 c 0.0052,-0.419389 0.06215,-0.560185 0.126591,-0.31288 0.06444,0.247304 0.06021,0.590436 -0.0094,0.76253 -0.06963,0.172084 -0.122353,-0.03026 -0.117173,-0.44965 z M 14.773833,40.096444 C 9.3856656,37.684352 11.792095,29.117131 19.83219,22.088004 29.8746,13.308321 44.144989,9.5165573 57.288184,12.135615 c 8.822241,1.758021 14.714257,6.065356 15.23369,11.136527 0.35,3.417084 -1.913131,6.310931 -4.869623,6.226739 l -1.026399,-0.02921 1.00146,-0.192786 c 1.226446,-0.236094 2.582024,-1.615007 2.816523,-2.864999 0.377158,-2.010427 -1.166289,-4.508431 -3.606134,-5.836361 -3.3904,-1.845289 -9.734272,-2.783995 -15.180468,-2.246271 -6.587327,0.650391 -12.28145,2.311308 -18.455598,5.383311 -7.33694,3.650565 -12.410188,7.649304 -15.601431,12.29707 -0.928503,1.352284 -1.047134,1.690631 -1.047134,2.986571 0,1.295383 -0.05778,1.460387 -0.508354,1.451568 -0.279594,-0.0058 -0.851491,-0.163563 -1.270883,-0.351306 z"
       id="path2"
       sodipodi:nodetypes="csssssssssssscssssscsssssscsccssssscssssssssssssssssssssssssssssssssssssssssssssssssssscsssssssssssssssssssssssssssssssssssssscsscssscsssssssssssscssssssssssscsscsssssssssssssssssscssssssscss" /></g></svg>
