<?xml version="1.0" encoding="UTF-8" standalone="no"?>
<!-- Created with Inkscape (http://www.inkscape.org/) -->

<svg
   width="100mm"
   height="100mm"
   viewBox="0 0 100 100"
   version="1.1"
   id="svg1"
   xml:space="preserve"
   inkscape:version="1.4.3 (fcd0343856, 2026-01-01)"
   sodipodi:docname="favicon-map4.svg"
   xmlns:inkscape="http://www.inkscape.org/namespaces/inkscape"
   xmlns:sodipodi="http://sodipodi.sourceforge.net/DTD/sodipodi-0.dtd"
   xmlns="http://www.w3.org/2000/svg"
   xmlns:svg="http://www.w3.org/2000/svg"><sodipodi:namedview
     id="namedview1"
     pagecolor="#ffffff"
     bordercolor="#000000"
     borderopacity="0.25"
     inkscape:showpageshadow="2"
     inkscape:pageopacity="0.0"
     inkscape:pagecheckerboard="0"
     inkscape:deskcolor="#d1d1d1"
     inkscape:document-units="mm"
     inkscape:zoom="0.44787894"
     inkscape:cx="102.70633"
     inkscape:cy="577.1649"
     inkscape:window-width="1648"
     inkscape:window-height="961"
     inkscape:window-x="0"
     inkscape:window-y="0"
     inkscape:window-maximized="1"
     inkscape:current-layer="layer1" /><defs
     id="defs1" /><g
     inkscape:label="Layer 1"
     inkscape:groupmode="layer"
     id="layer1"><path
       style="fill:#000000;stroke-width:1.06076"
       d="M 7.7962242,97.171502 C 6.1510131,96.641468 4.2443124,94.927881 3.3469024,93.172836 L 2.5000019,91.516568 V 49.955464 8.3943701 L 3.1331646,7.2092696 C 4.126195,5.3505794 5.3508781,4.1321887 7.0795754,3.2831343 L 8.6740442,2.5000014 H 50.068209 91.462372 l 1.437817,0.7585954 c 0.79079,0.4172232 1.949467,1.3399645 2.574823,2.0505244 2.173944,2.4701339 2.021084,-0.9154532 2.021084,44.7668558 0,46.408357 0.20555,42.495048 -2.36712,45.068127 -2.575131,2.57555 1.381123,2.37139 -45.321239,2.33885 C 23.026834,97.464254 8.3677512,97.355624 7.7962242,97.171492 Z M 91.815739,93.302876 c 0.503049,-0.306767 1.165592,-0.969408 1.472298,-1.47254 0.546803,-0.896973 0.557685,-1.471521 0.558714,-29.496713 l 0.0011,-28.581928 -0.912068,0.197913 c -0.996902,0.216308 -1.32216,0.548568 -1.328736,1.357331 -0.0053,0.714315 -1.110894,2.461945 -1.431463,2.263788 -0.420274,-0.259782 -0.2912,-1.99292 0.177388,-2.381882 0.238728,-0.198157 0.675749,-0.699771 0.971159,-1.114703 l 0.537097,-0.754405 -0.804993,-0.02291 c -0.462542,-0.01315 -1.013565,0.20762 -1.295293,0.51897 -0.361045,0.399019 -0.863701,0.541863 -1.906795,0.541863 -1.21308,0 -1.54939,0.128819 -2.341931,0.897111 -1.066832,1.034184 -1.151687,1.348356 -0.364152,1.348356 0.455021,0 0.561269,0.187124 0.561269,0.988419 0,1.074751 -1.227132,3.221845 -1.841394,3.221845 -0.756849,0 -1.29856,0.892867 -1.119824,1.845748 0.241156,1.285701 -0.281112,1.45041 -0.843115,0.265903 -0.463326,-0.976559 -1.292067,-1.316785 -1.67965,-0.689555 -0.293183,0.474456 0.09546,0.658228 0.566031,0.267642 0.552201,-0.458363 0.557537,-0.09537 0.0064,0.455584 -0.304754,0.304805 -0.371534,0.730875 -0.241771,1.542524 0.14071,0.880084 0.05611,1.288025 -0.393099,1.895725 -0.538518,0.728509 -0.572735,1.175755 -0.578357,7.559666 -0.0032,3.731935 0.08571,6.785348 0.197827,6.785348 0.112083,0 0.632198,-0.442079 1.155813,-0.982393 0.523606,-0.540325 1.125702,-0.982404 1.337965,-0.982404 0.212273,0 0.575387,-0.189457 0.806912,-0.421021 0.590715,-0.59081 1.50342,-0.539688 1.50342,0.08423 0,0.575047 0.513889,1.178874 1.003287,1.178874 0.181355,0 0.417186,-0.410497 0.52405,-0.912218 l 0.194306,-0.912228 0.657028,1.332411 c 0.361374,0.732817 0.984301,1.721395 1.384295,2.196838 0.872473,1.037048 0.918326,2.013087 0.175945,3.74527 -0.485823,1.133576 -0.654832,1.286349 -1.422998,1.286349 -0.608014,0 -1.274418,-0.339622 -2.202981,-1.122733 -0.732209,-0.617502 -1.607302,-1.122734 -1.944662,-1.122734 -0.337361,0 -0.613371,-0.102478 -0.613371,-0.227765 0,-0.125266 -0.25521,-0.501731 -0.567135,-0.8366 -0.311925,-0.334859 -0.564494,-0.674449 -0.56128,-0.754628 0.02917,-0.72608 -0.02599,-0.811596 -0.274781,-0.426484 -0.219985,0.340459 -0.27287,0.300179 -0.276338,-0.210516 -0.0032,-0.427652 -0.173284,-0.631537 -0.527731,-0.631537 -0.28789,0 -0.824606,-0.235255 -1.192714,-0.522789 -0.368109,-0.287534 -1.237571,-0.809729 -1.932158,-1.160447 -1.570348,-0.792903 -1.67422,-0.952922 -1.679535,-2.587253 -0.0032,-0.996088 -0.206917,-1.620528 -0.823724,-2.525256 -0.935287,-1.371896 -0.906893,-1.620423 0.10908,-0.95462 0.744779,0.488077 0.959704,0.267844 0.359549,-0.368424 -0.280634,-0.297527 -0.280634,-0.39764 0,-0.500553 0.192939,-0.07076 0.3508,-0.5045 0.3508,-0.963882 0,-0.48534 -0.117556,-0.762552 -0.280635,-0.66175 -0.15435,0.09537 -0.282576,0.450205 -0.284941,0.788448 -0.0032,0.499959 -0.05515,0.53623 -0.276339,0.193945 -0.14962,-0.231563 -0.273975,-0.831529 -0.276339,-1.333249 -0.0032,-0.606458 -0.140265,-0.912228 -0.409943,-0.912228 -0.223104,0 -0.571357,-0.345796 -0.773894,-0.76844 -0.500355,-1.044135 -1.04373,-1.07786 -2.082084,-0.129233 -1.027312,0.938537 -1.509232,1.757049 -1.509232,2.56333 0,1.007811 -0.74726,0.628015 -1.224746,-0.622466 -0.252496,-0.661263 -0.459084,-1.366836 -0.459084,-1.567943 0,-0.739256 -1.77472,-2.282087 -2.6251,-2.282087 -1.280857,0 -2.99357,-0.609312 -3.294728,-1.172127 -0.321589,-0.600974 -0.815494,-0.678989 -0.815494,-0.128798 0,0.678066 1.146872,1.910842 1.502825,1.615383 0.398487,-0.330763 1.303566,0.266667 1.303566,0.860469 0,0.821494 -2.427559,2.473965 -3.634369,2.473965 -0.329745,0 -0.575207,-0.183645 -0.575207,-0.430357 0,-0.589028 -1.208836,-2.928445 -1.954559,-3.782581 l -0.610305,-0.699028 0.151974,0.719079 c 0.26621,1.259615 1.501723,3.745525 2.254116,4.535415 0.623946,0.655035 0.832051,0.723725 1.464196,0.483346 0.405286,-0.15411 0.786048,-0.231032 0.846137,-0.170935 0.276784,0.27683 -0.565502,1.692582 -1.852872,3.114359 l -1.412975,1.560516 0.177399,1.697494 c 0.16536,1.58238 0.125659,1.751491 -0.585495,2.493898 -0.419585,0.438026 -0.728614,0.969525 -0.686728,1.181112 0.117789,0.595033 -1.057509,2.650299 -1.890164,3.305366 -0.411003,0.323348 -1.087517,0.587904 -1.503367,0.587904 -0.631773,0 -0.853518,-0.219236 -1.34855,-1.333249 -1.151654,-2.591688 -1.51272,-4.126149 -1.178065,-5.006509 0.317143,-0.834298 -0.0821,-3.041935 -0.609033,-3.367649 -0.133179,-0.08232 -0.242142,-0.553469 -0.242142,-1.046989 0,-1.242599 -0.991238,-1.671895 -3.089869,-1.338193 -1.810847,0.287948 -2.184048,0.134124 -3.137833,-1.293308 -1.135681,-1.699668 -0.867785,-4.218231 0.588943,-5.536766 0.322999,-0.292361 0.587267,-0.745016 0.587267,-1.005923 0,-1.019247 1.302739,-1.61307 4.119631,-1.877828 1.324101,-0.124448 1.441115,-0.08901 1.313728,0.398245 -0.108106,0.413446 0.124183,0.653942 1.023333,1.059464 0.881372,0.397513 1.21414,0.442121 1.37356,0.184143 0.161097,-0.260705 0.546346,-0.268396 1.644659,-0.03278 1.684754,0.361369 2.456028,0.07935 2.65691,-0.971679 0.122286,-0.639854 0.03998,-0.702922 -1.018051,-0.780385 -0.87852,-0.06429 -1.216708,-0.233834 -1.428133,-0.715822 -0.379883,-0.866017 -0.926218,-0.79336 -1.055155,0.140351 l -0.106587,0.771877 -0.448806,-0.982393 c -0.477635,-1.045493 -1.838679,-2.401412 -2.124023,-2.116021 -0.09398,0.09399 0.180707,0.497105 0.610517,0.895721 0.48715,0.451775 0.68223,0.824008 0.517952,0.988302 -0.164269,0.164305 -0.653677,-0.115389 -1.29944,-0.742608 l -1.035904,-1.006167 -0.870522,0.499185 c -0.478781,0.274559 -1.116694,0.909692 -1.417578,1.411413 -0.368088,0.613789 -0.762099,0.912228 -1.20437,0.912228 -0.76682,0 -1.084748,-0.405798 -1.1428,-1.458653 -0.03733,-0.676369 0.06651,-0.766 0.974734,-0.842053 1.139108,-0.09537 1.468056,-0.720754 0.754516,-1.434412 -0.576364,-0.576457 -0.553061,-0.665336 0.225787,-0.860841 0.925253,-0.232263 2.983005,-2.179683 3.009691,-2.848318 0.01719,-0.430929 0.08486,-0.383583 0.302305,0.211492 0.238505,0.652743 0.41251,0.751286 1.170557,0.662917 0.489727,-0.05707 1.039753,-0.117925 1.222296,-0.135185 0.182532,-0.01729 0.412054,-0.28399 0.510029,-0.592741 0.098,-0.308751 0.359061,-0.561362 0.580181,-0.561362 0.221131,0 0.370474,-0.154895 0.331887,-0.344194 -0.03861,-0.189309 0.213992,-0.387551 0.56128,-0.440551 0.347288,-0.05304 0.631434,-0.230407 0.631434,-0.394245 0,-0.183687 -0.376553,-0.236772 -0.982233,-0.138463 -0.890674,0.144552 -0.982232,0.09749 -0.982232,-0.504595 0,-0.36521 0.206567,-0.870622 0.459041,-1.123137 0.29121,-0.291257 0.361183,-0.557001 0.191369,-0.726833 -0.372767,-0.372827 -2.077004,1.77657 -1.784257,2.250315 0.225957,0.365666 -0.366231,1.836349 -0.863086,2.143476 -0.152664,0.09442 -0.42493,-0.218896 -0.605033,-0.696132 -0.339684,-0.900071 -0.606795,-1.071239 -0.908845,-0.58244 -0.301625,0.48812 -0.698766,0.0011 -0.698766,-0.856725 0,-0.562337 0.218331,-0.962088 0.696656,-1.275549 0.38316,-0.251104 0.96979,-0.898565 1.303629,-1.438815 0.719491,-1.16434 2.054453,-2.044658 3.102873,-2.046122 1.012578,-0.0011 4.204283,1.404624 4.072738,1.794148 -0.05759,0.170468 -0.409254,0.316601 -0.78151,0.324759 -0.80564,0.01761 -1.030281,0.439427 -0.434285,0.815425 0.300003,0.189278 0.583024,0.126942 0.955843,-0.210505 0.291295,-0.263675 0.662819,-0.4794 0.825612,-0.4794 0.162784,0 0.387223,-0.284192 0.498765,-0.631537 0.170663,-0.531487 0.223474,-0.554222 0.333339,-0.14347 0.119306,0.446026 0.200427,0.451935 0.941641,0.06853 0.446091,-0.230725 1.315806,-0.439279 1.932687,-0.463456 0.677011,-0.02652 1.154084,-0.192163 1.203565,-0.417849 0.06725,-0.306894 0.219423,-0.302163 0.848969,0.02642 0.762247,0.397852 1.268828,0.166161 0.909194,-0.415834 -0.237157,-0.383796 0.654122,-1.738952 1.002195,-1.5238 0.147572,0.09123 0.26831,0.600475 0.26831,1.131687 0,0.531202 0.126284,0.965823 0.280635,0.965823 0.15435,0 0.280645,-0.446524 0.280645,-0.99227 0,-0.854136 0.06841,-0.957102 0.491117,-0.739638 0.668896,0.344078 1.198834,0.109692 0.988935,-0.4374 -0.107796,-0.280946 -0.05887,-0.378853 0.130762,-0.261639 0.365764,0.226089 1.195567,-0.05559 1.195567,-0.405925 0,-0.137858 -1.473933,-0.250648 -3.275403,-0.250648 -3.568353,0 -4.301835,0.270635 -4.301835,1.58726 0,0.733453 -0.332417,0.851187 -0.802797,0.28433 -0.230189,-0.277402 -0.205146,-0.512816 0.09705,-0.912228 0.224006,-0.296084 0.41129,-0.633075 0.4162,-0.748857 0.0053,-0.115781 -4.491918,-0.210505 -9.992957,-0.210505 -11.075755,0 -10.733219,-0.05814 -10.759068,1.824446 -0.01061,0.772917 -0.197849,0.931663 -2.280729,1.93364 -2.041693,0.982159 -2.321765,1.214295 -2.793779,2.315642 -0.288526,0.673228 -0.627276,1.224056 -0.752775,1.224056 -0.548914,0 -1.411809,-0.889632 -1.888585,-1.947081 -0.430117,-0.953994 -0.459869,-1.270298 -0.17776,-1.889561 0.186352,-0.409065 0.237646,-0.818364 0.113982,-0.909544 -0.123655,-0.09113 -0.502233,-0.671022 -0.841279,-1.288524 l -0.616436,-1.122734 h -2.189945 c -2.151071,0 -2.191451,0.01294 -2.274874,0.731714 -0.06831,0.588349 0.08295,0.801242 0.771762,1.086611 0.471176,0.195197 0.857476,0.56063 0.858452,0.812052 9.76e-4,0.251433 0.388017,0.677005 0.860095,0.94573 0.974426,0.554667 0.856128,1.144895 -0.177474,0.885442 -0.739283,-0.185586 -0.963129,0.283386 -0.263441,0.55193 0.460962,0.176908 0.568578,0.896846 0.170823,1.14272 -0.327273,0.202294 -2.836885,-0.910011 -2.836885,-1.257366 0,-0.147151 0.189426,-0.267548 0.420962,-0.267548 0.231525,0 0.420952,-0.05283 0.420952,-0.117383 0,-0.06461 0.07033,-0.300678 0.156282,-0.524709 0.104371,-0.272109 -0.228397,-0.607859 -1.002567,-1.011439 -0.637352,-0.33227 -1.079093,-0.475072 -0.981628,-0.317344 0.09747,0.157728 0.05696,0.28677 -0.08995,0.28677 -0.146947,0 -0.342388,0.196024 -0.434306,0.435608 -0.09588,0.249788 -0.04879,0.362451 0.1103,0.26412 0.152579,-0.09431 0.277421,-0.03777 0.277421,0.125765 0,0.163488 -0.126284,0.297251 -0.280645,0.297251 -0.394033,0 -0.357291,4.829272 0.04423,5.805926 0.286627,0.697267 0.339661,0.72416 0.451149,0.228784 0.06948,-0.308751 0.253153,-0.717615 0.408129,-0.908579 0.154976,-0.190965 0.202123,-0.664625 0.104795,-1.052569 -0.239576,-0.954705 0.08178,-2.108776 0.587299,-2.108776 0.226667,0 0.790981,0.378927 1.254032,0.842053 0.857899,0.858029 1.360015,1.065288 1.360015,0.561372 0,-0.581093 0.452412,-0.245832 0.973037,0.721062 0.296662,0.550965 0.767392,1.123795 1.046054,1.272961 0.568992,0.304561 0.669013,0.960009 0.191537,1.25516 -0.173314,0.107125 -0.899467,0.355906 -1.613666,0.552832 -0.71421,0.196927 -1.077545,0.369337 -0.807432,0.383149 0.270113,0.01379 0.491115,0.218631 0.491115,0.45517 0,0.236538 0.279469,0.533461 0.62104,0.65984 l 0.621039,0.229781 -0.602594,0.322542 c -0.741469,0.396898 -1.008028,0.411198 -0.779802,0.0419 0.09535,-0.154375 0.0157,-0.280681 -0.177091,-0.280681 -0.431962,0 -2.488982,2.234636 -2.488982,2.703905 0,0.187304 -0.342526,0.74769 -0.761166,1.245304 -0.56914,0.676486 -0.740037,1.150167 -0.677382,1.877521 0.05558,0.645285 -0.01888,0.909321 -0.221057,0.784321 -0.211267,-0.130591 -0.30486,0.635292 -0.30486,2.494619 v 2.683069 h 0.711472 c 0.391307,0 1.000964,-0.189712 1.354797,-0.421594 0.881977,-0.577985 2.951152,-0.173842 4.112068,0.803162 0.48438,0.407644 1.045438,0.741166 1.246809,0.741166 0.201359,0 0.700134,0.438005 1.10839,0.973344 0.493216,0.646738 1.140019,1.085699 1.927617,1.308191 0.651937,0.184175 1.437911,0.571143 1.746623,0.859929 0.560771,0.524592 0.560707,0.526045 -0.07011,1.624422 -0.347287,0.604644 -0.631434,1.404655 -0.631434,1.777778 0,0.802218 -0.98867,2.157554 -1.573859,2.157554 -0.225808,0 -0.652901,0.536803 -0.949107,1.192909 -0.694077,1.537432 -1.23268,2.198281 -1.873491,2.298722 -0.283095,0.04434 -0.481368,0.271027 -0.440596,0.503662 0.04073,0.232645 -0.377963,0.767856 -0.930514,1.189376 -0.55254,0.421509 -0.937641,0.833375 -0.855778,0.915252 0.08189,0.0819 -0.02663,0.399401 -0.241039,0.705595 -0.214428,0.306194 -0.326658,0.721476 -0.249399,0.922847 0.07722,0.201372 -0.07308,0.692101 -0.334093,1.090516 -0.441784,0.674363 -0.44258,0.773182 -0.01156,1.431145 0.397448,0.606691 0.405127,0.728987 0.0542,0.863673 -0.546601,0.209783 -1.487096,-0.319901 -1.883546,-1.060801 -0.357471,-0.668041 -0.19036,-3.047982 0.439822,-6.263663 0.211764,-1.080629 0.465787,-2.67871 0.564494,-3.551272 0.176805,-1.563137 0.163408,-1.602388 -0.910362,-2.666499 -0.59939,-0.594015 -1.312294,-1.66326 -1.584211,-2.376111 -0.483362,-1.267148 -0.480965,-1.325611 0.10751,-2.617604 0.458353,-1.006315 0.526109,-1.412888 0.284062,-1.70458 -0.174821,-0.210686 -0.498064,-0.313907 -0.718304,-0.229378 -0.335896,0.128915 -0.400152,1.675725 -0.398668,9.596749 l 0.0021,9.443064 0.864964,0.492395 c 0.475736,0.270815 1.007339,0.869635 1.181354,1.330714 l 0.316369,0.838319 14.178033,0.07267 c 13.096012,0.06715 14.185045,0.109183 14.270016,0.550668 0.07817,0.40618 -0.195207,0.490486 -1.82034,0.561372 l -1.912344,0.08338 v 0.842053 0.842053 l 2.23181,0.08296 c 2.053371,0.07638 2.959999,0.352818 2.959999,0.902574 0,0.118317 -0.157861,0.209264 -0.350798,0.202093 -0.192939,-0.0074 -6.935611,0.0064 -14.983727,0.03119 l -14.632938,0.04424 -0.178268,0.710422 c -0.098,0.390724 -0.585315,0.965059 -1.082817,1.276303 -0.769259,0.481246 -1.29192,0.553405 -3.494518,0.482487 -2.402135,-0.07734 -2.646388,-0.13981 -3.367661,-0.861201 -0.722016,-0.722134 -0.783398,-0.963255 -0.857412,-3.368211 -0.09154,-2.974051 0.19247,-3.783907 1.548286,-4.41485 l 0.904718,-0.421021 0.0064,-10.964879 0.0064,-10.964869 -0.982232,-0.468473 c -0.540226,-0.25765 -0.982233,-0.642379 -0.982233,-0.854932 0,-0.5413 -2.075996,-3.638601 -2.196489,-3.277073 -0.0542,0.162597 0.17481,0.758977 0.508882,1.325283 0.442685,0.750405 0.48157,0.925191 0.143383,0.644479 -0.255221,-0.211853 -0.768431,-0.985979 -1.140475,-1.720281 -0.372035,-0.734312 -0.874458,-1.445944 -1.116484,-1.581415 -0.59327,-0.332058 -1.22289,-2.182887 -1.237994,-3.639206 -0.01266,-1.21097 -1.269662,-3.587707 -2.434426,-4.602891 C 10.769503,33.877205 8.6634902,33.579349 7.4698632,34.723098 6.5093852,35.643442 6.3626083,35.65805 6.2067731,34.848809 6.1398442,34.501454 6.0679512,46.892121 6.0469286,62.383611 6.0042891,93.779655 5.8815472,91.780391 7.9381222,93.178098 l 1.007265,0.684569 40.9782188,-0.001 c 40.394801,-10e-4 40.991244,-0.0085 41.892865,-0.558805 z m -9.391574,-6.539804 c -2.690671,-2.691121 -3.450193,-3.615793 -3.450193,-4.200387 0,-1.101198 -0.816543,-1.432566 -1.843612,-0.748178 -1.408965,0.938867 -4.227628,1.66291 -6.47364,1.66291 -5.967581,0 -10.800975,-4.115105 -11.911105,-10.140989 -1.149671,-6.240494 3.598454,-12.657132 10.203207,-13.78866 3.535948,-0.605779 7.175664,0.603817 10.040403,3.336757 3.894151,3.714993 4.8709,9.243899 2.488218,14.084596 -0.836399,1.699254 -0.852447,1.796556 -0.381908,2.316576 0.270145,0.298556 0.77207,0.542818 1.11538,0.542818 0.784108,0 7.07614,5.936612 7.319386,6.905925 0.431273,1.718615 -0.886082,3.479399 -2.603165,3.479399 -0.972422,0 -1.316093,-0.263378 -4.502971,-3.450767 z m -8.693625,-7.10073 c 1.579598,-0.538309 3.940121,-2.589342 4.704309,-4.087533 1.766119,-3.462447 1.014627,-7.589444 -1.89342,-10.398193 -4.180175,-4.037419 -11.244849,-2.65153 -13.733555,2.694145 -0.976368,2.097191 -0.953532,5.388543 0.05144,7.405471 0.872888,1.751947 3.063193,3.794122 4.685589,4.368691 1.582758,0.560534 4.567323,0.568947 6.185688,0.0174 z M 86.984147,67.778488 c -0.207543,-0.335867 0.320379,-0.668657 0.694185,-0.437592 0.313854,0.194009 0.107817,0.69888 -0.285218,0.69888 -0.136128,0 -0.320167,-0.117574 -0.408967,-0.261288 z M 60.082328,61.96295 c -0.443503,-0.443574 -0.164247,-2.06371 0.48595,-2.819251 0.372745,-0.433146 0.746952,-0.718505 0.831574,-0.634146 0.193447,0.192863 -0.553442,3.072795 -0.882179,3.401585 -0.133963,0.133986 -0.329871,0.157304 -0.435345,0.05177 z m 27.586701,-4.735216 c -0.255868,-0.308359 -0.611535,-0.386215 -1.186912,-0.259814 -0.643664,0.141391 -0.911135,0.05262 -1.235194,-0.410147 -0.227495,-0.324855 -0.79933,-0.790124 -1.270749,-1.03394 -0.648755,-0.335538 -0.778222,-0.522227 -0.532558,-0.767931 0.245675,-0.245715 0.378356,-0.237589 0.545806,0.03342 0.121681,0.196915 0.419891,0.281773 0.662703,0.188588 0.619098,-0.23761 2.559422,0.813844 3.141502,1.702362 0.54083,0.825546 0.447268,1.236659 -0.124598,0.547496 z m -7.503244,-1.581076 c -0.410611,-0.410677 0.04932,-1.360418 0.658767,-1.360418 0.272383,0 0.347755,0.127388 0.207607,0.350857 -0.121013,0.192969 -0.183678,0.571895 -0.139235,0.842052 0.09249,0.562412 -0.252782,0.641955 -0.727139,0.167509 z M 69.584562,52.340847 c -0.08878,-0.143714 -0.0331,-0.34063 0.123761,-0.437592 0.156863,-0.09696 0.285216,0.02058 0.285216,0.261288 0,0.493032 -0.168404,0.565626 -0.408977,0.176304 z m 11.704696,0.02992 c -0.275427,-0.174914 -0.262275,-0.339802 0.0612,-0.767581 0.226604,-0.299649 0.416031,-0.397269 0.420931,-0.216923 0.0053,0.180345 0.0856,0.527689 0.179276,0.771887 0.183763,0.478944 -0.09896,0.569827 -0.66144,0.212617 z m -0.912101,-2.996513 c 0,-0.231564 0.126284,-0.421021 0.280645,-0.421021 0.154351,0 0.280635,0.189457 0.280635,0.421021 0,0.231563 -0.126284,0.421031 -0.280635,0.421031 -0.154361,0 -0.280645,-0.189468 -0.280645,-0.421031 z M 27.126026,48.32997 c -0.655755,-0.316304 -0.85336,-0.780162 -0.332354,-0.780162 0.479842,0 1.38474,0.556715 1.38474,0.851929 0,0.33558 -0.242143,0.319063 -1.052386,-0.07171 z m 56.117133,-4.110342 c 0.04815,-0.250128 0.427305,-0.617639 0.84253,-0.816687 0.415235,-0.199048 1.015315,-0.69294 1.33353,-1.097549 0.682336,-0.867598 0.856808,-0.796076 0.652531,0.267505 -0.113991,0.593494 -0.476129,0.933572 -1.532705,1.439313 -1.16328,0.556811 -1.369519,0.589824 -1.295886,0.207418 z m 2.628451,-3.089949 c -0.07934,-0.12848 0.01613,-0.453069 0.212232,-0.721317 0.299515,-0.40968 0.408054,-0.425678 0.678337,-0.09993 0.250256,0.30159 0.203088,0.461896 -0.212232,0.721306 -0.293702,0.183454 -0.598955,0.228434 -0.678337,0.09993 z m 0.475387,-3.123132 c 0,-0.6947 0.05473,-0.978893 0.121628,-0.631537 0.06693,0.347345 0.06693,0.915729 0,1.263074 -0.06693,0.347344 -0.121628,0.06312 -0.121628,-0.631537 z M 47.031734,37.305969 c 0.260397,-0.571609 0.232215,-0.796637 -0.153099,-1.222485 -0.428896,-0.47399 -0.38632,-1.454982 0.06247,-1.438539 0.287413,0.01061 1.45291,2.838314 1.283106,3.113118 -0.08443,0.13667 -0.459105,0.248484 -0.83256,0.248484 -0.622143,0 -0.652287,-0.05867 -0.359868,-0.700578 z m -1.453737,-0.422156 c 0,-0.374248 0.187093,-0.561372 0.56128,-0.561372 0.636122,0 0.719269,0.291067 0.224505,0.785913 -0.494766,0.494845 -0.785785,0.411685 -0.785785,-0.224541 z M 26.494581,32.095607 c 0,-0.163488 0.126295,-0.219183 0.280646,-0.12377 0.15435,0.09537 0.280634,0.229166 0.280634,0.297251 0,0.06811 -0.126284,0.12377 -0.280634,0.12377 -0.154351,0 -0.280646,-0.133763 -0.280646,-0.297251 z M 42.100047,31.94888 c -0.09365,-0.244198 -0.170346,-0.469969 -0.170346,-0.501731 0,-0.03172 0.501904,-0.07776 1.115359,-0.102266 1.169921,-0.04668 1.754281,0.377027 1.095545,0.794336 -0.63644,0.403177 -1.856498,0.289347 -2.040558,-0.190381 z M 26.47201,78.59262 c 0.207257,-0.249768 0.296821,-1.25081 0.244848,-2.736674 l -0.08199,-2.342843 -2.43999,-0.08084 c -2.258751,-0.0749 -2.464184,-0.03564 -2.76581,0.52804 -0.458521,0.856883 -0.230358,4.419178 0.304734,4.757675 0.67507,0.427036 4.360713,0.329554 4.738167,-0.125329 z m 10.986997,-2.015516 c 0.267694,-0.322606 0.287974,-0.572851 0.07393,-0.912229 -0.242789,-0.384962 -0.78518,-0.467666 -3.066905,-0.467666 -2.450947,0 -2.783279,0.05877 -2.869692,0.507586 -0.225364,1.170377 0.09206,1.316859 2.853263,1.316859 2.066863,0 2.720645,-0.09654 3.009394,-0.44455 z M 48.24406,76.039261 v -0.842052 l -2.854588,-0.07978 c -2.681146,-0.0749 -2.865864,-0.04424 -3.040049,0.50467 -0.366539,1.155036 0.280136,1.425554 3.200784,1.339009 l 2.693853,-0.07978 z M 24.75463,68.825678 c 0.210185,-0.210219 0.336766,-1.252328 0.336766,-2.772478 0,-2.627194 -0.30659,-3.273519 -1.389725,-2.929686 -0.527551,0.167456 -0.574751,0.407548 -0.574751,2.923586 0,1.507632 0.08422,2.825351 0.187093,2.928275 0.297851,0.297898 1.073696,0.217273 1.440617,-0.149697 z m 0,-10.385325 c 0.210185,-0.210219 0.336766,-1.252316 0.336766,-2.772467 0,-2.614464 -0.3073,-3.273296 -1.369465,-2.936125 -0.485633,0.154163 -0.566532,0.479389 -0.651598,2.619513 -0.05346,1.343932 0.0053,2.664547 0.129933,2.934704 0.26167,0.566103 1.06312,0.645699 1.554364,0.154375 z m 53.768351,-0.107157 c 0.270241,-0.704332 0.197754,-4.219026 -0.10331,-5.011091 -0.291359,-0.766446 -1.069145,-0.948754 -1.634646,-0.38316 -0.358437,0.358495 -0.489611,5.311123 -0.149684,5.651116 0.367918,0.367968 1.718452,0.184196 1.887672,-0.256865 z M 24.75463,48.055039 c 0.213547,-0.213581 0.336766,-1.289955 0.336766,-2.941832 0,-2.56436 -0.01124,-2.607844 -0.722143,-2.78629 -0.403313,-0.101206 -0.859279,-0.04413 -1.032763,0.129381 -0.305094,0.305155 -0.336925,5.221693 -0.03691,5.707161 0.210195,0.340152 1.070683,0.276044 1.455084,-0.10842 z M 78.419639,47.67188 c 0.361958,-0.95219 0.350756,-4.225222 -0.01687,-4.912156 -0.327411,-0.61188 -1.112156,-0.711844 -1.617825,-0.206092 -0.209718,0.209752 -0.336766,1.247479 -0.336766,2.750698 0,1.50323 0.127048,2.540957 0.336766,2.750709 0.565502,0.565605 1.343288,0.383287 1.634647,-0.383159 z M 24.787724,37.613278 c 0.208434,-0.2512 0.296894,-1.279868 0.244837,-2.847353 -0.08539,-2.570343 -0.425281,-3.23953 -1.446536,-2.847566 -0.382471,0.146791 -0.459105,0.642273 -0.459105,2.96846 0,2.762368 0.08878,3.032494 1.018042,3.097566 0.174036,0.0122 0.463284,-0.15481 0.642762,-0.371107 z m 53.615093,-0.149644 c 0.15978,-0.29861 0.29051,-1.443685 0.29051,-2.544618 0,-2.188743 -0.313315,-3.087519 -1.076294,-3.087519 -0.940294,0 -1.168806,0.603647 -1.168806,3.087519 0,1.50322 0.127048,2.540958 0.336766,2.75071 0.505668,0.505751 1.290413,0.405787 1.617824,-0.206092 z M 6.2113658,30.643606 c -0.062474,-0.504479 -0.1148504,-0.159394 -0.1164203,0.766859 -0.00106,0.926263 0.049534,1.33902 0.1135565,0.917246 0.064065,-0.421764 0.065338,-1.179616 0.00318,-1.684105 z M 22.00437,29.806465 c 0,-0.534066 -0.692413,-0.68946 -0.982232,-0.220446 -0.19908,0.32216 -2.945754,0.375892 -3.367661,0.06588 -0.154351,-0.113416 -0.421122,-0.45883 -0.592825,-0.767581 -0.216581,-0.389439 -0.603348,-0.561372 -1.262879,-0.561372 -0.794789,0 -0.935329,-0.09208 -0.857061,-0.561361 0.161594,-0.969069 0.480615,-1.031277 2.243201,-0.437411 2.270928,0.765151 2.529235,0.748909 2.357766,-0.148191 -0.125478,-0.65651 -0.229468,-0.708916 -1.087304,-0.547963 -0.713593,0.133901 -0.989827,0.07034 -1.115231,-0.256451 -0.09949,-0.259219 -0.507981,-0.43443 -1.012929,-0.43443 -0.720404,0 -0.794302,-0.06259 -0.496886,-0.421032 0.384083,-0.462861 1.541657,-0.5915 1.262867,-0.14034 -0.100764,0.163117 0.17653,0.280681 0.662087,0.280681 0.45954,0 1.035278,0.0767 1.279436,0.170373 0.371366,0.142536 0.443906,-0.07999 0.443906,-1.361532 0,-2.045634 0.450046,-3.227839 1.419678,-3.729347 1.099968,-0.568904 5.562516,-0.56918 6.314402,-3.92e-4 0.29961,0.226651 1.113046,0.417838 1.807622,0.424861 0.694587,0.0074 1.558448,0.09187 1.919705,0.188641 l 0.656827,0.17589 -0.797144,0.652234 c -0.985256,0.806153 -0.576809,0.857308 0.886686,0.111061 0.638965,-0.32582 1.65497,-0.561362 2.421374,-0.561362 0.726259,0 1.362562,-0.120831 1.414015,-0.268502 0.05144,-0.147681 1.031692,-0.413521 2.17832,-0.590768 2.266472,-0.350358 4.116607,-0.04243 4.414765,0.734641 0.103841,0.270539 0.588762,0.40862 1.45852,0.41525 1.27128,0.0095 1.285927,0.01973 0.601406,0.411081 -0.614907,0.351578 1.118711,0.401618 14.031925,0.405013 l 14.733512,0.0042 0.420962,-0.904876 c 0.593642,-1.276059 1.457174,-1.600245 4.275307,-1.604998 2.31414,-0.0042 2.50239,0.04159 3.367661,0.814545 0.900476,0.804371 0.91821,0.866961 1.014308,3.578727 0.07064,1.992612 0.207161,2.822444 0.491116,2.9845 0.216315,0.123451 0.39331,0.407644 0.39331,0.631537 0,0.625882 2.413516,0.557807 2.769332,-0.07808 0.242927,-0.434144 0.399378,-0.447245 1.487297,-0.124576 0.668706,0.198326 1.687087,0.462426 2.26309,0.586896 0.575992,0.124459 1.207425,0.352532 1.403184,0.506823 0.195759,0.154301 0.955801,0.358728 1.688965,0.454289 l 1.333031,0.173747 0.06046,-9.187037 c 0.0332,-5.052879 0.04083,-9.661599 0.01687,-10.241621 -0.06057,-1.4643599 -1.066483,-3.1177009 -2.32848,-3.8271043 L 90.53415,6.0033546 49.694827,6.0763414 8.8555052,6.1493281 8.0632082,6.7365107 C 7.6274392,7.0594559 6.9867658,7.7412451 6.6394672,8.2516111 6.0142383,9.1704171 6.0080333,9.2763431 6.0080333,19.04127 v 9.86175 l 1.4512129,0.06312 c 0.798173,0.03469 1.903179,0.180504 2.455593,0.323942 0.5524018,0.143428 2.2258158,0.24684 3.7187138,0.229802 2.060881,-0.02355 2.871612,0.07659 3.36765,0.415898 0.473827,0.324101 1.250882,0.436626 2.828274,0.409553 1.88677,-0.03236 2.174946,-0.103752 2.174946,-0.538458 z m 4.630539,-4.992082 v -2.666498 l -2.34247,-0.082 c -1.485622,-0.05198 -2.486501,0.03755 -2.736228,0.244876 -0.476012,0.395126 -0.548276,3.935832 -0.09747,4.778214 0.265595,0.496352 0.548617,0.545247 2.736228,0.472748 l 2.43999,-0.08084 z m 53.451738,2.263926 c 0.159781,-0.298598 0.29051,-1.317368 0.29051,-2.263926 0,-2.631915 -0.172011,-2.806839 -2.760124,-2.806839 -1.320674,0 -2.311775,0.132681 -2.515871,0.336821 -0.357057,0.357105 -0.486322,4.753039 -0.149683,5.089744 0.102885,0.102903 1.235046,0.187124 2.515881,0.187124 2.015166,0 2.367896,-0.07309 2.619287,-0.542924 z M 37.383359,25.600306 c 0.505669,-0.505762 0.405721,-1.290624 -0.206069,-1.618099 -0.763276,-0.408567 -4.875621,-0.372636 -5.294451,0.04625 -0.441508,0.441581 -0.432536,1.542535 0.014,1.722763 0.750209,0.302757 5.153985,0.181618 5.486487,-0.150927 z m 10.664253,0 c 0.481146,-0.481224 0.416031,-1.537495 -0.10714,-1.738283 -0.733662,-0.281583 -4.604266,-0.191898 -5.187312,0.120184 -0.611779,0.327475 -0.711726,1.112337 -0.206058,1.618099 0.209718,0.209752 1.247286,0.336821 2.75026,0.336821 1.502974,0 2.540532,-0.127069 2.75025,-0.336821 z m 10.73884,0.04625 c 0.611779,-0.327464 0.711737,-1.112337 0.206058,-1.618088 -0.209718,-0.209752 -1.247275,-0.336821 -2.75025,-0.336821 -1.502973,0 -2.540542,0.127069 -2.75026,0.336821 -0.363006,0.363066 -0.454596,1.416547 -0.149672,1.721532 0.301181,0.30123 4.84957,0.214813 5.444124,-0.103433 z m 10.944898,0 c 0.298549,-0.159807 0.542824,-0.534288 0.542824,-0.832176 0,-0.82858 -0.87224,-1.122733 -3.329158,-1.122733 -1.665375,0 -2.357161,0.11366 -2.68452,0.441071 -0.527327,0.527414 -0.561608,1.010134 -0.104265,1.467585 0.419882,0.41995 4.808915,0.456369 5.575087,0.04625 z"
       id="path3"
       sodipodi:nodetypes="sscccsscccssssssscsscscssscssssssssssscsscssssssscsssssssssscsssssssssscscsssssssssssssscssssscsssssssssssssssssssssscssssscssssssssssssssssssssssssssscsssssssssssssssssssssssscssssssssscssssssssssssssssssssssssssssssssscsssssssscssssssssssssssssssssssssssssccsscssscccssccccssssscccssssssssssssscsccssssssssssssscsssssccssssssssssssssssssssssssssssssscssssssssssssssssssssssssssssscscssccsssssssssssssssssccsssssssssssccsssccsssscssssscsssssssssssssssssssssssssssssssssccsccsssssssssssssssssscscsssssscsccscsssssssssccsscccssscsssssssccssssccsssssssssssssssssssssssssssssssss" /></g></svg>
