<?xml version="1.0" encoding="UTF-8" standalone="no"?>
<!-- Created with Inkscape (http://www.inkscape.org/) -->

<svg
   width="100mm"
   height="100mm"
   viewBox="0 0 99.999998 99.999998"
   version="1.1"
   id="svg1"
   inkscape:version="1.4.3 (fcd0343856, 2026-01-01)"
   sodipodi:docname="favicon-up2.svg"
   xmlns:inkscape="http://www.inkscape.org/namespaces/inkscape"
   xmlns:sodipodi="http://sodipodi.sourceforge.net/DTD/sodipodi-0.dtd"
   xmlns="http://www.w3.org/2000/svg"
   xmlns:svg="http://www.w3.org/2000/svg">
  <sodipodi:namedview
     id="namedview1"
     pagecolor="#ffffff"
     bordercolor="#000000"
     borderopacity="0.25"
     inkscape:showpageshadow="2"
     inkscape:pageopacity="0.0"
     inkscape:pagecheckerboard="0"
     inkscape:deskcolor="#d1d1d1"
     inkscape:document-units="mm"
     inkscape:zoom="1"
     inkscape:cx="380"
     inkscape:cy="296.5"
     inkscape:window-width="1920"
     inkscape:window-height="1011"
     inkscape:window-x="0"
     inkscape:window-y="0"
     inkscape:window-maximized="1"
     inkscape:current-layer="layer1" />
  <defs
     id="defs1">
    <clipPath
       clipPathUnits="userSpaceOnUse"
       id="clipPath3">
      <rect
         style="fill:#cccccc;stroke-width:2;paint-order:markers stroke fill"
         id="rect4"
         width="120.17938"
         height="121.26615"
         x="154.77582"
         y="297.83905" />
    </clipPath>
  </defs>
  <g
     inkscape:label="Layer 1"
     inkscape:groupmode="layer"
     id="layer1"
     transform="translate(-3.96875,-70.37916)">
    <path
       style="fill:#000000;stroke-width:0.930708"
       d="M 48.729266,170.15755 C 43.181571,169.53345 37.465848,167.89667 32.421613,165.48763 18.026735,158.61286 7.6979142,145.15826 4.7382884,129.42658 L 4.2264511,126.70597 4.0976006,122.00827 3.96875,117.31058 4.2627895,114.7446 C 5.6364913,102.75702 11.7956,90.957074 20.745395,83.166342 29.191144,75.814377 38.223463,71.850709 49.221817,70.669987 l 2.709017,-0.290827 3.694111,0.148787 c 12.934342,0.520941 24.424084,5.533519 33.581261,14.650362 8.67694,8.638702 13.669774,19.686141 14.539544,32.171071 l 0.223,3.20093 -0.21264,3.07782 c -0.63474,9.18741 -3.26935,16.94882 -8.31634,24.49949 l -1.97498,2.95471 -2.331867,2.60871 c -7.563378,8.46129 -18.0622,14.20089 -29.474266,16.11329 l -2.339602,0.39206 -4.309797,0.0914 -4.309797,0.0914 z m 25.612501,-8.73024 c 1.489959,-0.74667 2.976296,-1.56551 3.30297,-1.81965 l 0.593961,-0.46209 -1.825325,0.38408 -1.825335,0.38408 -5.910577,0.0124 -5.910576,0.0124 -2.955288,-0.69178 c -1.625409,-0.38048 -5.559628,-1.56217 -8.742729,-2.62599 -3.183083,-1.06382 -6.674018,-2.12529 -7.757627,-2.35884 l -1.970196,-0.42462 -3.817245,0.007 -3.817246,0.007 -1.84705,0.40542 c -1.792571,0.39345 -6.403128,1.83007 -6.403128,1.99516 0,0.045 0.567844,0.49859 1.261885,1.00796 l 1.261875,0.92612 1.631841,-0.45244 c 0.897514,-0.24884 2.407605,-0.59636 3.355755,-0.77226 l 1.723915,-0.31984 2.916604,-0.01 2.916604,-0.01 2.458735,0.50096 c 1.352303,0.27553 4.916064,1.31941 7.919456,2.31974 8.197485,2.73031 13.221959,3.6714 18.390102,3.44449 l 2.339602,-0.10272 z m 1.60078,-4.42251 c 2.983472,-0.49459 5.476693,-1.03817 6.936689,-1.51239 l 1.149249,-0.37328 2.667997,-2.76405 c 1.467396,-1.52022 3.15918,-3.4067 3.759517,-4.19219 l 1.091512,-1.42813 -0.352689,-0.2192 c -0.620834,-0.38583 -4.8759,-1.37786 -7.384591,-1.60832 -1.338406,-0.12295 -2.709082,-0.12142 -4.030157,0.12591 -3.899928,0.73016 -5.598097,1.27231 -11.225748,3.95744 -5.754723,2.74577 -8.722773,3.89155 -12.067424,4.65849 -1.286783,0.29506 -2.672074,0.62059 -3.078423,0.7234 l -0.738823,0.18691 1.970186,0.65134 c 2.605085,0.86122 5.637843,1.61155 8.232568,2.03679 l 2.110941,0.34596 4.309797,-0.10043 4.309797,-0.10041 z m -49.131662,-3.99427 c 0.541799,-0.1966 2.09333,-0.63557 3.44783,-0.97548 l 2.462746,-0.618 3.839976,-0.13949 3.839976,-0.13949 3.424206,0.68281 3.424206,0.68282 2.709911,-0.2926 c 3.382702,-0.36526 8.032734,-1.46166 10.879873,-2.56529 1.195454,-0.4634 3.83804,-1.66899 5.872414,-2.6791 4.431619,-2.20039 8.431274,-3.77939 10.629208,-4.19625 l 1.611474,-0.30564 0.711382,-1.40897 c 0.391271,-0.77494 0.711392,-1.55651 0.711392,-1.73684 0,-0.32069 -1.173822,-2.05615 -2.019295,-2.98548 l -0.425496,-0.46769 1.337409,-1.89742 1.33741,-1.89742 0.06972,-2.83389 0.06972,-2.83389 4.679203,5.05501 c 4.111872,4.44212 9.014784,9.14903 9.538116,9.15682 0.22409,0.004 1.175442,-1.83369 1.173049,-2.2651 -9.3e-4,-0.17468 -0.840511,-0.98241 -1.865638,-1.79495 l -1.863879,-1.47736 -4.51663,-4.92452 c -2.484146,-2.70849 -5.13214,-5.52677 -5.884421,-6.26286 l -1.367782,-1.33835 -0.561691,0.33525 c -0.308932,0.18439 -1.997505,1.83926 -3.752378,3.67749 -1.754883,1.83824 -5.043993,5.24017 -7.309149,7.55986 l -4.118453,4.21761 -2.049266,1.52623 c -2.393039,1.78226 -5.813141,3.52754 -8.082988,4.12474 l -1.60078,0.42118 -2.462737,-0.006 -2.462737,-0.006 -3.817246,-0.83615 -3.817255,-0.83615 -2.955288,0.0144 -2.955288,0.0144 -2.135701,0.52007 c -1.174631,0.28602 -3.09246,0.90578 -4.261833,1.37721 -2.473162,0.99707 -9.487136,4.82014 -9.487136,5.1711 0,0.1314 0.981212,1.21993 2.180473,2.41895 l 2.180462,2.18005 1.32894,-0.52978 c 0.73091,-0.29139 1.772233,-0.69065 2.314032,-0.88726 z m -7.761108,-9.05093 c 2.577867,-0.90047 4.987186,-2.31675 8.81145,-5.17967 3.809687,-2.85202 5.776848,-3.95465 7.708871,-4.32098 l 1.307075,-0.24783 1.192336,0.15814 1.192345,0.15814 1.778413,0.95011 c 0.97814,0.52256 2.72042,1.42198 3.871753,1.99871 l 2.093331,1.04859 h 2.709017 2.709008 l 1.354509,-0.45354 c 0.744984,-0.24945 2.019444,-0.8513 2.832153,-1.33742 l 1.477644,-0.88389 2.585872,-2.60506 2.585882,-2.60507 1.440803,-2.14367 c 0.792436,-1.17902 2.183721,-3.52408 3.091734,-5.21123 l 1.650931,-3.06756 2.166892,1.35178 c 1.191796,0.74348 2.199647,1.317 2.23968,1.27449 0.04002,-0.0425 -0.135831,-2.23793 -0.390805,-4.8787 -0.675072,-6.9917 -0.89326,-8.87552 -1.045641,-9.02787 -0.135655,-0.13563 -10.822499,7.91479 -10.939035,8.2404 -0.03388,0.0945 0.944101,0.4451 2.173184,0.779 1.229084,0.33391 2.283363,0.68583 2.342841,0.78204 0.140439,0.2272 -2.116675,4.52865 -3.521642,6.71133 -1.598164,2.48278 -3.509235,4.79989 -5.280798,6.40274 l -1.558931,1.41048 -1.835713,0.90729 -1.835713,0.90729 H 49.94341 47.929607 l -4.109731,-2.09292 -4.109721,-2.09292 -2.632394,0.01 -2.632385,0.01 -1.970186,0.79147 -1.970195,0.79147 -2.339602,1.71314 c -7.437525,5.44604 -10.78481,7.14933 -14.049747,7.14933 h -0.726694 v 0.26242 c 0,0.3066 0.336391,0.9659 1.169345,2.29181 l 0.599156,0.95376 1.071359,-0.14681 c 0.589252,-0.0808 1.858685,-0.42184 2.820965,-0.75798 z m 29.014051,-14.77232 -0.110746,-1.33518 -1.061652,-1.8042 -1.061651,-1.8042 -0.108429,-1.23112 -0.108419,-1.23114 1.011965,-1.60046 c 1.339541,-2.11854 1.777026,-3.11126 1.922678,-4.36286 l 0.120892,-1.0388 -0.280096,-1.11212 -0.280087,-1.11212 -1.22872,-1.88184 -1.228721,-1.88184 v -0.95714 -0.95714 l 0.985103,-1.93297 0.985093,-1.93299 v -0.64856 -0.64857 h -1.105483 -1.105492 l -0.977982,1.94473 c -0.53789,1.06961 -1.105324,2.45035 -1.260963,3.06832 l -0.282972,1.12359 0.30035,1.25178 0.30036,1.25177 1.131014,1.65089 1.131024,1.65088 0.09038,1.35424 0.09038,1.35424 -1.238577,1.94377 -1.238578,1.94375 -0.277118,1.33461 -0.277108,1.3346 0.283447,1.18132 0.283447,1.18131 1.237824,2.13272 1.237824,2.13271 0.90065,0.47572 c 0.495363,0.26165 0.997501,0.48061 1.115861,0.4866 l 0.215201,0.0109 z m 7.826795,-2.62746 c -0.213851,-0.46132 -0.674578,-1.33737 -1.023842,-1.94678 l -0.635029,-1.10802 0.114842,-1.06962 0.114833,-1.06963 1.167753,-1.70872 c 2.423774,-3.54662 2.446439,-5.38403 0.110625,-8.96848 l -1.051626,-1.61377 -0.09664,-1.15657 c -0.05315,-0.63611 -0.0047,-1.29125 0.108252,-1.45585 l 0.204888,-0.29929 1.33377,0.35177 c 0.733582,0.19348 1.358521,0.32703 1.388762,0.2968 0.101755,-0.10174 -2.955791,-7.55999 -3.095485,-7.550805 -0.175744,0.01154 -4.3992,5.979255 -4.597749,6.496575 l -0.148286,0.38634 1.134133,-0.15541 1.134142,-0.15543 0.0108,1.6955 0.0108,1.69549 0.315365,0.86179 c 0.173454,0.47398 0.778111,1.57148 1.343692,2.43888 l 1.028338,1.57708 v 0.95896 c 0,1.05425 -0.260279,1.65285 -1.554156,3.5743 -0.476122,0.70706 -1.000041,1.6926 -1.164262,2.1901 l -0.298591,0.90454 0.121395,1.51198 0.121394,1.512 1.190372,2.27729 1.190381,2.2773 0.954963,-0.95478 0.954963,-0.95477 z m -16.889179,0.66843 c 0,-0.0513 -0.39612,-0.74382 -0.880276,-1.53892 l -0.880266,-1.44563 0.104417,-1.16039 0.104417,-1.16039 1.005049,-1.30248 c 1.275614,-1.65311 1.531761,-2.34369 1.531761,-4.12976 v -1.44221 l -1.229651,-1.80426 -1.229651,-1.80426 -0.0019,-0.56191 c -9.31e-4,-0.30906 0.164519,-0.9597 0.367694,-1.44588 0.203175,-0.48617 0.369406,-1.09809 0.369406,-1.35982 v -0.47588 l -1.168851,0.075 -1.168852,0.075 -0.420097,0.8618 -0.420107,0.86179 -0.01145,1.35424 -0.01145,1.35424 0.430597,0.80267 c 0.236833,0.44147 0.760556,1.25938 1.163825,1.81757 l 0.733228,1.0149 v 0.91705 0.91705 l -1.269136,1.87823 -1.269135,1.87822 -0.164463,1.31604 -0.164454,1.31604 0.577235,1.4579 0.577245,1.45788 1.477635,0.14328 c 0.812699,0.0788 1.560755,0.16191 1.662342,0.18467 0.101588,0.0228 0.184708,-5.8e-4 0.184708,-0.0519 z m -19.756209,-5.07409 1.053944,-0.47827 1.29505,-1.30147 1.295049,-1.30147 2.181579,-3.32404 c 8.355489,-12.73116 16.940569,-21.286925 27.106248,-27.013686 2.960948,-1.66803 5.088132,-2.5675 8.554177,-3.617107 l 2.889863,-0.875125 2.281892,-0.279009 2.281883,-0.278999 2.017247,0.162058 c 2.579589,0.20723 5.140731,0.915607 7.418611,2.051882 l 1.801367,0.898577 1.587348,1.372289 c 1.823175,1.576159 3.518142,3.732279 4.414288,5.615282 0.721174,1.515372 1.607044,4.562484 1.587851,5.461749 l -0.01322,0.620509 -0.437923,-1.354235 C 84.39509,91.816732 78.81423,87.370845 71.420723,86.452269 l -2.089477,-0.259595 -2.289348,0.259288 c -2.858094,0.323706 -5.696791,1.03817 -8.092231,2.036713 l -1.84705,0.769947 1.231364,0.331504 c 6.322753,1.702165 13.05932,6.051222 16.99918,10.974464 l 1.605974,2.00683 1.072048,2.09512 c 0.589634,1.15231 1.211026,2.53833 1.380878,3.08002 0.169843,0.5417 0.430765,1.13786 0.579805,1.3248 l 0.270993,0.3399 1.910233,-0.14728 1.910233,-0.14728 0.680396,-0.3553 c 1.685389,-0.88011 3.023534,-3.21802 3.53149,-6.16995 l 0.2939,-1.70795 -0.142487,-2.35478 -0.142487,-2.35478 -0.50333,-1.723578 C 85.289849,85.92044 77.837226,80.141434 66.116627,77.651249 l -3.103434,-0.65937 -5.418034,-0.0047 -5.418026,-0.0047 -2.339601,0.434449 C 34.361474,80.290723 22.28679,88.559356 16.09971,100.52028 l -1.484048,2.86898 -0.833065,2.548 c -0.458186,1.40139 -1.015624,3.62381 -1.238764,4.93872 l -0.405689,2.39074 -0.0162,2.78 c -0.01741,2.98394 0.162909,4.83692 0.575886,5.91939 l 0.258334,0.67712 2.617566,-0.006 2.617566,-0.006 z"
       id="path2-2"
       sodipodi:nodetypes="ssscccssscssscsscsscccscscccccssscccssscsscccsssccsscsscsaassscsscccscscccccsssscssscccccscsscsscssscsscccccccsssscsccssscccsscccsscccsscssssssssscccccccccccsscsscsssccccccsscccccccccccccsscccccccccccccccssccsscccsscsscsssscccccsscssscccccccscscccsscccssscccccccsscccccccccssccccccssscccsscssscsscsscsscssscccsscccsscccsscsscsscccc" />
  </g>
</svg>
