<?xml version="1.0" encoding="UTF-8" standalone="no"?>
<!-- Created with Inkscape (http://www.inkscape.org/) -->

<svg
   width="100mm"
   height="100mm"
   viewBox="0 0 100 100"
   version="1.1"
   id="svg1"
   inkscape:version="1.4.3 (fcd0343856, 2026-01-01)"
   sodipodi:docname="favicon-about1.svg"
   xmlns:inkscape="http://www.inkscape.org/namespaces/inkscape"
   xmlns:sodipodi="http://sodipodi.sourceforge.net/DTD/sodipodi-0.dtd"
   xmlns="http://www.w3.org/2000/svg"
   xmlns:svg="http://www.w3.org/2000/svg">
  <sodipodi:namedview
     id="namedview1"
     pagecolor="#ffffff"
     bordercolor="#000000"
     borderopacity="0.25"
     inkscape:showpageshadow="2"
     inkscape:pageopacity="0.0"
     inkscape:pagecheckerboard="0"
     inkscape:deskcolor="#d1d1d1"
     inkscape:document-units="mm"
     inkscape:zoom="0.5"
     inkscape:cx="396"
     inkscape:cy="561"
     inkscape:window-width="1920"
     inkscape:window-height="1011"
     inkscape:window-x="0"
     inkscape:window-y="0"
     inkscape:window-maximized="1"
     inkscape:current-layer="layer1" />
  <defs
     id="defs1" />
  <g
     inkscape:label="Layer 1"
     inkscape:groupmode="layer"
     id="layer1">
    <path
       style="fill:#000000;stroke-width:1.385"
       d="M 43.123854,93.075413 C 40.503758,91.700143 30.363335,86.494239 20.58959,81.506753 10.815831,76.519254 2.7197472,72.277769 2.5982692,72.081224 c -0.206157,-0.333577 -0.0554,-34.425934 0.15318,-34.634486 0.0903,-0.09016 8.5757508,-4.112985 32.4937938,-15.40441 5.744068,-2.7117 11.119796,-5.191538 11.946071,-5.510738 l 1.502334,-0.580355 6.376278,3.310711 c 7.849929,4.075867 11.270332,5.951984 11.485256,6.299715 0.238011,0.385126 -0.751167,3.101369 -1.181708,3.244882 -0.200104,0.06676 -0.982489,-0.29855 -1.738628,-0.811677 -1.510852,-1.025286 -1.85073,-1.113261 -2.188642,-0.566506 -0.373437,0.604247 -0.956174,0.413713 -0.840569,-0.274839 0.07936,-0.472297 -0.663316,-1.043387 -2.818164,-2.167229 -1.609228,-0.839267 -3.052105,-1.447918 -3.206421,-1.352547 -0.154303,0.09543 -0.280559,0.798659 -0.280559,1.562872 0,0.764214 -0.191323,1.950021 -0.425166,2.63511 -0.461565,1.352228 -2.414355,4.582485 -3.314326,5.482456 -1.699129,1.699128 -3.871303,5.590389 -4.858584,8.703696 -1.658812,5.230955 -3.630632,7.113207 -8.705013,8.309568 -4.36979,1.030244 -6.821194,0.648151 -12.874864,-2.006778 -4.73327,-2.075848 -7.425649,-3.865333 -11.077402,-7.362548 -2.69893,-2.584737 -3.8176338,-3.370598 -3.8176338,-2.681798 0,0.121603 0.736833,1.040535 1.6374128,2.042192 3.234273,3.597281 2.538631,5.675179 -2.2571298,6.742139 -2.132979,0.474542 -2.691506,0.732844 -2.600983,1.202884 0.135591,0.704451 1.450605,0.670962 5.9179128,-0.150757 5.03229,-0.925635 5.790438,-0.783147 13.609675,2.557938 3.792372,1.620432 5.679929,2.821737 5.679929,3.614898 0,0.485316 -0.581394,0.268398 -6.779271,-2.529379 -6.11972,-2.762488 -7.869318,-3.103419 -12.123877,-2.362528 -1.881644,0.327676 -2.5278828,0.327842 -2.7300648,6.92e-4 -0.198913,-0.321846 -0.302511,-0.315724 -0.415942,0.02451 -0.0831,0.249245 -0.803881,0.559276 -1.601764,0.688967 -1.218257,0.198027 -1.450701,0.37575 -1.450701,1.109245 v 0.873434 l 6.0463708,0.03643 c 5.54118,0.03338 6.190467,0.107475 7.770901,0.885872 2.126469,1.047362 3.780447,2.878938 4.366633,4.835482 0.881246,2.941332 -0.87734,8.721646 -4.474178,14.706233 -0.990107,1.647384 -1.800205,3.132863 -1.800205,3.301043 0,0.60102 11.678448,6.173279 12.938062,6.173279 3.160023,0 7.090825,1.924523 8.658504,4.239213 0.621614,0.917824 1.772505,1.760043 3.794006,2.776433 1.595932,0.80241 2.964268,1.39638 3.040747,1.3199 0.07645,-0.0765 -0.02299,-0.70417 -0.221142,-1.39491 -0.804518,-2.805131 -0.208124,-5.605692 1.535671,-7.211347 0.490025,-0.451219 1.871713,-1.235446 3.070414,-1.742742 1.957666,-0.828506 2.030281,-0.89511 0.713661,-0.654508 -2.574322,0.470428 -6.480706,0.225297 -10.626973,-0.666849 -3.265657,-0.702664 -4.960907,-0.853574 -8.929575,-0.794864 -5.412957,0.08005 -6.881663,-0.269922 -7.945341,-1.893277 -0.951978,-1.452917 -0.545745,-3.41496 1.940782,-9.373356 3.857453,-9.243527 4.818766,-11.172551 5.318653,-10.672664 0.535897,0.535911 0.06482,1.89174 -3.710823,10.67819 -4.079925,9.494765 -3.910581,9.894074 4.196278,9.894074 4.08318,0 6.135053,0.19419 9.679704,0.91612 5.442139,1.108372 7.307979,1.135614 11.353875,0.165742 2.93859,-0.704423 3.134221,-0.710489 3.572849,-0.110661 1.046684,1.431436 0.588555,1.880882 -3.326527,3.263455 -3.896122,1.375884 -5.080309,2.230594 -5.674916,4.096046 -0.532587,1.670833 -0.11163,4.885291 0.803631,6.137021 0.441385,0.60364 0.551714,0.5961 1.985657,-0.13545 l 1.518303,-0.77458 -0.217985,-2.33433 c -0.372896,-3.99329 1.102693,-5.464794 7.283964,-7.263767 2.074518,-0.603762 5.338416,-1.777201 7.253105,-2.607659 3.069099,-1.331162 3.806624,-1.508871 6.229593,-1.501019 1.604118,0.0055 3.415472,0.255532 4.350719,0.601269 1.473762,0.544817 1.701705,0.544983 2.839965,0.0028 0.680684,-0.324602 1.237606,-0.707235 1.237606,-0.850291 0,-0.454321 -6.686531,-2.960889 -9.085083,-3.405722 -2.761574,-0.512144 -3.111036,-1.10333 -0.742511,-1.256123 1.863334,-0.120218 5.813567,1.072929 9.591867,2.897137 l 2.146192,1.036213 1.502916,-0.766734 1.502916,-0.766735 -1.633646,-0.826538 c -0.898503,-0.454598 -3.3651,-1.504315 -5.481334,-2.332682 -2.116235,-0.82838 -4.376979,-1.830772 -5.02387,-2.227546 -3.334408,-2.045129 -3.595176,-8.254777 -0.477575,-11.372378 1.416395,-1.416382 2.249831,-1.732286 8.249792,-3.126853 2.414867,-0.561298 5.683706,-1.68352 8.153446,-2.799163 l 4.12255,-1.862253 v -1.78414 -1.783599 l -2.10195,1.344583 c -2.5959,1.660584 -9.24391,4.825621 -12.922393,6.152199 -3.191034,1.150794 -5.881045,1.120338 -8.271591,-0.09363 -2.573394,-1.306828 -4.958858,-1.936489 -8.679404,-2.290993 -4.559369,-0.434418 -6.312429,-1.284779 -7.535839,-3.655464 -1.22154,-2.367085 -0.987572,-5.921971 0.615188,-9.347 1.783724,-3.811748 8.587371,-10.135451 9.685673,-9.002441 0.351028,0.362122 0.09834,0.739686 -1.204809,1.800067 -5.635872,4.585962 -7.774654,7.49073 -8.392307,11.398001 -0.661558,4.184991 1.117374,6.745255 4.963123,7.142999 4.24787,0.439348 7.734808,1.239627 10.292566,2.362237 3.213886,1.410578 5.051431,1.455646 8.508356,0.208664 5.951804,-2.14694 15.043387,-6.996245 15.043387,-8.023926 0,-0.264327 -0.47245,-0.676308 -1.0499,-0.915483 -0.95911,-0.397287 -1.24905,-0.306154 -3.35334,1.053913 -3.511317,2.26947 -9.491209,5.086292 -12.235498,5.763514 -2.749011,0.678385 -2.834701,0.666253 -11.760925,-1.666471 -4.531946,-1.184352 -5.642063,-1.74126 -6.939861,-3.481481 -0.978126,-1.311592 -1.002128,-4.612207 -0.04695,-6.453782 1.584173,-3.054196 6.904072,-8.016475 8.101569,-7.556946 0.802813,0.308064 0.644716,0.691598 -0.66142,1.604713 -2.129599,1.488775 -5.362889,4.910521 -6.1222,6.479044 -0.409183,0.84525 -0.743965,2.243308 -0.743965,3.106784 0,2.429438 1.570365,3.791957 5.325813,4.620891 1.605586,0.354393 4.226291,1.033194 5.823789,1.508428 3.503253,1.042169 5.320065,1.083858 7.939898,0.182183 3.192114,-1.098649 12.0585,-5.718958 12.0585,-6.283746 0,-0.119525 -0.73428,-0.574026 -1.63173,-1.010037 L 86.582395,39.913831 84.641266,41.22192 C 78.39936,45.428239 73.445973,46.581873 67.572671,45.197152 60.136385,43.443926 59.254821,39.54484 65.06728,34.11597 c 1.348669,-1.259655 2.683709,-2.290287 2.966761,-2.290287 1.039094,0 1.024524,0.852037 -0.02756,1.609256 -5.550238,3.994858 -6.878021,7.633024 -3.428076,9.393051 0.766056,0.390805 2.83797,0.962573 4.604257,1.270583 4.842407,0.844446 7.707911,0.174232 13.354434,-3.123529 1.399706,-0.817467 2.540556,-1.602705 2.535209,-1.744972 -0.0055,-0.142267 -1.580254,-1.00073 -3.499818,-1.907681 -1.919551,-0.906966 -3.652778,-1.838196 -3.851594,-2.069408 -0.454252,-0.528265 0.76028,-2.82894 1.577234,-2.987716 0.311528,-0.06052 4.443542,1.893873 9.182241,4.343144 l 8.61582,4.453223 0.24711,7.749613 c 0.13587,4.262288 0.19481,11.294985 0.13088,15.628226 l -0.1162,7.878612 -3.84769,1.910077 c -3.73203,1.852655 -19.30341,9.340781 -27.117094,13.040344 -2.116234,1.001977 -6.882771,3.283637 -10.592306,5.070377 -3.709535,1.78673 -7.007559,3.246 -7.328934,3.2428 -0.321389,-0.003 -2.728057,-1.13103 -5.348153,-2.50631 z m 11.693213,-4.4362 c 1.312895,-0.56277 1.797644,-1.01995 2.234153,-2.107081 0.306597,-0.76359 1.12182,-1.773447 1.811604,-2.24411 1.615364,-1.102223 7.103928,-2.865283 10.533679,-3.383673 2.472373,-0.373686 6.524376,-1.980532 6.524376,-2.587286 0,-0.377633 -1.842406,-0.724658 -3.933378,-0.740849 -1.359181,-0.01108 -2.763998,0.398076 -5.626704,1.636596 -2.098381,0.907838 -5.21691,2.015323 -6.930041,2.461057 -5.586635,1.453582 -7.250931,3.002854 -6.72941,6.264276 0.124788,0.78087 0.274728,1.41977 0.333036,1.41977 0.05831,0 0.860513,-0.32341 1.782685,-0.7187 z m 7.680668,-3.642918 c 1.946697,-0.887312 3.465125,-1.687619 3.374283,-1.778461 -0.319657,-0.319657 -5.969781,1.773614 -6.750449,2.500917 -0.810265,0.754879 -1.033928,1.230113 -0.47673,1.01296 0.172391,-0.06717 1.906186,-0.848117 3.852896,-1.735416 z m -25.420252,0.556077 c 0,-0.273177 -1.659711,-1.22197 -2.565139,-1.466366 -0.503862,-0.136007 -0.174053,0.162571 0.732899,0.66351 1.801424,0.994996 1.83224,1.0085 1.83224,0.802856 z M 18.653253,71.792175 C 22.295505,66.005532 23.993871,59.800565 22.64789,57.197753 21.894299,55.740459 20.088346,54.370614 18.205456,53.82811 17.305429,53.568797 14.68874,53.448926 11.426185,53.517553 l -5.3134858,0.111769 v 0.91612 c 0,0.89878 0.06787,0.920538 3.582295,1.149825 2.9113748,0.189938 3.9751778,0.430166 5.6799428,1.282576 3.72959,1.864858 4.544716,4.95926 2.496471,9.477135 -0.456869,1.007724 -1.681691,2.954046 -2.721824,4.325152 -1.040147,1.371106 -1.891172,2.562702 -1.891172,2.64799 0,0.282221 2.741256,1.605987 3.114803,1.504162 0.201545,-0.05498 1.227565,-1.468 2.280038,-3.140107 z M 14.941696,68.783366 C 17.657066,64.702153 18.27321,61.97526 16.964775,59.829594 16.02047,58.281057 14.193036,57.5082 10.359668,57.036221 6.5320352,56.564948 5.9294782,56.714223 5.9294782,58.133734 c 0,0.991118 0.117863,1.068096 2.241091,1.462931 2.7293588,0.507588 3.8918978,1.22413 4.5529568,2.80624 0.787648,1.885092 0.111631,3.609815 -2.467663,6.295893 l -2.1967168,2.287655 1.775124,0.908683 1.7751368,0.908696 0.855956,-0.792523 c 0.470774,-0.435886 1.585129,-1.888457 2.476333,-3.227943 z m 73.643182,3.562143 c 0.6906,-0.507089 0.68433,-0.532614 -0.21548,-0.876274 C 85.083093,70.214054 78.131196,66.529255 77.203442,65.55081 76.253334,64.548778 76.1041,64.115371 76.1041,62.358087 c 0,-1.898818 0.0921,-2.112911 1.392283,-3.236836 0.952559,-0.823422 2.789522,-1.682605 5.816129,-2.720328 6.393796,-2.192229 10.197836,-3.996922 10.197836,-4.838045 0,-0.873199 -10e-4,-0.872991 -2.48398,0.35636 -3.50425,1.735332 -5.91552,2.564406 -10.806693,3.715712 -2.573519,0.605756 -5.085364,1.367546 -5.581857,1.692868 -1.995297,1.307368 -3.18102,4.872088 -2.403871,7.226874 0.668261,2.02488 2.159779,3.063074 7.400982,5.151622 2.732309,1.088788 5.446695,2.238931 6.031981,2.555874 1.337838,0.724478 2.018298,0.743909 2.917968,0.08338 z m 3.82612,-2.018121 c 0,-0.123265 -1.71565,-1.07732 -3.81253,-2.120181 -4.963418,-2.468467 -6.447996,-3.750753 -6.447996,-5.569337 0,-1.951835 1.233464,-2.95244 6.608446,-5.360881 5.03169,-2.254623 5.20591,-2.362598 4.8199,-2.987176 -0.19159,-0.310004 -1.14866,-0.03615 -3.37438,0.965329 -1.70881,0.768951 -4.790054,1.936517 -6.847204,2.594599 -4.564937,1.460327 -6.117145,2.602354 -6.117145,4.500631 0,0.791595 0.285974,1.638923 0.714561,2.117204 0.393021,0.438573 3.435444,2.150776 6.760961,3.804906 5.060297,2.517011 6.180837,2.948091 6.870877,2.643239 0.45347,-0.20034 0.82451,-0.465082 0.82451,-0.588333 z M 9.1376302,67.824117 C 11.480588,65.566848 12.168031,63.993436 11.421075,62.597747 10.900704,61.625423 8.9424842,60.775049 7.2238132,60.775049 h -1.294335 v 4.580587 c 0,3.660063 0.102074,4.580587 0.507934,4.580587 0.279367,0 1.494467,-0.950454 2.700218,-2.112106 z m 84.3727178,-0.01246 c 0,-0.824129 -0.23408,-1.11081 -1.19096,-1.458624 -1.53869,-0.559303 -3.13634,-2.055918 -3.42579,-3.209135 -0.31818,-1.267744 0.60632,-2.522607 2.97471,-4.037627 1.35623,-0.867577 1.91678,-1.441325 1.77335,-1.815109 -0.11537,-0.300585 -0.24077,-0.546533 -0.27869,-0.546533 -0.0379,0 -1.95788,0.834807 -4.26656,1.85512 -5.809574,2.56755 -6.84087,3.679093 -5.009627,5.399454 0.933391,0.876883 8.248477,4.818003 8.965507,4.830316 0.25921,0.0042 0.45806,-0.437382 0.45806,-1.017862 z m 0.004,-7.688771 c -0.16789,-0.343036 -0.64344,-0.169745 -1.76622,0.643581 -2.0858,1.510949 -2.07999,2.574114 0.0209,3.830362 l 1.5574,0.931244 0.20883,-2.467885 c 0.11481,-1.357325 0.1054,-2.679111 -0.0209,-2.937302 z M 38.543267,48.499542 c 2.882055,-0.900484 4.376093,-2.60241 5.639058,-6.423714 1.34461,-4.068388 2.083049,-5.442859 4.910438,-9.14004 2.527108,-3.304479 3.523433,-5.184737 3.936536,-7.428876 0.432175,-2.347792 0.0187,-3.090566 -2.399757,-4.311427 -1.205709,-0.608637 -2.192201,-1.041933 -2.192201,-0.962878 0,0.07908 0.247346,0.735739 0.549678,1.459303 1.308254,3.131104 0.511327,6.316266 -2.899534,11.588922 -2.220261,3.432162 -2.565347,4.143649 -3.680187,7.587486 -1.675375,5.175402 -4.289128,6.938088 -9.854767,6.645978 -2.686922,-0.141034 -3.488697,-0.35913 -6.327277,-1.721178 -3.840583,-1.842835 -8.298086,-4.773628 -11.21471,-7.373628 -1.830786,-1.632025 -2.192603,-1.816119 -2.86362,-1.457003 -0.970509,0.519402 -0.851053,0.672915 3.439059,4.419498 3.357372,2.932012 7.781939,5.437209 12.682696,7.180934 2.827666,1.006103 6.932701,0.980786 10.274588,-0.06343 z M 36.24359,45.929984 c 2.410491,-0.715836 3.807108,-2.306048 4.874456,-5.550099 1.004746,-3.053795 2.215857,-5.520267 4.020425,-8.187716 2.869327,-4.241374 3.636297,-6.574402 2.962357,-9.011221 -0.676114,-2.444686 -0.881703,-2.602438 -2.429562,-1.864317 -1.13513,0.541298 -1.301745,0.766651 -1.073858,1.452377 0.148361,0.446412 0.345114,1.568482 0.43723,2.493508 0.150868,1.514979 -0.07105,2.138892 -2.236729,6.28869 -1.322326,2.533769 -2.828663,5.734567 -3.347413,7.112889 -1.184658,3.147614 -1.75,4.009303 -3.217432,4.904067 -1.542097,0.940275 -4.771648,0.946895 -7.224685,0.01482 -2.383428,-0.905635 -6.680784,-3.590729 -10.11699,-6.321362 -2.301823,-1.82918 -2.824521,-2.097772 -3.440665,-1.768018 -0.399586,0.213843 -0.726514,0.519124 -0.726514,0.678385 0,0.430942 4.216541,3.757428 7.145713,5.637327 3.32632,2.134793 5.392916,3.179621 7.878612,3.983265 2.511069,0.811844 4.110048,0.845666 6.495055,0.137392 z M 10.179466,45.209675 c 1.833446,-0.766056 1.692605,-1.977596 -0.4966738,-4.272606 -1.262577,-1.323545 -1.918996,-1.760207 -2.38009,-1.583273 -0.510385,0.195866 -0.592363,0.521437 -0.413297,1.641318 0.157558,0.985301 0.04903,1.645945 -0.36827,2.241715 -0.325419,0.464597 -0.591657,1.323808 -0.591657,1.909357 0,1.041089 0.03324,1.059329 1.501641,0.824517 0.825902,-0.13199 2.062663,-0.474528 2.7483468,-0.761028 z m 24.865824,-2.54316 c 1.533151,-0.640589 2.060336,-1.436159 3.419836,-5.16086 0.588499,-1.612372 2.001154,-4.579493 3.139206,-6.593597 1.757659,-3.110663 2.068355,-3.93824 2.063591,-5.496708 -0.0083,-2.68238 -0.337801,-3.037756 -2.086138,-2.24936 -1.403584,0.63293 -1.414456,0.654009 -1.405121,2.724954 0.0097,2.104614 8.17e-4,2.12845 -4.384957,12.056207 -1.188175,2.689595 -5.080031,3.049376 -8.80066,0.813575 -1.148703,-0.690297 -3.198568,-2.182714 -4.555228,-3.316514 l -2.466666,-2.061444 -1.248298,0.52713 -1.248298,0.52713 1.282563,1.086101 c 2.395006,2.028148 8.443524,5.918176 10.547377,6.783425 2.417,0.99404 3.989359,1.092597 5.742793,0.359961 z m -1.377919,-4.060909 c 0.431149,-0.301985 1.073788,-1.332616 1.428112,-2.290287 0.35431,-0.957684 1.357463,-3.350058 2.229222,-5.316408 1.007669,-2.272905 1.585005,-4.10822 1.585005,-5.038648 0,-0.804919 -0.08795,-1.463485 -0.195396,-1.463485 -0.107476,0 -1.014427,0.415029 -2.015462,0.922298 -1.771203,0.897533 -1.820052,0.966007 -1.820052,2.551372 0,2.151704 -1.275998,5.485018 -2.454534,6.412066 -1.790579,1.408459 -4.925659,0.633609 -7.384362,-1.825094 l -1.128828,-1.128828 -1.33209,0.683399 -1.33209,0.6834 1.777297,1.467653 c 5.315218,4.389167 8.639931,5.745689 10.643178,4.342562 z M 32.035456,32.87302 c 1.099023,-1.298518 2.205331,-5.811116 1.42465,-5.811116 -0.574719,0 -8.108937,3.713773 -8.108937,3.997074 0,0.30373 2.789315,2.364578 3.664481,2.707462 0.886038,0.347136 2.331864,-0.08061 3.019806,-0.89342 z m 26.201793,45.275184 c -0.539595,-0.539595 -0.233926,-0.782482 2.201231,-1.749113 1.360441,-0.540024 3.280601,-1.596721 4.267024,-2.348193 3.370682,-2.56784 3.116147,-2.439811 3.396761,-1.708533 0.640395,1.668839 -8.577204,7.093651 -9.865016,5.805839 z M 42.940633,75.252729 c -1.310041,-0.286791 -4.404568,-0.771429 -6.876719,-1.07696 -6.089417,-0.752621 -6.834019,-1.214005 -6.766168,-4.19258 0.07811,-3.428478 3.53094,-10.569385 6.514154,-13.47209 2.119531,-2.06233 4.609479,-2.88794 8.594517,-2.849756 5.296617,0.05069 8.677008,1.770636 13.946825,7.095936 3.377537,3.413104 4.741981,5.670996 4.741981,7.847048 0,2.921305 -1.527749,4.412296 -6.082866,5.936514 -3.606436,1.206761 -10.271001,1.543925 -14.071724,0.711888 z m 11.909522,-1.512361 c 5.262768,-1.285679 7.487793,-3.148459 6.981882,-5.845173 -0.548944,-2.926153 -7.063888,-9.49345 -11.562456,-11.655375 -2.178531,-1.046961 -2.694816,-1.144673 -6.046385,-1.144423 -3.295975,2.49e-4 -3.85827,0.102351 -5.591746,1.015646 -1.098137,0.578527 -2.385713,1.648216 -2.992868,2.486361 -1.586625,2.190276 -4.310056,7.629174 -4.805608,9.597172 -0.834336,3.313467 -0.06191,4.067792 4.59549,4.487765 1.410827,0.127142 4.296593,0.54537 6.412828,0.92925 2.116234,0.383879 4.342395,0.765307 4.947043,0.847646 1.68406,0.229314 5.615582,-0.121188 8.06182,-0.718869 z M 45.505759,71.903709 C 34.916777,70.576134 32.603014,68.685446 35.073295,63.378774 c 1.562969,-3.357552 3.297955,-5.397237 5.512635,-6.480776 1.766883,-0.86446 2.323749,-0.961257 4.654366,-0.80906 3.093392,0.202016 4.755014,0.948017 7.851827,3.52522 6.14062,5.110279 6.5749,9.965498 1.039939,11.626456 -1.951337,0.585577 -6.472563,0.933114 -8.626303,0.663095 z m 7.649229,-1.767437 c 3.478018,-0.925704 4.509592,-2.73289 2.986164,-5.231439 -1.235279,-2.025974 -5.061943,-5.504131 -7.214118,-6.557089 -2.402333,-1.17535 -5.82901,-1.349929 -7.682607,-0.3914 -2.491901,1.288615 -5.632728,5.989019 -5.632728,8.429647 0,2.032705 0.883268,2.536401 6.229593,3.552476 4.28543,0.814462 8.706424,0.891758 11.313696,0.197805 z M 43.123854,67.784575 c -2.39243,-0.622875 -3.847688,-1.99369 -3.847688,-3.624413 0,-1.173397 1.284682,-3.582739 2.285384,-4.286109 2.344468,-1.647856 5.1723,-1.453693 7.930785,0.544539 3.040706,2.202686 3.838506,5.186053 1.793405,6.706503 -0.779075,0.579219 -1.667357,0.76528 -4.03091,0.844322 -1.667398,0.05581 -3.526341,-0.02742 -4.130976,-0.184842 z m 7.771843,-1.981294 c 0.623844,-0.624426 0.620534,-0.708232 -0.07908,-2.002069 -1.539813,-2.847499 -5.442001,-4.468028 -7.810096,-3.243442 -1.359251,0.7029 -2.354551,2.432582 -2.194903,3.814463 0.191199,1.655141 2.032138,2.321393 6.055873,2.191633 2.647935,-0.08545 3.517741,-0.249604 4.028251,-0.760585 z m 16.284465,3.435832 C 66.200429,65.969051 62.852641,62.09009 56.656648,57.045902 c -3.258981,-2.653156 -5.563146,-3.801305 -8.738279,-4.354237 -3.915789,-0.681903 -7.508721,-0.2856 -11.545282,1.273449 -2.156551,0.832938 -3.582156,1.204172 -3.797454,0.988888 -0.578749,-0.578762 -0.0083,-1.026255 2.800159,-2.195276 3.816914,-1.588979 7.267745,-2.058729 11.31281,-1.539978 4.733255,0.607017 6.592531,1.446256 10.96548,4.949592 6.620743,5.304124 10.262594,9.748746 10.824321,13.210297 0.300807,1.853584 -0.734423,1.742341 -1.298241,-0.139524 z M 65.290181,59.217647 c -1.833557,-1.24791 -2.701978,-2.596427 -2.41315,-3.747248 0.50749,-2.021985 4.35468,-2.352764 6.283968,-0.540288 1.279197,1.201748 1.245735,3.318523 -0.06884,4.352548 -1.243741,0.978334 -2.295425,0.960343 -3.801997,-0.06496 z m 3.287152,-1.17337 c 0.692873,-0.834848 0.07133,-2.046707 -1.355331,-2.642824 -2.723056,-1.137775 -4.050036,0.417065 -1.89998,2.226217 1.253893,1.055091 2.584141,1.225321 3.255311,0.416607 z m -22.450597,-7.93692 c -2.451888,-1.426367 -0.688994,-5.279471 2.095723,-4.58056 1.861685,0.467257 2.851986,3.492908 1.473221,4.501089 -0.790473,0.578001 -2.641148,0.619218 -3.568944,0.0795 z m 2.677047,-1.578315 c 0,-1.596943 -1.269446,-2.248972 -2.198683,-1.129313 -0.363949,0.438532 -0.363949,0.66081 0,1.099342 0.583361,0.702886 2.198683,0.724907 2.198683,0.02992 z m -0.641281,-4.500036 c -0.605535,-0.226849 -0.587322,-1.745747 0.02701,-2.25562 0.52533,-0.435984 1.347146,0.09224 1.347146,0.865775 0,0.676668 -0.885983,1.572748 -1.374181,1.389845 z m 21.345549,-2.122868 c -0.201545,-0.06717 -0.824129,-0.223303 -1.383501,-0.346831 -1.378045,-0.304326 -2.464201,-1.466297 -2.464201,-2.636218 0,-1.965075 2.990984,-5.235539 4.32126,-4.725056 0.489265,0.187736 0.271875,0.539982 -1.124479,1.82206 -4.978469,4.571018 1.919703,6.419947 8.195486,2.196648 2.183988,-1.469718 3.569096,-1.471421 2.189306,-0.0028 -1.263062,1.344472 -4.734557,3.032437 -7.144439,3.473891 -1.195903,0.219065 -2.185304,0.385292 -2.198683,0.369379 -0.01385,-0.01593 -0.189204,-0.08393 -0.390749,-0.151173 z M 49.17024,39.382756 c 0,-1.241193 0.965191,-1.985075 1.666165,-1.2841 0.462409,0.462409 0.457409,0.633705 -0.03919,1.342685 -0.756112,1.079509 -1.626998,1.048138 -1.626998,-0.05859 z m 2.198683,-3.312927 c 0,-1.001312 0.450803,-1.678977 1.116917,-1.678977 0.915082,0 1.19553,0.568486 0.719368,1.458222 -0.450706,0.842134 -1.836285,1.008721 -1.836285,0.220755 z m 2.73843,-2.794371 c -0.308148,-0.498585 0.281986,-1.186056 2.868911,-3.342178 2.113284,-1.761356 3.187377,-2.200345 3.187377,-1.302673 0,0.49756 -4.955464,5.027346 -5.499782,5.027346 -0.176061,0 -0.426496,-0.172114 -0.556506,-0.382495 z m 18.422471,-0.625229 c -0.31517,-0.352703 -0.629301,-1.05354 -0.698066,-1.557402 -0.09002,-0.659937 -0.458143,-1.023789 -1.31626,-1.301163 -0.655173,-0.211766 -1.37461,-0.56843 -1.598758,-0.792578 -0.537725,-0.537726 -0.09709,-1.204283 0.796152,-1.204283 0.391207,0 0.711279,-0.170202 0.711279,-0.378215 0,-0.280144 -2.994211,-4.862933 -4.282882,-6.555192 -0.06454,-0.08476 -0.51677,0.221087 -1.004926,0.679674 -1.512112,1.420564 -2.31879,0.207306 -0.880277,-1.323933 l 0.794435,-0.845624 -1.778032,-2.578768 c -0.977905,-1.41832 -1.984438,-2.750078 -2.236743,-2.959462 -0.324505,-0.269313 -1.493692,-0.10526 -3.996091,0.560813 -4.138094,1.101392 -4.781065,1.145698 -5.086208,0.350515 -0.513972,-1.339375 2.045322,-4.145393 5.937248,-6.5096114 9.554209,-5.803886 23.512349,-4.8926 31.863013,2.0802384 2.92271,2.440476 4.59085,5.456141 3.29346,5.953992 -0.25472,0.09778 -1.93467,-0.319685 -3.7332,-0.927629 -1.79853,-0.607931 -3.56278,-1.105339 -3.920553,-1.105339 -0.570965,0 -3.26322,3.435319 -3.811028,4.862864 -0.101243,0.264049 0.314852,1.039094 0.924832,1.722313 1.259683,1.410938 1.334528,1.678173 0.553847,1.977748 -0.338327,0.129774 -0.931023,-0.208747 -1.517278,-0.866717 -0.529139,-0.593873 -1.093497,-0.998555 -1.254129,-0.899279 -0.381969,0.236073 -3.635895,5.597605 -3.635895,5.990902 0,0.166449 0.412258,0.22383 0.91612,0.127559 0.742317,-0.141907 0.916121,-0.02895 0.916121,0.595562 0,0.534429 -0.393201,0.934984 -1.282563,1.306593 -1.037197,0.433365 -1.282563,0.734187 -1.282563,1.572387 0,2.230497 -2.091193,3.478698 -3.391055,2.02409 z m 0.934735,-7.353546 c 0.751375,-0.08767 1.069121,0.08158 1.293961,0.689424 0.262956,0.710822 0.542961,0.407411 2.379204,-2.578047 1.144645,-1.861035 2.08118,-3.494127 2.08118,-3.629095 0,-0.134898 -1.401548,-1.63967 -3.114554,-3.343771 l -3.114541,-3.098363 -2.931831,2.91463 c -1.612511,1.603051 -2.931831,3.062422 -2.931831,3.243054 0,0.180631 1.111862,1.972056 2.470821,3.980952 2.137051,3.15911 2.497898,3.536674 2.67123,2.79498 0.139317,-0.596158 0.503987,-0.892977 1.196361,-0.973764 z m 8.305814,-9.208084 c 0.8137,-1.198217 1.47944,-2.255177 1.47944,-2.348789 0,-0.178762 -3.551631,-0.768826 -6.948531,-1.154423 l -2.001487,-0.227209 2.149682,2.313222 c 2.159682,2.32397 3.472756,3.595772 3.712485,3.595772 0.07091,0 0.794711,-0.980357 1.608411,-2.178573 z M 68.764834,15.345991 c 1.394346,-1.405107 2.441321,-2.648572 2.326643,-2.763263 -0.252637,-0.252624 -7.922267,0.358049 -8.218601,0.654397 -0.219827,0.219813 2.776254,4.663604 3.144276,4.663604 0.116894,0 1.35335,-1.149631 2.747682,-2.554738 z"
       id="path1"
       sodipodi:nodetypes="cssssscsssssssssssssssssssssssssssscssssssssssssssssssssssssssscssscscsssscccsssssscccsssssssssssssssssssssssssssscsssscssscsssscsscssscccssssscsssssssssssssssssscssssssssssssssscccsssssssssssssssssssssssssssssssscssssssssssscsssscssssssssssssssssssssssssssssssssssssssssssssssssssssssscccsssssssssssscccssssssssssssssssssssscssssssssscssssssssssssssssssssssssssssssssssssssssssssssssssssssssssssssssssssssscssssssssssssssssssssssssscsssssssssssssssssssssssssscsssssssscssssssss" />
  </g>
</svg>
