<?xml version="1.0" encoding="UTF-8" standalone="no"?>
<!-- Created with Inkscape (http://www.inkscape.org/) -->

<svg
   width="100mm"
   height="100mm"
   viewBox="0 0 100 100"
   version="1.1"
   id="svg1"
   xml:space="preserve"
   inkscape:version="1.4.3 (fcd0343856, 2026-01-01)"
   sodipodi:docname="favicon-map6.svg"
   xmlns:inkscape="http://www.inkscape.org/namespaces/inkscape"
   xmlns:sodipodi="http://sodipodi.sourceforge.net/DTD/sodipodi-0.dtd"
   xmlns="http://www.w3.org/2000/svg"
   xmlns:svg="http://www.w3.org/2000/svg"><sodipodi:namedview
     id="namedview1"
     pagecolor="#ffffff"
     bordercolor="#000000"
     borderopacity="0.25"
     inkscape:showpageshadow="2"
     inkscape:pageopacity="0.0"
     inkscape:pagecheckerboard="0"
     inkscape:deskcolor="#d1d1d1"
     inkscape:document-units="mm"
     inkscape:zoom="0.89575787"
     inkscape:cx="199.83079"
     inkscape:cy="195.92348"
     inkscape:window-width="1648"
     inkscape:window-height="961"
     inkscape:window-x="0"
     inkscape:window-y="0"
     inkscape:window-maximized="1"
     inkscape:current-layer="layer1" /><defs
     id="defs1" /><g
     inkscape:label="Layer 1"
     inkscape:groupmode="layer"
     id="layer1"><path
       style="fill:none;stroke:#000000;stroke-width:0;stroke-dasharray:none;stroke-opacity:0.301913;paint-order:markers stroke fill"
       d="m 62.971518,14.019778 7.04905,-0.75712"
       id="path8" /><path
       id="path10"
       style="fill:#000000;stroke-width:1.02726"
       d="M 50.000049 2.3006348 C 23.688047 2.3006348 2.3006348 23.688047 2.3006348 50.000049 C 2.3006348 76.312051 23.688047 97.699463 50.000049 97.699463 C 70.10286 97.699463 87.299954 85.199697 94.311556 67.573136 C 94.401638 67.348281 94.481211 67.120012 94.567871 66.893591 C 95.292007 64.988698 95.934961 63.043974 96.41272 61.031934 C 96.597572 60.262222 96.764348 59.485819 96.911914 58.702877 C 96.951772 58.4914 96.98963 58.263288 97.025602 58.020748 C 97.468617 55.412519 97.699463 52.732984 97.699463 50.000049 C 97.699463 44.031755 96.550173 38.34025 94.541516 33.07085 C 94.494716 32.946917 94.452435 32.820174 94.404574 32.696712 C 87.460746 14.930581 70.203332 2.3006348 50.000049 2.3006348 z M 47.787264 7.7561157 C 48.557866 7.763008 49.41308 7.766451 50.314758 7.766451 C 51.038853 7.766451 51.715428 7.7648359 52.327555 7.7618001 C 62.640038 8.3187368 71.960605 12.555192 79.002413 19.183842 L 73.292684 19.311483 L 67.22122 19.447392 L 67.059989 23.118486 L 50.171615 23.048722 L 33.28324 22.978442 L 33.21141 21.430733 C 33.17193 20.579263 33.060463 19.753747 32.963363 19.596737 C 32.848513 19.411157 30.685461 19.311483 26.781311 19.311483 L 20.862809 19.311483 C 21.679992 18.535464 22.535266 17.800174 23.412524 17.090946 C 23.559376 16.972968 23.703946 16.856167 23.854875 16.738513 C 24.618716 16.137662 25.407785 15.567749 26.21287 15.019755 C 26.47479 14.841826 26.737492 14.668487 27.004036 14.494722 C 33.043897 10.579238 40.139258 8.1486449 47.787264 7.7561157 z M 68.988554 21.20284 L 75.175773 21.275704 L 81.140784 21.345984 C 81.216324 21.428056 81.291197 21.510326 81.366093 21.592997 L 81.435856 27.392643 L 81.50872 33.436719 L 78.647913 33.436719 L 75.787105 33.436719 L 75.787105 30.464807 C 75.787105 28.830197 75.686997 27.430736 75.564897 27.355436 C 75.442807 27.280076 73.914071 27.181211 72.167171 27.135811 L 68.990621 27.053129 L 68.989587 24.127726 L 68.988554 21.20284 z M 24.789701 21.275187 C 28.076831 21.234887 30.891497 21.249443 31.044617 21.307743 C 31.217977 21.373763 31.290987 22.500801 31.237887 24.293091 L 31.15262 27.172502 L 27.838094 27.248466 L 24.524084 27.324947 L 24.447087 30.380575 L 24.370089 33.436719 L 21.518583 33.436719 L 18.666561 33.436719 L 18.739941 27.392643 L 18.812288 21.397144 C 18.827306 21.380774 18.842721 21.364397 18.857764 21.348051 L 24.789701 21.275187 z M 16.517855 24.201107 C 16.519924 24.200808 16.521639 24.201107 16.523539 24.201107 C 16.654629 24.201107 16.795165 26.676166 16.835665 29.701546 L 16.909562 35.202502 L 18.269169 35.337895 L 19.628776 35.473804 L 19.699056 49.938554 L 19.769853 64.403821 L 18.562691 64.403821 C 16.437511 64.403821 16.396763 64.53071 16.580383 70.57502 C 16.667873 73.45572 16.642923 75.812427 16.524573 75.812427 C 16.502362 75.812427 16.475367 75.803212 16.444474 75.785555 C 15.540657 74.610311 14.697364 73.386189 13.919047 72.117562 C 13.032242 70.672102 12.22974 69.16887 11.518677 67.614994 C 11.031554 66.550492 10.587773 65.462646 10.188525 64.352661 C 9.6089645 62.74137 9.1597748 61.070468 8.7767253 59.37467 C 8.3728265 57.552672 8.0326696 55.709675 7.8703206 53.837541 C 7.7458702 52.402435 7.714986 50.957588 7.7318278 49.51429 C 7.7520227 47.740731 7.8509698 45.985909 8.082194 44.271716 C 8.2628037 42.932757 8.5073201 41.613806 8.8097982 40.317952 C 8.8153758 40.293461 8.8227812 40.269568 8.8284017 40.245089 C 9.7431752 36.357604 11.190155 32.677752 13.093258 29.288652 C 14.069956 27.549318 15.16612 25.886169 16.370577 24.310661 C 16.436758 24.243585 16.486816 24.205582 16.517855 24.201107 z M 83.678097 24.37474 C 89.090195 31.481979 92.300826 40.360058 92.300826 50.000049 C 92.300826 59.551186 89.149362 68.35448 83.827441 75.428471 C 83.73013 74.842246 83.674479 73.284941 83.674479 71.004451 C 83.674479 66.408961 83.702428 66.146401 84.235168 65.814071 C 84.587048 65.594571 84.764508 65.240918 84.711108 64.865808 C 84.627488 64.278678 84.07198 63.912809 81.63481 62.840609 L 80.547021 62.362085 L 80.476225 48.986157 L 80.405945 35.609713 L 81.156287 35.578707 C 81.569027 35.561607 82.090512 35.560973 82.314872 35.577673 C 83.450312 35.661843 83.516818 35.33398 83.527718 29.64987 C 83.532574 27.123022 83.59665 24.98385 83.678097 24.37474 z M 33.362305 25.015527 L 50.172131 25.015527 L 66.981958 25.015527 L 66.919946 26.570471 C 66.820676 29.068371 66.853031 29.090214 70.611711 29.090214 L 73.848206 29.090214 L 73.761906 31.955155 C 73.654386 35.526085 73.716597 35.609713 76.486287 35.609713 L 78.506836 35.609713 L 78.506836 48.54174 C 78.506836 58.78348 78.436025 61.443296 78.166805 61.328556 C 76.940555 60.806006 66.407114 56.400912 62.461304 54.760482 C 57.487554 52.692682 56.750991 52.58041 56.748991 53.88715 C 56.748401 54.21805 57.315699 56.47895 58.009379 58.91165 C 58.703079 61.34435 59.192685 63.412335 59.097685 63.507235 C 59.002665 63.602135 58.103351 63.492806 57.633691 63.350138 C 56.523719 63.012964 55.317065 62.605516 54.551192 61.734216 C 52.388996 59.274379 51.631652 57.519435 51.143132 52.519275 L 51.003605 51.093005 L 51.82371 51.093005 L 52.643298 51.093005 L 52.232987 52.073307 C 51.661547 53.439407 51.930116 53.518995 52.541496 52.164775 C 52.816396 51.555865 53.722913 50.434537 54.555843 49.672937 C 55.226067 49.060071 55.625137 48.62878 55.585238 48.574296 L 55.584721 48.573779 C 55.584486 48.57355 55.583427 48.57244 55.583171 48.572229 C 55.57044 48.563345 55.534908 48.573042 55.4762 48.604268 C 55.1495 48.778058 54.045787 48.920011 53.023637 48.920011 L 51.165352 48.920011 L 51.17052 46.950623 L 51.175688 44.981234 L 52.992114 44.801917 C 53.991404 44.703207 55.056035 44.544466 55.357345 44.448966 C 55.822005 44.301646 55.935616 44.431772 56.106136 45.307312 C 56.216706 45.875052 56.314427 46.799057 56.324727 47.360417 C 56.338537 48.152227 56.434081 48.34562 56.750541 48.22393 C 56.974901 48.13766 57.493346 47.999472 57.902926 47.916972 C 58.493386 47.797952 58.621008 47.647041 58.517358 47.188851 C 58.055738 45.148071 57.830341 43.949344 57.897241 43.890344 C 57.939711 43.852864 58.870866 43.39823 59.966366 42.88007 L 61.957975 41.938009 L 62.366219 42.56071 C 63.000899 43.52822 64.081561 46.786581 64.087561 47.752641 L 64.093762 48.621838 L 62.93776 48.097839 C 62.30207 47.809619 61.537273 47.574941 61.238123 47.576941 C 60.938973 47.578531 61.317632 47.794859 62.079932 48.058049 C 62.842232 48.321259 63.980643 48.943957 64.609493 49.441427 C 65.800573 50.383687 67.336265 52.734796 67.373665 53.673726 L 67.395369 54.217362 L 67.628947 53.673726 C 68.017197 52.771296 67.925307 47.562562 67.488387 45.711422 C 66.329787 40.802672 62.595191 36.179534 58.039351 34.013944 C 55.070021 32.602474 53.354939 32.219726 50.087899 32.240926 C 46.895979 32.261536 44.704065 32.777782 41.793315 34.193262 C 37.626935 36.219342 33.760039 41.146778 32.660539 45.830278 C 31.997299 48.655398 32.23418 53.315348 33.17627 55.976428 C 34.0674 58.493578 35.893698 61.203143 38.034888 63.183223 C 40.074758 65.069593 41.863284 66.10907 44.648954 67.02795 C 48.878984 68.42326 54.611752 67.938521 58.361812 65.868331 C 59.023442 65.503081 59.651383 65.299109 59.757593 65.415129 C 59.979803 65.657849 62.463854 74.146075 62.462854 74.657975 L 62.462337 74.657975 C 62.461637 74.925325 59.369704 74.997489 47.911804 74.997489 L 33.362305 74.997489 L 33.362305 73.241524 C 33.362305 71.011594 33.20935 70.922569 29.36875 70.923319 L 26.427327 70.923836 L 26.512077 68.107471 C 26.619437 64.540341 26.515347 64.403304 23.688477 64.403304 L 21.667928 64.403304 L 21.667928 50.00625 L 21.667928 35.609713 L 23.639901 35.605579 C 24.724321 35.603289 25.794714 35.485279 26.019084 35.343579 C 26.349864 35.134389 26.411495 34.522741 26.343095 32.088481 L 26.258862 29.090214 L 29.483988 29.090214 C 31.629898 29.090214 32.81857 28.981533 33.03571 28.764653 C 33.22046 28.580103 33.362305 27.695901 33.362305 26.727051 L 33.362305 25.015527 z M 54.492281 36.206059 C 55.311981 36.197529 60.558061 39.613806 60.558061 40.207365 C 60.558061 40.320075 60.221643 40.569366 59.810303 40.761336 C 57.315703 41.925586 57.308175 41.926599 57.018225 41.184049 C 56.871175 40.807469 56.642132 40.224155 56.509212 39.888005 C 56.376292 39.551855 55.82243 38.617959 55.27828 37.812679 C 54.73412 37.007399 54.340831 36.296431 54.404431 36.232931 C 54.42218 36.215202 54.451968 36.206478 54.492281 36.206059 z M 45.973421 36.228796 C 46.020342 36.232542 46.055012 36.244783 46.076774 36.26652 C 46.186244 36.37587 46.07303 36.579065 45.82511 36.717655 C 45.27054 37.027645 43.903903 39.210858 43.409753 40.575818 C 42.975313 41.775838 42.474873 41.846345 40.760303 40.949955 L 39.590865 40.338623 L 40.760303 39.179521 C 41.898868 38.050808 45.269613 36.172606 45.973421 36.228796 z M 48.896757 36.696468 C 49.028287 36.696468 49.136019 38.102178 49.136019 39.820308 L 49.136019 42.944149 L 48.252352 42.912626 C 47.766232 42.895296 47.123682 42.829482 46.824532 42.766382 C 46.525382 42.703182 46.00507 42.592719 45.66853 42.520919 C 44.89086 42.355169 44.900543 42.153718 45.773433 40.310718 C 46.438693 38.906088 48.348157 36.696468 48.896757 36.696468 z M 51.477995 36.766231 C 51.505207 36.766063 51.534136 36.767536 51.564811 36.769849 C 51.853591 36.791579 52.03347 36.900391 51.96427 37.012211 C 51.89508 37.124041 52.136441 37.411002 52.500671 37.649382 C 53.108511 38.047192 55.119116 41.442594 55.119116 42.071334 C 55.119116 42.220034 54.843817 42.40948 54.507267 42.49198 C 54.170727 42.57452 53.252878 42.725617 52.467598 42.827877 L 51.039779 43.013912 L 51.039779 39.871985 C 51.039779 37.118594 51.069815 36.768749 51.477995 36.766231 z M 38.244694 42.129211 C 38.725024 42.129211 42.200423 43.726454 42.188123 43.941504 C 42.159883 44.431804 41.751018 47.470187 41.618648 48.173287 L 41.478088 48.920011 L 38.644153 48.920011 C 37.033973 48.920011 35.810217 48.808379 35.810217 48.661629 C 35.810217 47.145699 37.679744 42.129211 38.244694 42.129211 z M 44.343547 44.415377 C 44.505533 44.403852 45.082348 44.47455 45.736743 44.588493 C 46.484613 44.718703 47.555533 44.896201 48.116443 44.983301 L 49.136019 45.141947 L 49.136019 47.031238 L 49.136019 48.920011 L 46.416288 48.920011 C 43.776818 48.920011 43.697625 48.902396 43.698625 48.309196 C 43.700355 47.634906 44.179585 44.543492 44.300655 44.425712 C 44.305894 44.420616 44.320406 44.417023 44.343547 44.415377 z M 59.991687 47.323726 C 59.89721 47.319839 59.789602 47.337236 59.691447 47.376436 C 59.474497 47.463146 59.538968 47.527667 59.855778 47.540767 C 60.142428 47.552567 60.303162 47.48834 60.212862 47.39814 C 60.167677 47.35299 60.086165 47.327614 59.991687 47.323726 z M 38.616764 51.093522 L 41.423311 51.093522 L 41.744222 53.501127 C 42.158602 56.609887 42.180691 56.438399 41.335461 56.650289 C 40.934211 56.750879 40.116068 57.069653 39.516968 57.358773 C 38.917888 57.647883 38.346578 57.884322 38.247278 57.884322 C 38.002118 57.884322 36.46718 54.477887 36.10529 53.130607 C 35.54381 51.040297 35.478184 51.093522 38.616764 51.093522 z M 43.635063 51.093522 L 46.385799 51.093522 C 49.500129 51.093522 49.334456 50.930258 48.963936 53.630318 C 48.800526 54.821138 48.741425 54.893061 47.807935 55.036951 C 47.266945 55.120321 46.250438 55.287031 45.549158 55.407471 L 44.2743 55.626579 L 44.129089 54.649894 C 44.049099 54.112944 43.905012 53.093016 43.809212 52.383366 L 43.635063 51.093522 z M 51.698653 53.662358 C 51.655902 53.671889 51.626823 53.824665 51.626823 54.081453 C 51.626823 54.454993 51.688265 54.607728 51.763765 54.420968 C 51.839165 54.234228 51.839165 53.928699 51.763765 53.741939 C 51.740209 53.683583 51.718086 53.658025 51.698653 53.662358 z M 59.349866 55.711328 C 59.466686 55.711328 68.968082 59.684316 75.311682 62.385856 C 78.415372 63.707616 80.954225 64.855288 80.953715 64.936088 C 80.953195 65.016838 79.39402 65.693886 77.48881 66.440906 C 75.3566 67.276926 73.994257 67.960258 73.945357 68.218058 C 73.901617 68.448418 74.923136 69.79292 76.214986 71.20599 C 77.506856 72.61905 79.243706 74.544635 80.075216 75.485315 L 81.587268 77.195805 L 80.387341 78.426737 C 78.366221 80.499447 78.698152 80.631374 74.676062 76.151424 C 70.887202 71.931234 70.534306 71.608404 69.952836 71.831274 C 69.753306 71.907744 68.812091 73.445263 67.861491 75.247603 C 66.910891 77.049943 66.0596 78.525473 65.9691 78.526473 C 65.87869 78.527683 64.334918 73.394804 62.538818 67.119934 C 60.742718 60.845034 59.307766 55.711328 59.349866 55.711328 z M 48.805806 57.205294 C 48.848506 57.240654 48.848506 58.592702 48.805806 60.209762 L 48.728292 63.149634 L 47.690629 62.239095 C 46.737289 61.402225 45.654093 59.658742 45.224113 58.269312 C 45.063763 57.751202 45.203801 57.680005 46.888611 57.422335 C 47.900361 57.267625 48.763106 57.169894 48.805806 57.205294 z M 51.361206 57.205294 L 51.765833 58.697192 C 51.988463 59.517852 52.313666 60.366395 52.488786 60.582865 C 52.603976 60.731419 52.598456 61.377884 52.527026 62.238578 C 51.47386 63.211728 51.450468 61.640462 51.372058 60.193225 L 51.361206 57.205294 z M 42.621171 58.427441 C 42.739361 58.427441 43.055847 59.002253 43.324487 59.704883 C 43.593127 60.407493 44.223605 61.519887 44.725435 62.176567 C 45.227265 62.833247 45.597424 63.411009 45.548124 63.460209 C 45.198964 63.808969 39.889555 60.35468 39.889555 59.77878 C 39.889555 59.55234 42.163381 58.427441 42.621171 58.427441 z M 18.676896 66.576815 L 21.532536 66.576815 L 24.388175 66.576815 L 24.388175 69.406616 C 24.388175 70.963106 24.462223 72.430036 24.553023 72.666366 C 24.690783 73.024946 25.254998 73.096313 27.962118 73.096313 L 31.205847 73.096313 L 31.128333 75.820178 L 31.050818 78.544043 L 25.252205 78.604504 C 22.062805 78.637744 19.278436 78.566878 19.064986 78.447408 C 18.747596 78.269798 18.676896 77.167743 18.676896 72.403333 L 18.676896 66.576815 z M 81.40175 67.21967 C 81.411764 67.219825 81.418421 67.221474 81.421903 67.22432 L 81.42242 67.224837 C 81.47422 67.276577 81.481773 68.756429 81.439473 70.513009 L 81.362992 73.706612 L 79.151241 71.288672 L 76.940007 68.871248 L 79.134188 68.001017 C 80.265535 67.552339 81.241518 67.217188 81.40175 67.21967 z M 70.505257 74.699316 L 72.287577 76.682141 L 74.070414 78.664966 L 71.503129 78.664966 C 70.091239 78.664966 68.882905 78.578243 68.817505 78.472213 C 68.752085 78.366183 69.104596 77.473798 69.601436 76.489388 L 70.505257 74.699316 z M 33.362821 77.170483 L 48.308679 77.170483 L 63.254537 77.170483 L 63.83383 79.139872 C 64.15238 80.223022 64.589056 81.384443 64.803796 81.720593 C 65.354046 82.581963 66.171697 82.493138 66.677067 81.516988 L 67.099264 80.702051 L 71.528451 80.702051 L 75.957638 80.702051 L 76.755522 81.533525 L 77.423181 82.230123 C 74.311635 84.879033 70.801724 87.069578 67.007796 88.734635 C 66.801 88.825707 66.589843 88.900404 66.381995 88.988367 C 62.617703 90.568743 58.588636 91.648302 54.359989 92.079651 C 52.690513 92.205199 50.843915 92.280534 49.15824 92.292558 C 45.155311 92.214751 41.290139 91.583421 37.635946 90.47148 C 35.868979 89.910682 34.134752 89.227678 32.460034 88.465918 C 32.254046 88.372 32.053411 88.268987 31.849219 88.171879 C 30.415723 87.493248 29.046778 86.740927 27.748694 85.936357 C 27.486064 85.773582 27.216789 85.620992 26.958044 85.452665 C 25.713943 84.633866 24.035727 83.407182 22.782589 82.404272 C 22.233422 81.942752 21.696599 81.467491 21.171834 80.979036 C 21.149077 80.947074 21.136555 80.922314 21.135661 80.905656 C 21.129631 80.793626 23.73126 80.702051 26.91722 80.702051 C 31.06001 80.702051 32.802826 80.609102 33.036226 80.375972 C 33.215706 80.196692 33.362821 79.402019 33.362821 78.610189 L 33.362821 77.170483 z " /></g></svg>
